<?xml version="1.0" encoding="utf-8"?>
<!-- Generator: Adobe Illustrator 23.0.0, SVG Export Plug-In . SVG Version: 6.00 Build 0)  -->
<svg version="1.1" id="Layer_1" xmlns="http://www.w3.org/2000/svg" xmlns:xlink="http://www.w3.org/1999/xlink" x="0px" y="0px"
	 viewBox="0 0 1920 1080" style="enable-background:new 0 0 1920 1080;" xml:space="preserve">
<style type="text/css">
	.st0{fill:#1C1C1E;}
	.st1{fill:#F2F2F2;}
	.st2{fill:#1DD1A1;}
	.st3{fill:#1DD1A1;stroke:#1DD1A1;stroke-miterlimit:10;}
	.st4{fill:#F2F2F2;stroke:#F2F2F2;stroke-miterlimit:10;}
</style>
<g>
	<rect x="4.9" y="-2" class="st0" width="1919" height="1081.5"/>
	<path class="st0" d="M1923.4-1.5V1079H5.4V-1.5H1923.4 M1924.4-2.5H4.4V1080h1920V-2.5L1924.4-2.5z"/>
</g>
<g>
	<circle class="st2" cx="432" cy="322" r="121.5"/>
	<g>
		<path class="st2" d="M432,201c32.3,0,62.7,12.6,85.6,35.4c22.9,22.9,35.4,53.2,35.4,85.6s-12.6,62.7-35.4,85.6S464.3,443,432,443
			s-62.7-12.6-85.6-35.4S311,354.3,311,322s12.6-62.7,35.4-85.6C369.3,213.6,399.7,201,432,201 M432,200c-67.4,0-122,54.6-122,122
			s54.6,122,122,122s122-54.6,122-122S499.4,200,432,200L432,200z"/>
	</g>
</g>
<path class="st3" d="M746-2c0,110.5,89.5,200,200,200s200-89.5,200-200"/>
<path class="st3" d="M-390,1256c0-110.5,89.5-200,200-200s200,89.5,200,200"/>
<g>
	<circle class="st2" cx="631" cy="902" r="76.5"/>
	<g>
		<path class="st2" d="M631,826c41.9,0,76,34.1,76,76c0,41.9-34.1,76-76,76s-76-34.1-76-76C555,860.1,589.1,826,631,826 M631,825
			c-42.5,0-77,34.5-77,77c0,42.5,34.5,77,77,77s77-34.5,77-77C708,859.5,673.5,825,631,825L631,825z"/>
	</g>
</g>
<g>
	<circle class="st2" cx="1169" cy="979" r="45.5"/>
	<g>
		<path class="st2" d="M1169,934c24.8,0,45,20.2,45,45s-20.2,45-45,45s-45-20.2-45-45S1144.2,934,1169,934 M1169,933
			c-25.4,0-46,20.6-46,46s20.6,46,46,46s46-20.6,46-46S1194.4,933,1169,933L1169,933z"/>
	</g>
</g>
<g>
	<path class="st4" d="M399.7,567.6h-9.9l-5.7-15.7h-31.5l-5.7,15.7H337l26.1-70h10.5L399.7,567.6z M368.3,508.7l-12.5,34.5h25.1
		L368.3,508.7z"/>
	<path class="st4" d="M481.1,516.3c5.7,0,10.2,1.8,13.7,5.5c3.4,3.7,5.1,8.6,5.1,14.7v31.1h-8.7v-30.8c0-3.8-1-6.8-3-9
		c-2-2.2-4.7-3.3-8-3.3c-3.9,0-6.9,1.3-9.1,3.9c-2.2,2.6-3.3,6.4-3.3,11.4v27.8h-8.7v-30.8c0-3.8-1-6.8-2.9-9
		c-1.9-2.2-4.5-3.3-7.8-3.3c-3.8,0-6.9,1.3-9.3,4c-2.4,2.6-3.5,6.4-3.5,11.3v27.8h-8.7v-50h8.7v6.7c3.4-5.3,8.4-8,14.9-8
		c6.7,0,11.6,2.8,14.7,8.5C468.9,519.2,474.1,516.3,481.1,516.3z"/>
	<path class="st4" d="M536.4,508.5c-1.7,0-3.1-0.6-4.2-1.7c-1.1-1.1-1.7-2.5-1.7-4.1s0.6-3,1.7-4.1c1.1-1.2,2.5-1.8,4.2-1.8
		c1.6,0,3,0.6,4.1,1.8c1.1,1.2,1.7,2.5,1.7,4.1s-0.6,3-1.7,4.1C539.4,508,538,508.5,536.4,508.5z M540.7,567.6H532v-50h8.7V567.6z"
		/>
	<path class="st4" d="M594.5,556.8l14.4-39.2h9.3l-20.4,53.1c-2.2,5.7-5.2,10-9,13c-3.8,3-8.2,4.3-13.1,4v-8.1
		c6.1,0.5,10.6-2.9,13.5-10.2l0.9-1.9l-21.8-49.8h9.3L594.5,556.8z"/>
	<path class="st4" d="M684.9,526.2v-8.6h8.7v50h-8.7V559c-4.3,6.6-10.6,9.9-18.9,9.9c-7.1,0-13-2.5-17.9-7.6
		c-4.9-5.1-7.4-11.4-7.4-18.7c0-7.3,2.5-13.5,7.4-18.6c4.9-5.1,10.9-7.7,17.9-7.7C674.4,516.3,680.7,519.6,684.9,526.2z
		 M667.1,560.5c5.1,0,9.3-1.7,12.7-5.1c3.4-3.5,5.1-7.8,5.1-12.8c0-5.1-1.7-9.3-5.1-12.7c-3.4-3.5-7.6-5.2-12.7-5.2
		c-5,0-9.2,1.7-12.6,5.2c-3.4,3.4-5.1,7.6-5.1,12.7c0,5,1.7,9.3,5.1,12.8C657.9,558.8,662.1,560.5,667.1,560.5z"/>
	<path class="st4" d="M824.5,567.6h-10.3l-15.7-26.8H782v26.8h-9.3v-70h28c6,0,11.1,2.1,15.4,6.4c4.3,4.2,6.4,9.3,6.4,15.3
		c0,4.5-1.4,8.7-4.1,12.4c-2.8,3.8-6.3,6.4-10.4,7.9L824.5,567.6z M800.7,506.3H782v26.1h18.7c3.5,0,6.4-1.3,8.8-3.8
		c2.5-2.5,3.7-5.6,3.7-9.3c0-3.7-1.2-6.7-3.7-9.2C807.1,507.6,804.2,506.3,800.7,506.3z"/>
	<path class="st4" d="M891.8,526.2v-8.6h8.7v50h-8.7V559c-4.3,6.6-10.6,9.9-18.9,9.9c-7.1,0-13-2.5-17.9-7.6
		c-4.9-5.1-7.4-11.4-7.4-18.7c0-7.3,2.5-13.5,7.4-18.6c4.9-5.1,10.9-7.7,17.9-7.7C881.3,516.3,887.6,519.6,891.8,526.2z M874,560.5
		c5.1,0,9.3-1.7,12.7-5.1c3.4-3.5,5.1-7.8,5.1-12.8c0-5.1-1.7-9.3-5.1-12.7c-3.4-3.5-7.6-5.2-12.7-5.2c-5,0-9.2,1.7-12.6,5.2
		c-3.4,3.4-5.1,7.6-5.1,12.7c0,5,1.7,9.3,5.1,12.8C864.8,558.8,869,560.5,874,560.5z"/>
	<path class="st4" d="M958.6,516.3c5.9,0,10.6,1.8,14.1,5.5c3.5,3.7,5.3,8.7,5.3,15v30.7h-8.7v-30.2c0-4-1.1-7.1-3.3-9.4
		c-2.2-2.3-5.2-3.4-9.1-3.4c-4.5,0-8,1.4-10.6,4.1c-2.6,2.8-3.9,6.9-3.9,12.4v26.5h-8.7v-50h8.7v7.2
		C945.9,519.2,951.3,516.3,958.6,516.3z"/>
	<path class="st4" d="M1011.2,570.6v-53h8.7v53c0,6.5-1.6,11.3-4.9,14.3c-3.3,3.1-8.1,4.4-14.4,4v-8.4c3.7,0.3,6.3-0.3,8-1.9
		C1010.4,577.1,1011.2,574.4,1011.2,570.6z M1015.6,508.5c-1.7,0-3.1-0.6-4.2-1.7c-1.1-1.1-1.7-2.5-1.7-4.1s0.6-3,1.7-4.1
		c1.1-1.2,2.5-1.8,4.2-1.8c1.6,0,3,0.6,4.1,1.8c1.1,1.2,1.7,2.5,1.7,4.1s-0.6,3-1.7,4.1C1018.6,508,1017.2,508.5,1015.6,508.5z"/>
	<path class="st4" d="M1094.5,526.2v-8.6h8.7v50h-8.7V559c-4.3,6.6-10.6,9.9-18.9,9.9c-7.1,0-13-2.5-17.9-7.6
		c-4.9-5.1-7.4-11.4-7.4-18.7c0-7.3,2.5-13.5,7.4-18.6c4.9-5.1,10.9-7.7,17.9-7.7C1084,516.3,1090.3,519.6,1094.5,526.2z
		 M1076.7,560.5c5.1,0,9.3-1.7,12.7-5.1c3.4-3.5,5.1-7.8,5.1-12.8c0-5.1-1.7-9.3-5.1-12.7c-3.4-3.5-7.6-5.2-12.7-5.2
		c-5,0-9.2,1.7-12.6,5.2c-3.4,3.4-5.1,7.6-5.1,12.7c0,5,1.7,9.3,5.1,12.8C1067.5,558.8,1071.7,560.5,1076.7,560.5z"/>
	<path class="st4" d="M1161.3,516.3c5.9,0,10.6,1.8,14.1,5.5c3.5,3.7,5.3,8.7,5.3,15v30.7h-8.7v-30.2c0-4-1.1-7.1-3.3-9.4
		c-2.2-2.3-5.2-3.4-9.1-3.4c-4.5,0-8,1.4-10.6,4.1c-2.6,2.8-3.9,6.9-3.9,12.4v26.5h-8.7v-50h8.7v7.2
		C1148.6,519.2,1154,516.3,1161.3,516.3z"/>
	<path class="st4" d="M1281.3,568.9c-6.5,0-12.1-1.5-16.8-4.5c-4.6-3-7.9-7.3-9.8-12.7l8-4.6c2.7,8.5,8.9,12.7,18.7,12.7
		c4.7,0,8.4-1,11-2.9c2.6-1.9,3.8-4.6,3.8-7.9c0-3.3-1.3-5.8-3.8-7.5c-2.3-1.5-6.5-3.3-12.7-5.3l-6.7-2.2c-1.5-0.6-3.4-1.5-5.8-2.6
		c-2.3-1.2-4-2.4-5.1-3.6c-2.9-3.2-4.4-7.1-4.4-11.7c0-6.1,2.1-10.9,6.4-14.4c4.3-3.6,9.5-5.4,15.6-5.4c5.5,0,10.3,1.4,14.4,4.1
		c4.1,2.7,7.2,6.5,9.3,11.2l-7.8,4.5c-3-7.2-8.3-10.8-15.9-10.8c-3.8,0-6.9,0.9-9.2,2.8c-2.3,1.9-3.5,4.4-3.5,7.6
		c0,3.1,1.1,5.4,3.3,7c2.3,1.7,6.1,3.3,11.4,5l4.1,1.3c2.3,0.9,3.5,1.3,3.7,1.4c2.1,0.8,4.5,1.9,7,3.3c1.8,1,3.6,2.5,5.4,4.6
		c2.3,2.3,3.5,5.8,3.5,10.5c0,6.1-2.2,11-6.7,14.7C1294.3,567.1,1288.5,568.9,1281.3,568.9z"/>
	<path class="st4" d="M1384.8,546.6h-41.9c0.9,4.4,2.9,7.8,6.1,10.3s7.2,3.8,12,3.8c6.6,0,11.4-2.4,14.4-7.3l7.4,4.2
		c-4.9,7.5-12.3,11.3-22,11.3c-7.9,0-14.3-2.5-19.4-7.4c-4.9-5.1-7.4-11.4-7.4-18.9c0-7.6,2.4-13.9,7.3-18.8
		c4.9-5,11.2-7.5,18.9-7.5c7.3,0,13.3,2.6,17.9,7.8c4.7,5.1,7,11.3,7,18.6C1385.1,544,1385,545.3,1384.8,546.6z M1360.2,524.5
		c-4.6,0-8.5,1.3-11.5,3.9c-3.1,2.6-5,6.1-5.8,10.6h33.4c-0.7-4.6-2.6-8.2-5.5-10.7C1367.9,525.8,1364.4,524.5,1360.2,524.5z"/>
	<path class="st4" d="M1440.8,517.6v8.4h-13.3v27.1c0,2.5,0.5,4.2,1.5,5.3c1,1,2.5,1.6,4.5,1.6c2,0,4.5,0,7.4-0.1v7.8
		c-7.7,1-13.3,0.4-16.8-1.9s-5.3-6.5-5.3-12.6V526h-9.9v-8.4h9.9v-11.4l8.7-2.6v14H1440.8z"/>
	<path class="st4" d="M1496,516.3c5.9,0,10.6,1.8,14.1,5.5c3.5,3.7,5.3,8.7,5.3,15v30.7h-8.7v-30.2c0-4-1.1-7.1-3.3-9.4
		c-2.2-2.3-5.2-3.4-9.1-3.4c-4.5,0-8,1.4-10.6,4.1c-2.6,2.8-3.9,6.9-3.9,12.4v26.5h-8.7v-70h8.7v27.2
		C1483.3,519.2,1488.7,516.3,1496,516.3z"/>
	<path class="st4" d="M1551.9,508.5c-1.7,0-3.1-0.6-4.2-1.7c-1.1-1.1-1.7-2.5-1.7-4.1s0.6-3,1.7-4.1c1.1-1.2,2.5-1.8,4.2-1.8
		c1.6,0,3,0.6,4.1,1.8c1.1,1.2,1.7,2.5,1.7,4.1s-0.6,3-1.7,4.1C1554.9,508,1553.5,508.5,1551.9,508.5z M1556.2,567.6h-8.7v-50h8.7
		V567.6z"/>
</g>
<g>
	<path class="st4" d="M336.3,710.3V688h2.5v22.4c0,2.8,0.9,5.1,2.6,6.8c1.7,1.7,4.1,2.5,7.2,2.5s5.5-0.8,7.2-2.5
		c1.7-1.7,2.6-3.9,2.6-6.8V688h2.5v22.4c0,3.5-1.1,6.4-3.4,8.5c-2.2,2.1-5.2,3.2-8.9,3.2c-3.7,0-6.7-1.1-8.9-3.2
		C337.5,716.7,336.3,713.9,336.3,710.3z"/>
	<path class="st4" d="M381.8,704.3l11.2,17.3h-2.9l-9.7-15l-9.7,15h-3l11.2-17.3L368.3,688h2.9l9.1,14.1l9.1-14.1h2.9L381.8,704.3z"
		/>
	<path class="st4" d="M419.7,683.2l-19.2,43.2h-1.9l19.2-43.2H419.7z"/>
	<path class="st4" d="M427.9,710.3V688h2.5v22.4c0,2.8,0.9,5.1,2.6,6.8c1.7,1.7,4.1,2.5,7.2,2.5c3.1,0,5.5-0.8,7.2-2.5
		c1.7-1.7,2.6-3.9,2.6-6.8V688h2.5v22.4c0,3.5-1.1,6.4-3.4,8.5c-2.2,2.1-5.2,3.2-8.9,3.2s-6.7-1.1-8.9-3.2
		C429,716.7,427.9,713.9,427.9,710.3z"/>
	<path class="st4" d="M462.8,721.6V688h2.5v33.6H462.8z"/>
	<path class="st4" d="M491.3,688h12.6c4.6,0,8.4,1.6,11.3,4.9c3,3.2,4.5,7.2,4.5,11.9c0,4.7-1.5,8.7-4.5,12c-3,3.2-6.8,4.8-11.3,4.8
		h-12.6V688z M493.8,719.2h10.1c3.9,0,7.1-1.4,9.6-4.1c2.5-2.8,3.7-6.2,3.7-10.3c0-4.1-1.2-7.5-3.7-10.2c-2.5-2.8-5.7-4.2-9.6-4.2
		h-10.1V719.2z"/>
	<path class="st4" d="M538.9,697c3.5,0,6.4,1.2,8.5,3.7c2.2,2.5,3.3,5.5,3.3,8.9c0,0.1,0,0.3,0,0.6c0,0.3,0,0.5,0,0.6H529
		c0.3,2.7,1.4,4.9,3.2,6.5c1.9,1.6,4.2,2.4,7,2.4c1.9,0,3.6-0.4,5-1.2c1.4-0.8,2.5-1.8,3.3-3.2l2.1,1.2c-1,1.7-2.4,3-4.2,4
		c-1.8,1-3.9,1.5-6.2,1.5c-3.7,0-6.7-1.2-9.1-3.5c-2.4-2.4-3.6-5.4-3.6-9c0-3.6,1.2-6.6,3.5-8.9C532.3,698.2,535.3,697,538.9,697z
		 M538.9,699.3c-2.7,0-5,0.8-6.8,2.5c-1.8,1.7-2.9,3.9-3.1,6.6h19.3c-0.3-2.8-1.3-5.1-3.1-6.7C543.4,700.2,541.3,699.3,538.9,699.3z
		"/>
	<path class="st4" d="M559.4,703.9c0,2,1.7,3.5,5.1,4.3c1,0.2,1.7,0.4,2.2,0.5s1.2,0.3,2.1,0.6c0.9,0.3,1.6,0.6,2.1,0.9
		c0.5,0.3,1,0.7,1.5,1.2c0.6,0.5,1,1,1.2,1.7s0.4,1.4,0.4,2.2c0,2-0.8,3.7-2.4,4.9c-1.6,1.3-3.7,1.9-6.2,1.9c-2.3,0-4.2-0.5-5.8-1.4
		c-1.6-1-2.7-2.3-3.3-3.9l2.1-1.2c0.4,1.3,1.3,2.4,2.5,3.1c1.2,0.7,2.7,1.1,4.5,1.1c1.9,0,3.4-0.4,4.5-1.2s1.7-1.9,1.7-3.3
		c0-2.2-1.7-3.6-5.1-4.4c-3.2-0.8-5.3-1.5-6.4-2.1c-2-1.2-3-2.8-3-4.9c0-1.9,0.8-3.5,2.3-4.8c1.6-1.3,3.5-2,5.9-2
		c1.9,0,3.6,0.4,5,1.3c1.4,0.9,2.5,2,3.2,3.5l-2,1.2c-0.5-1.2-1.3-2-2.4-2.7c-1.1-0.6-2.4-1-3.8-1c-1.7,0-3,0.4-4.1,1.2
		C560,701.4,559.4,702.5,559.4,703.9z"/>
	<path class="st4" d="M581.2,689.8c0-0.8,0.3-1.3,0.9-1.6c0.7-0.3,1.3-0.3,2,0c0.7,0.3,1,0.8,0.9,1.6c0,0.8-0.3,1.4-0.9,1.7
		c-0.7,0.3-1.3,0.3-2,0C581.5,691.2,581.2,690.6,581.2,689.8z M584.4,721.6H582v-24h2.4V721.6z"/>
	<path class="st4" d="M615.5,703.1v-5.6h2.4v22.8c0,3.5-1.1,6.2-3.4,8.3c-2.3,2-5.1,3-8.5,3c-2.7,0-5.1-0.5-7-1.5s-3.4-2.4-4.3-4.2
		l2.1-1.2c1.5,3.1,4.6,4.7,9.2,4.7c3,0,5.3-0.8,7-2.4c1.7-1.6,2.5-3.8,2.5-6.6V716c-1,1.9-2.4,3.4-4.2,4.5c-1.8,1.1-3.8,1.6-6.1,1.6
		c-3.4,0-6.4-1.2-8.8-3.6c-2.4-2.4-3.6-5.4-3.6-8.9c0-3.5,1.2-6.5,3.6-8.9c2.4-2.4,5.4-3.6,8.8-3.6c2.3,0,4.3,0.5,6.1,1.6
		C613.1,699.7,614.5,701.2,615.5,703.1z M598,716.8c2,2,4.4,3,7.2,3c2.8,0,5.2-1,7.2-3c2-2,3-4.4,3-7.2c0-2.8-1-5.3-3-7.2
		c-2-2-4.4-3-7.2-3c-2.8,0-5.3,1-7.2,3c-2,2-2.9,4.4-2.9,7.2S596.1,714.9,598,716.8z"/>
	<path class="st4" d="M638.6,697c2.8,0,5.1,0.9,6.8,2.6c1.7,1.7,2.5,4.1,2.5,7v14.9h-2.4v-14.9c0-2.2-0.6-4-1.9-5.3
		c-1.2-1.3-3-2-5.2-2c-2.5,0-4.6,0.8-6.1,2.5s-2.3,4-2.3,7.1v12.7h-2.4v-24h2.4v4.6C631.8,698.7,634.6,697,638.6,697z"/>
	<path class="st4" d="M667.9,697c3.5,0,6.4,1.2,8.5,3.7c2.2,2.5,3.3,5.5,3.3,8.9c0,0.1,0,0.3,0,0.6c0,0.3,0,0.5,0,0.6H658
		c0.3,2.7,1.4,4.9,3.2,6.5c1.9,1.6,4.2,2.4,7,2.4c1.9,0,3.6-0.4,5-1.2c1.4-0.8,2.5-1.8,3.3-3.2l2.1,1.2c-1,1.7-2.4,3-4.2,4
		c-1.8,1-3.9,1.5-6.2,1.5c-3.7,0-6.7-1.2-9.1-3.5c-2.4-2.4-3.6-5.4-3.6-9c0-3.6,1.2-6.6,3.5-8.9C661.3,698.2,664.3,697,667.9,697z
		 M667.9,699.3c-2.7,0-5,0.8-6.8,2.5c-1.8,1.7-2.9,3.9-3.1,6.6h19.3c-0.3-2.8-1.3-5.1-3.1-6.7C672.4,700.2,670.3,699.3,667.9,699.3z
		"/>
	<path class="st4" d="M690.2,697.6v4.7c1.4-3.4,4.1-5,8-5v2.3c-2.4,0-4.3,0.8-5.8,2.3c-1.5,1.5-2.2,3.6-2.2,6.4v13.3h-2.4v-24H690.2
		z"/>
	<path class="st4" d="M738.8,731.2h-2.4V687h2.4V731.2z"/>
	<path class="st4" d="M779.5,710.3V688h2.5v22.4c0,2.8,0.9,5.1,2.6,6.8c1.7,1.7,4.1,2.5,7.2,2.5c3.1,0,5.5-0.8,7.2-2.5
		c1.7-1.7,2.6-3.9,2.6-6.8V688h2.5v22.4c0,3.5-1.1,6.4-3.4,8.5c-2.2,2.1-5.2,3.2-8.9,3.2s-6.7-1.1-8.9-3.2
		C780.6,716.7,779.5,713.9,779.5,710.3z"/>
	<path class="st4" d="M814.4,721.6V688h2.5v33.6H814.4z"/>
	<path class="st4" d="M842.9,688h12.6c4.6,0,8.4,1.6,11.3,4.9c3,3.2,4.5,7.2,4.5,11.9c0,4.7-1.5,8.7-4.5,12c-3,3.2-6.8,4.8-11.3,4.8
		h-12.6V688z M845.4,719.2h10.1c3.9,0,7.1-1.4,9.6-4.1c2.5-2.8,3.7-6.2,3.7-10.3c0-4.1-1.2-7.5-3.7-10.2c-2.5-2.8-5.7-4.2-9.6-4.2
		h-10.1V719.2z"/>
	<path class="st4" d="M890.5,697c3.5,0,6.4,1.2,8.5,3.7c2.2,2.5,3.3,5.5,3.3,8.9c0,0.1,0,0.3,0,0.6c0,0.3,0,0.5,0,0.6h-21.7
		c0.3,2.7,1.4,4.9,3.2,6.5c1.9,1.6,4.2,2.4,7,2.4c1.9,0,3.6-0.4,5-1.2c1.4-0.8,2.5-1.8,3.3-3.2l2.1,1.2c-1,1.7-2.4,3-4.2,4
		c-1.8,1-3.9,1.5-6.2,1.5c-3.7,0-6.7-1.2-9.1-3.5c-2.4-2.4-3.6-5.4-3.6-9c0-3.6,1.2-6.6,3.5-8.9C883.9,698.2,886.9,697,890.5,697z
		 M890.5,699.3c-2.7,0-5,0.8-6.8,2.5c-1.8,1.7-2.9,3.9-3.1,6.6h19.3c-0.3-2.8-1.3-5.1-3.1-6.7C895,700.2,892.9,699.3,890.5,699.3z"
		/>
	<path class="st4" d="M918,719.1l9.1-21.5h2.5l-10.1,24h-2.9l-10.2-24h2.6L918,719.1z"/>
	<path class="st4" d="M946.2,697c3.5,0,6.4,1.2,8.5,3.7c2.2,2.5,3.3,5.5,3.3,8.9c0,0.1,0,0.3,0,0.6c0,0.3,0,0.5,0,0.6h-21.7
		c0.3,2.7,1.4,4.9,3.2,6.5c1.9,1.6,4.2,2.4,7,2.4c1.9,0,3.6-0.4,5-1.2c1.4-0.8,2.5-1.8,3.3-3.2l2.1,1.2c-1,1.7-2.4,3-4.2,4
		c-1.8,1-3.9,1.5-6.2,1.5c-3.7,0-6.7-1.2-9.1-3.5c-2.4-2.4-3.6-5.4-3.6-9c0-3.6,1.2-6.6,3.5-8.9C939.6,698.2,942.6,697,946.2,697z
		 M946.2,699.3c-2.7,0-5,0.8-6.8,2.5c-1.8,1.7-2.9,3.9-3.1,6.6h19.3c-0.3-2.8-1.3-5.1-3.1-6.7C950.7,700.2,948.6,699.3,946.2,699.3z
		"/>
	<path class="st4" d="M968.5,721.6h-2.4v-35h2.4V721.6z"/>
	<path class="st4" d="M989.2,722.1c-3.5,0-6.5-1.2-9-3.6c-2.4-2.4-3.6-5.4-3.6-8.9c0-3.5,1.2-6.5,3.6-8.9c2.4-2.4,5.4-3.6,9-3.6
		c3.5,0,6.4,1.2,8.9,3.6c2.5,2.4,3.7,5.4,3.7,8.9c0,3.5-1.2,6.5-3.7,8.9C995.7,720.9,992.7,722.1,989.2,722.1z M982,716.8
		c2,2,4.4,3,7.2,3c2.8,0,5.2-1,7.2-3c2-2,2.9-4.4,2.9-7.2s-1-5.3-2.9-7.2c-2-2-4.4-3-7.2-3c-2.8,0-5.3,1-7.2,3c-2,2-2.9,4.4-2.9,7.2
		S980,714.9,982,716.8z"/>
	<path class="st4" d="M1022.7,697c3.5,0,6.4,1.2,8.8,3.6c2.4,2.4,3.6,5.4,3.6,8.9c0,3.5-1.2,6.5-3.6,8.9c-2.4,2.4-5.3,3.6-8.8,3.6
		c-2.3,0-4.3-0.5-6.1-1.6c-1.8-1.1-3.2-2.6-4.2-4.5v15.2h-2.4v-33.6h2.4v5.6c1-1.9,2.4-3.4,4.2-4.5
		C1018.4,697.6,1020.4,697,1022.7,697z M1015.3,716.8c2,2,4.4,3,7.2,3c2.8,0,5.2-1,7.2-3c2-2,3-4.4,3-7.2c0-2.8-1-5.3-3-7.2
		c-2-2-4.4-3-7.2-3c-2.8,0-5.3,1-7.2,3c-2,2-2.9,4.4-2.9,7.2S1013.3,714.9,1015.3,716.8z"/>
	<path class="st4" d="M1054.1,697c3.5,0,6.4,1.2,8.5,3.7c2.2,2.5,3.3,5.5,3.3,8.9c0,0.1,0,0.3,0,0.6c0,0.3,0,0.5,0,0.6h-21.7
		c0.3,2.7,1.4,4.9,3.2,6.5c1.9,1.6,4.2,2.4,7,2.4c1.9,0,3.6-0.4,5-1.2c1.4-0.8,2.5-1.8,3.3-3.2l2.1,1.2c-1,1.7-2.4,3-4.2,4
		c-1.8,1-3.9,1.5-6.2,1.5c-3.7,0-6.7-1.2-9.1-3.5c-2.4-2.4-3.6-5.4-3.6-9c0-3.6,1.2-6.6,3.5-8.9C1047.5,698.2,1050.5,697,1054.1,697
		z M1054.1,699.3c-2.7,0-5,0.8-6.8,2.5c-1.8,1.7-2.9,3.9-3.1,6.6h19.3c-0.3-2.8-1.3-5.1-3.1-6.7
		C1058.6,700.2,1056.5,699.3,1054.1,699.3z"/>
	<path class="st4" d="M1076.4,697.6v4.7c1.4-3.4,4.1-5,8-5v2.3c-2.4,0-4.3,0.8-5.8,2.3c-1.5,1.5-2.2,3.6-2.2,6.4v13.3h-2.4v-24
		H1076.4z"/>
	<path class="st4" d="M1125,731.2h-2.4V687h2.4V731.2z"/>
	<path class="st4" d="M1181.3,705.9h16.8v1.3c0,4.2-1.5,7.7-4.5,10.6c-3,2.8-6.9,4.3-11.8,4.3c-5.1,0-9.3-1.7-12.7-5
		c-3.3-3.4-5-7.5-5-12.3c0-4.9,1.6-9,4.9-12.3c3.3-3.4,7.5-5,12.5-5c3.1,0,5.9,0.7,8.4,2.2c2.6,1.5,4.6,3.5,6,5.9l-2.3,1.3
		c-1.1-2.1-2.8-3.8-5-5.1c-2.1-1.3-4.5-1.9-7.2-1.9c-4.3,0-7.9,1.4-10.8,4.3c-2.8,2.8-4.2,6.4-4.2,10.6c0,4.2,1.4,7.8,4.2,10.6
		c2.8,2.8,6.5,4.3,10.9,4.3c3.9,0,7.1-1.1,9.6-3.2s3.8-4.8,4.1-8.1h-14.3V705.9z"/>
	<path class="st4" d="M1208.8,697.6v4.7c1.4-3.4,4.1-5,8-5v2.3c-2.4,0-4.3,0.8-5.8,2.3c-1.5,1.5-2.2,3.6-2.2,6.4v13.3h-2.4v-24
		H1208.8z"/>
	<path class="st4" d="M1243.8,703v-5.4h2.4v24h-2.4v-5.4c-1.1,1.9-2.5,3.3-4.3,4.4c-1.8,1.1-3.8,1.6-6,1.6c-3.4,0-6.3-1.2-8.8-3.6
		c-2.4-2.4-3.6-5.4-3.6-8.9c0-3.5,1.2-6.5,3.6-8.9c2.4-2.4,5.4-3.6,8.8-3.6c2.2,0,4.3,0.5,6,1.6
		C1241.3,699.7,1242.7,701.1,1243.8,703z M1226.4,716.8c2,2,4.4,3,7.2,3c2.8,0,5.2-1,7.2-3c2-2,2.9-4.4,2.9-7.2s-1-5.3-2.9-7.2
		c-2-2-4.4-3-7.2-3c-2.8,0-5.3,1-7.2,3c-2,2-2.9,4.4-2.9,7.2S1224.5,714.9,1226.4,716.8z"/>
	<path class="st4" d="M1268.7,697c3.5,0,6.4,1.2,8.8,3.6c2.4,2.4,3.6,5.4,3.6,8.9c0,3.5-1.2,6.5-3.6,8.9c-2.4,2.4-5.3,3.6-8.8,3.6
		c-2.3,0-4.3-0.5-6.1-1.6c-1.8-1.1-3.2-2.6-4.2-4.5v15.2h-2.4v-33.6h2.4v5.6c1-1.9,2.4-3.4,4.2-4.5
		C1264.4,697.6,1266.5,697,1268.7,697z M1261.3,716.8c2,2,4.4,3,7.2,3c2.8,0,5.2-1,7.2-3c2-2,3-4.4,3-7.2c0-2.8-1-5.3-3-7.2
		c-2-2-4.4-3-7.2-3c-2.8,0-5.3,1-7.2,3c-2,2-2.9,4.4-2.9,7.2S1259.4,714.9,1261.3,716.8z"/>
	<path class="st4" d="M1300.4,697c2.8,0,5.1,0.9,6.8,2.6c1.7,1.7,2.5,4.1,2.5,7v14.9h-2.4v-14.9c0-2.2-0.6-4-1.9-5.3
		c-1.2-1.3-3-2-5.2-2c-2.5,0-4.6,0.8-6.1,2.5c-1.5,1.7-2.3,4-2.3,7.1v12.7h-2.4V688h2.4v14.2C1293.5,698.7,1296.4,697,1300.4,697z"
		/>
	<path class="st4" d="M1318.1,689.8c0-0.8,0.3-1.3,0.9-1.6c0.7-0.3,1.3-0.3,2,0c0.7,0.3,1,0.8,0.9,1.6c0,0.8-0.3,1.4-0.9,1.7
		c-0.7,0.3-1.3,0.3-2,0C1318.4,691.2,1318.1,690.6,1318.1,689.8z M1321.3,721.6h-2.4v-24h2.4V721.6z"/>
	<path class="st4" d="M1342,722.1c-3.6,0-6.6-1.2-9-3.6c-2.4-2.4-3.6-5.4-3.6-8.9s1.2-6.5,3.6-8.9c2.4-2.4,5.4-3.6,9-3.6
		c2.3,0,4.4,0.6,6.3,1.7c1.9,1.1,3.3,2.6,4.1,4.5l-2,1.2c-0.7-1.5-1.8-2.8-3.3-3.6c-1.5-0.9-3.2-1.3-5.2-1.3c-2.8,0-5.3,1-7.2,3
		c-2,2-2.9,4.4-2.9,7.2c0,2.9,1,5.3,2.9,7.3c2,2,4.4,2.9,7.2,2.9c1.9,0,3.6-0.4,5.2-1.3c1.5-0.9,2.7-2.1,3.5-3.6l2,1.2
		c-1,1.9-2.4,3.3-4.3,4.4C1346.4,721.5,1344.3,722.1,1342,722.1z"/>
	<path class="st4" d="M1376.1,688h12.6c4.6,0,8.4,1.6,11.3,4.9c3,3.2,4.5,7.2,4.5,11.9c0,4.7-1.5,8.7-4.5,12
		c-3,3.2-6.8,4.8-11.3,4.8h-12.6V688z M1378.6,719.2h10.1c3.9,0,7.1-1.4,9.6-4.1c2.5-2.8,3.7-6.2,3.7-10.3c0-4.1-1.2-7.5-3.7-10.2
		c-2.5-2.8-5.7-4.2-9.6-4.2h-10.1V719.2z"/>
	<path class="st4" d="M1423.7,697c3.5,0,6.4,1.2,8.5,3.7c2.2,2.5,3.3,5.5,3.3,8.9c0,0.1,0,0.3,0,0.6c0,0.3,0,0.5,0,0.6h-21.7
		c0.3,2.7,1.4,4.9,3.2,6.5c1.9,1.6,4.2,2.4,7,2.4c1.9,0,3.6-0.4,5-1.2c1.4-0.8,2.5-1.8,3.3-3.2l2.1,1.2c-1,1.7-2.4,3-4.2,4
		c-1.8,1-3.9,1.5-6.2,1.5c-3.7,0-6.7-1.2-9.1-3.5c-2.4-2.4-3.6-5.4-3.6-9c0-3.6,1.2-6.6,3.5-8.9C1417.1,698.2,1420.1,697,1423.7,697
		z M1423.7,699.3c-2.7,0-5,0.8-6.8,2.5c-1.8,1.7-2.9,3.9-3.1,6.6h19.3c-0.3-2.8-1.3-5.1-3.1-6.7
		C1428.2,700.2,1426.1,699.3,1423.7,699.3z"/>
	<path class="st4" d="M1444.2,703.9c0,2,1.7,3.5,5.1,4.3c1,0.2,1.7,0.4,2.2,0.5c0.5,0.1,1.2,0.3,2.1,0.6c0.9,0.3,1.6,0.6,2.1,0.9
		c0.5,0.3,1,0.7,1.5,1.2c0.6,0.5,1,1,1.2,1.7c0.2,0.7,0.4,1.4,0.4,2.2c0,2-0.8,3.7-2.4,4.9c-1.6,1.3-3.7,1.9-6.2,1.9
		c-2.3,0-4.2-0.5-5.8-1.4c-1.6-1-2.7-2.3-3.3-3.9l2.1-1.2c0.4,1.3,1.3,2.4,2.5,3.1c1.2,0.7,2.7,1.1,4.5,1.1c1.9,0,3.4-0.4,4.5-1.2
		s1.7-1.9,1.7-3.3c0-2.2-1.7-3.6-5.1-4.4c-3.2-0.8-5.3-1.5-6.4-2.1c-2-1.2-3-2.8-3-4.9c0-1.9,0.8-3.5,2.3-4.8c1.6-1.3,3.5-2,5.9-2
		c1.9,0,3.6,0.4,5,1.3c1.4,0.9,2.5,2,3.2,3.5l-2,1.2c-0.5-1.2-1.3-2-2.4-2.7c-1.1-0.6-2.4-1-3.8-1c-1.7,0-3,0.4-4.1,1.2
		S1444.2,702.5,1444.2,703.9z"/>
	<path class="st4" d="M1466,689.8c0-0.8,0.3-1.3,0.9-1.6c0.7-0.3,1.3-0.3,2,0c0.7,0.3,1,0.8,0.9,1.6c0,0.8-0.3,1.4-0.9,1.7
		c-0.7,0.3-1.3,0.3-2,0C1466.3,691.2,1466,690.6,1466,689.8z M1469.1,721.6h-2.4v-24h2.4V721.6z"/>
	<path class="st4" d="M1500.2,703.1v-5.6h2.4v22.8c0,3.5-1.1,6.2-3.4,8.3c-2.3,2-5.1,3-8.5,3c-2.7,0-5.1-0.5-7-1.5s-3.4-2.4-4.3-4.2
		l2.1-1.2c1.5,3.1,4.6,4.7,9.2,4.7c3,0,5.3-0.8,7-2.4c1.7-1.6,2.5-3.8,2.5-6.6V716c-1,1.9-2.4,3.4-4.2,4.5c-1.8,1.1-3.8,1.6-6.1,1.6
		c-3.4,0-6.4-1.2-8.8-3.6c-2.4-2.4-3.6-5.4-3.6-8.9c0-3.5,1.2-6.5,3.6-8.9c2.4-2.4,5.4-3.6,8.8-3.6c2.3,0,4.3,0.5,6.1,1.6
		S1499.2,701.2,1500.2,703.1z M1482.8,716.8c2,2,4.4,3,7.2,3c2.8,0,5.2-1,7.2-3c2-2,3-4.4,3-7.2c0-2.8-1-5.3-3-7.2c-2-2-4.4-3-7.2-3
		c-2.8,0-5.3,1-7.2,3c-2,2-2.9,4.4-2.9,7.2S1480.9,714.9,1482.8,716.8z"/>
	<path class="st4" d="M1523.4,697c2.8,0,5.1,0.9,6.8,2.6c1.7,1.7,2.5,4.1,2.5,7v14.9h-2.4v-14.9c0-2.2-0.6-4-1.9-5.3
		c-1.2-1.3-3-2-5.2-2c-2.5,0-4.6,0.8-6.1,2.5c-1.5,1.7-2.3,4-2.3,7.1v12.7h-2.4v-24h2.4v4.6C1516.6,698.7,1519.4,697,1523.4,697z"/>
	<path class="st4" d="M1552.7,697c3.5,0,6.4,1.2,8.5,3.7c2.2,2.5,3.3,5.5,3.3,8.9c0,0.1,0,0.3,0,0.6c0,0.3,0,0.5,0,0.6h-21.7
		c0.3,2.7,1.4,4.9,3.2,6.5c1.9,1.6,4.2,2.4,7,2.4c1.9,0,3.6-0.4,5-1.2c1.4-0.8,2.5-1.8,3.3-3.2l2.1,1.2c-1,1.7-2.4,3-4.2,4
		c-1.8,1-3.9,1.5-6.2,1.5c-3.7,0-6.7-1.2-9.1-3.5c-2.4-2.4-3.6-5.4-3.6-9c0-3.6,1.2-6.6,3.5-8.9C1546.1,698.2,1549.1,697,1552.7,697
		z M1552.7,699.3c-2.7,0-5,0.8-6.8,2.5c-1.8,1.7-2.9,3.9-3.1,6.6h19.3c-0.3-2.8-1.3-5.1-3.1-6.7
		C1557.2,700.2,1555.1,699.3,1552.7,699.3z"/>
	<path class="st4" d="M1575,697.6v4.7c1.4-3.4,4.1-5,8-5v2.3c-2.4,0-4.3,0.8-5.8,2.3c-1.5,1.5-2.2,3.6-2.2,6.4v13.3h-2.4v-24H1575z"
		/>
</g>
<g>
	<circle class="st2" cx="1493.5" cy="794.5" r="30"/>
	<g>
		<path class="st2" d="M1493.5,765c16.3,0,29.5,13.2,29.5,29.5s-13.2,29.5-29.5,29.5s-29.5-13.2-29.5-29.5S1477.2,765,1493.5,765
			 M1493.5,764c-16.8,0-30.5,13.7-30.5,30.5s13.7,30.5,30.5,30.5s30.5-13.7,30.5-30.5S1510.3,764,1493.5,764L1493.5,764z"/>
	</g>
</g>
</svg>
