<svg width="1920" height="388" viewBox="0 0 1920 388" fill="none" xmlns="http://www.w3.org/2000/svg">
<rect width="1920" height="388" fill="#121212"/>
<path d="M126.372 302.98V313H122.997V287.406H132.437C135.238 287.406 137.429 288.121 139.011 289.551C140.605 290.98 141.402 292.873 141.402 295.229C141.402 297.713 140.622 299.629 139.064 300.977C137.517 302.312 135.296 302.98 132.402 302.98H126.372ZM126.372 300.221H132.437C134.241 300.221 135.624 299.799 136.585 298.955C137.546 298.1 138.027 296.869 138.027 295.264C138.027 293.74 137.546 292.521 136.585 291.607C135.624 290.693 134.306 290.219 132.63 290.184H126.372V300.221ZM155.112 296.898C154.62 296.816 154.086 296.775 153.512 296.775C151.379 296.775 149.932 297.684 149.17 299.5V313H145.918V293.98H149.083L149.135 296.178C150.202 294.479 151.713 293.629 153.67 293.629C154.303 293.629 154.784 293.711 155.112 293.875V296.898ZM157.625 303.314C157.625 301.451 157.988 299.775 158.715 298.287C159.453 296.799 160.472 295.65 161.773 294.842C163.086 294.033 164.58 293.629 166.256 293.629C168.845 293.629 170.937 294.525 172.531 296.318C174.136 298.111 174.939 300.496 174.939 303.473V303.701C174.939 305.553 174.582 307.217 173.867 308.693C173.164 310.158 172.15 311.301 170.826 312.121C169.513 312.941 168.002 313.352 166.291 313.352C163.713 313.352 161.621 312.455 160.015 310.662C158.422 308.869 157.625 306.496 157.625 303.543V303.314ZM160.894 303.701C160.894 305.811 161.381 307.504 162.353 308.781C163.338 310.059 164.65 310.697 166.291 310.697C167.943 310.697 169.256 310.053 170.228 308.764C171.201 307.463 171.687 305.646 171.687 303.314C171.687 301.229 171.189 299.541 170.193 298.252C169.209 296.951 167.896 296.301 166.256 296.301C164.65 296.301 163.355 296.939 162.371 298.217C161.386 299.494 160.894 301.322 160.894 303.701ZM195.839 303.701C195.839 306.607 195.171 308.945 193.835 310.715C192.499 312.473 190.706 313.352 188.456 313.352C186.054 313.352 184.196 312.502 182.884 310.803L182.726 313H179.737V286H182.989V296.072C184.302 294.443 186.112 293.629 188.421 293.629C190.73 293.629 192.54 294.502 193.853 296.248C195.177 297.994 195.839 300.385 195.839 303.42V303.701ZM192.587 303.332C192.587 301.117 192.159 299.406 191.304 298.199C190.448 296.992 189.218 296.389 187.612 296.389C185.468 296.389 183.927 297.385 182.989 299.377V307.604C183.985 309.596 185.538 310.592 187.648 310.592C189.206 310.592 190.419 309.988 191.286 308.781C192.153 307.574 192.587 305.758 192.587 303.332ZM204.205 313H200.953V286H204.205V313ZM218.039 313.352C215.461 313.352 213.363 312.508 211.746 310.82C210.129 309.121 209.32 306.854 209.32 304.018V303.42C209.32 301.533 209.677 299.852 210.392 298.375C211.119 296.887 212.127 295.727 213.416 294.895C214.716 294.051 216.123 293.629 217.634 293.629C220.107 293.629 222.029 294.443 223.4 296.072C224.771 297.701 225.457 300.033 225.457 303.068V304.422H212.572C212.619 306.297 213.164 307.814 214.207 308.975C215.261 310.123 216.597 310.697 218.214 310.697C219.363 310.697 220.336 310.463 221.132 309.994C221.929 309.525 222.627 308.904 223.224 308.131L225.211 309.678C223.617 312.127 221.226 313.352 218.039 313.352ZM217.634 296.301C216.322 296.301 215.22 296.781 214.33 297.742C213.439 298.691 212.888 300.027 212.677 301.75H222.205V301.504C222.111 299.852 221.666 298.574 220.869 297.672C220.072 296.758 218.994 296.301 217.634 296.301ZM233.015 293.98L233.102 296.09C234.497 294.449 236.378 293.629 238.745 293.629C241.405 293.629 243.216 294.648 244.177 296.688C244.809 295.773 245.63 295.035 246.638 294.473C247.657 293.91 248.858 293.629 250.241 293.629C254.413 293.629 256.534 295.838 256.604 300.256V313H253.352V300.449C253.352 299.09 253.042 298.076 252.421 297.408C251.8 296.729 250.757 296.389 249.292 296.389C248.085 296.389 247.083 296.752 246.286 297.479C245.489 298.193 245.026 299.16 244.897 300.379V313H241.628V300.537C241.628 297.771 240.274 296.389 237.567 296.389C235.434 296.389 233.975 297.297 233.19 299.113V313H229.938V293.98H233.015ZM276.027 313H272.652V287.406H276.027V313ZM281.634 303.332C281.634 300.414 282.325 298.07 283.708 296.301C285.091 294.52 286.901 293.629 289.139 293.629C291.366 293.629 293.13 294.391 294.43 295.914V286H297.682V313H294.694L294.536 310.961C293.235 312.555 291.425 313.352 289.104 313.352C286.901 313.352 285.102 312.449 283.708 310.645C282.325 308.84 281.634 306.484 281.634 303.578V303.332ZM284.885 303.701C284.885 305.857 285.331 307.545 286.221 308.764C287.112 309.982 288.342 310.592 289.913 310.592C291.975 310.592 293.481 309.666 294.43 307.814V299.078C293.458 297.285 291.964 296.389 289.948 296.389C288.354 296.389 287.112 297.004 286.221 298.234C285.331 299.465 284.885 301.287 284.885 303.701ZM311.357 313.352C308.779 313.352 306.682 312.508 305.064 310.82C303.447 309.121 302.639 306.854 302.639 304.018V303.42C302.639 301.533 302.996 299.852 303.711 298.375C304.438 296.887 305.445 295.727 306.734 294.895C308.035 294.051 309.441 293.629 310.953 293.629C313.426 293.629 315.348 294.443 316.719 296.072C318.09 297.701 318.775 300.033 318.775 303.068V304.422H305.891C305.938 306.297 306.482 307.814 307.525 308.975C308.58 310.123 309.916 310.697 311.533 310.697C312.682 310.697 313.654 310.463 314.451 309.994C315.248 309.525 315.945 308.904 316.543 308.131L318.529 309.678C316.936 312.127 314.545 313.352 311.357 313.352ZM310.953 296.301C309.641 296.301 308.539 296.781 307.648 297.742C306.758 298.691 306.207 300.027 305.996 301.75H315.523V301.504C315.43 299.852 314.984 298.574 314.188 297.672C313.391 296.758 312.312 296.301 310.953 296.301ZM326.351 293.98L326.456 296.371C327.909 294.543 329.808 293.629 332.152 293.629C336.171 293.629 338.199 295.896 338.234 300.432V313H334.982V300.414C334.97 299.043 334.654 298.029 334.033 297.373C333.423 296.717 332.468 296.389 331.167 296.389C330.113 296.389 329.187 296.67 328.39 297.232C327.593 297.795 326.972 298.533 326.527 299.447V313H323.275V293.98H326.351ZM348.27 289.375V293.98H351.821V296.494H348.27V308.289C348.27 309.051 348.428 309.625 348.745 310.012C349.061 310.387 349.6 310.574 350.362 310.574C350.737 310.574 351.253 310.504 351.909 310.363V313C351.053 313.234 350.221 313.352 349.413 313.352C347.96 313.352 346.864 312.912 346.126 312.033C345.387 311.154 345.018 309.906 345.018 308.289V296.494H341.555V293.98H345.018V289.375H348.27ZM359.889 313H356.637V293.98H359.889V313ZM356.373 288.936C356.373 288.408 356.531 287.963 356.848 287.6C357.176 287.236 357.656 287.055 358.289 287.055C358.922 287.055 359.402 287.236 359.73 287.6C360.058 287.963 360.223 288.408 360.223 288.936C360.223 289.463 360.058 289.902 359.73 290.254C359.402 290.605 358.922 290.781 358.289 290.781C357.656 290.781 357.176 290.605 356.848 290.254C356.531 289.902 356.373 289.463 356.373 288.936ZM366.919 313V296.494H363.913V293.98H366.919V292.363C366.919 290.242 367.523 288.59 368.73 287.406C369.948 286.223 371.665 285.631 373.88 285.631C375.193 285.631 376.851 285.988 378.855 286.703L378.31 289.445C376.845 288.859 375.45 288.566 374.126 288.566C372.732 288.566 371.724 288.883 371.103 289.516C370.493 290.137 370.189 291.074 370.189 292.328V293.98H374.073V296.494H370.189V313H366.919ZM380.472 313H377.202V293.98H380.472V313ZM394.112 310.697C395.272 310.697 396.286 310.346 397.153 309.643C398.02 308.939 398.5 308.061 398.594 307.006H401.67C401.612 308.096 401.237 309.133 400.545 310.117C399.854 311.102 398.928 311.887 397.768 312.473C396.62 313.059 395.401 313.352 394.112 313.352C391.522 313.352 389.459 312.49 387.924 310.768C386.401 309.033 385.639 306.666 385.639 303.666V303.121C385.639 301.27 385.979 299.623 386.659 298.182C387.338 296.74 388.311 295.621 389.577 294.824C390.854 294.027 392.36 293.629 394.094 293.629C396.227 293.629 397.996 294.268 399.403 295.545C400.821 296.822 401.577 298.48 401.67 300.52H398.594C398.5 299.289 398.032 298.281 397.188 297.496C396.356 296.699 395.325 296.301 394.094 296.301C392.442 296.301 391.159 296.898 390.245 298.094C389.342 299.277 388.891 300.994 388.891 303.244V303.859C388.891 306.051 389.342 307.738 390.245 308.922C391.147 310.105 392.436 310.697 394.112 310.697ZM417.789 313C417.601 312.625 417.449 311.957 417.332 310.996C415.82 312.566 414.015 313.352 411.918 313.352C410.043 313.352 408.502 312.824 407.295 311.77C406.099 310.703 405.502 309.355 405.502 307.727C405.502 305.746 406.252 304.211 407.752 303.121C409.263 302.02 411.384 301.469 414.115 301.469H417.279V299.975C417.279 298.838 416.939 297.936 416.259 297.268C415.58 296.588 414.578 296.248 413.254 296.248C412.093 296.248 411.121 296.541 410.336 297.127C409.55 297.713 409.158 298.422 409.158 299.254H405.888C405.888 298.305 406.222 297.391 406.89 296.512C407.57 295.621 408.484 294.918 409.633 294.402C410.793 293.887 412.064 293.629 413.447 293.629C415.638 293.629 417.355 294.18 418.597 295.281C419.84 296.371 420.484 297.877 420.531 299.799V308.553C420.531 310.299 420.754 311.688 421.199 312.719V313H417.789ZM412.392 310.521C413.412 310.521 414.379 310.258 415.293 309.73C416.207 309.203 416.869 308.518 417.279 307.674V303.771H414.73C410.746 303.771 408.754 304.938 408.754 307.27C408.754 308.289 409.093 309.086 409.773 309.66C410.453 310.234 411.326 310.521 412.392 310.521ZM430.761 289.375V293.98H434.311V296.494H430.761V308.289C430.761 309.051 430.919 309.625 431.235 310.012C431.552 310.387 432.091 310.574 432.852 310.574C433.227 310.574 433.743 310.504 434.399 310.363V313C433.544 313.234 432.712 313.352 431.903 313.352C430.45 313.352 429.354 312.912 428.616 312.033C427.878 311.154 427.509 309.906 427.509 308.289V296.494H424.046V293.98H427.509V289.375H430.761ZM442.379 313H439.127V293.98H442.379V313ZM438.864 288.936C438.864 288.408 439.022 287.963 439.338 287.6C439.666 287.236 440.147 287.055 440.78 287.055C441.412 287.055 441.893 287.236 442.221 287.6C442.549 287.963 442.713 288.408 442.713 288.936C442.713 289.463 442.549 289.902 442.221 290.254C441.893 290.605 441.412 290.781 440.78 290.781C440.147 290.781 439.666 290.605 439.338 290.254C439.022 289.902 438.864 289.463 438.864 288.936ZM447.458 303.314C447.458 301.451 447.822 299.775 448.548 298.287C449.287 296.799 450.306 295.65 451.607 294.842C452.919 294.033 454.414 293.629 456.089 293.629C458.679 293.629 460.771 294.525 462.365 296.318C463.97 298.111 464.773 300.496 464.773 303.473V303.701C464.773 305.553 464.416 307.217 463.701 308.693C462.998 310.158 461.984 311.301 460.66 312.121C459.347 312.941 457.835 313.352 456.125 313.352C453.546 313.352 451.455 312.455 449.849 310.662C448.255 308.869 447.458 306.496 447.458 303.543V303.314ZM450.728 303.701C450.728 305.811 451.214 307.504 452.187 308.781C453.171 310.059 454.484 310.697 456.125 310.697C457.777 310.697 459.089 310.053 460.062 308.764C461.035 307.463 461.521 305.646 461.521 303.314C461.521 301.229 461.023 299.541 460.027 298.252C459.042 296.951 457.73 296.301 456.089 296.301C454.484 296.301 453.189 296.939 452.205 298.217C451.22 299.494 450.728 301.322 450.728 303.701ZM472.647 293.98L472.753 296.371C474.206 294.543 476.104 293.629 478.448 293.629C482.468 293.629 484.495 295.896 484.53 300.432V313H481.278V300.414C481.266 299.043 480.95 298.029 480.329 297.373C479.72 296.717 478.764 296.389 477.464 296.389C476.409 296.389 475.483 296.67 474.686 297.232C473.889 297.795 473.268 298.533 472.823 299.447V313H469.571V293.98H472.647Z" fill="#FCFCFC"/>
<path d="M666.092 286.406V303.809C666.08 306.223 665.319 308.197 663.807 309.732C662.307 311.268 660.268 312.129 657.69 312.316L656.793 312.352C653.993 312.352 651.76 311.596 650.096 310.084C648.432 308.572 647.588 306.492 647.565 303.844V286.406H650.905V303.738C650.905 305.59 651.414 307.031 652.434 308.062C653.453 309.082 654.907 309.592 656.793 309.592C658.703 309.592 660.162 309.082 661.17 308.062C662.19 307.043 662.7 305.607 662.7 303.756V286.406H666.092ZM682.703 306.955C682.703 306.076 682.369 305.396 681.701 304.916C681.045 304.424 679.89 304.002 678.238 303.65C676.597 303.299 675.291 302.877 674.318 302.385C673.357 301.893 672.642 301.307 672.173 300.627C671.716 299.947 671.488 299.139 671.488 298.201C671.488 296.643 672.144 295.324 673.457 294.246C674.781 293.168 676.468 292.629 678.519 292.629C680.675 292.629 682.421 293.186 683.757 294.299C685.105 295.412 685.779 296.836 685.779 298.57H682.509C682.509 297.68 682.129 296.912 681.367 296.268C680.617 295.623 679.668 295.301 678.519 295.301C677.336 295.301 676.41 295.559 675.742 296.074C675.074 296.59 674.74 297.264 674.74 298.096C674.74 298.881 675.05 299.473 675.671 299.871C676.293 300.27 677.412 300.65 679.029 301.014C680.658 301.377 681.976 301.811 682.984 302.314C683.992 302.818 684.736 303.428 685.216 304.143C685.709 304.846 685.955 305.707 685.955 306.727C685.955 308.426 685.275 309.791 683.916 310.822C682.556 311.842 680.793 312.352 678.625 312.352C677.101 312.352 675.754 312.082 674.582 311.543C673.41 311.004 672.49 310.254 671.822 309.293C671.166 308.32 670.837 307.271 670.837 306.146H674.089C674.148 307.236 674.582 308.104 675.39 308.748C676.211 309.381 677.289 309.697 678.625 309.697C679.855 309.697 680.839 309.451 681.578 308.959C682.328 308.455 682.703 307.787 682.703 306.955ZM698.804 312.352C696.225 312.352 694.128 311.508 692.511 309.82C690.893 308.121 690.085 305.854 690.085 303.018V302.42C690.085 300.533 690.442 298.852 691.157 297.375C691.884 295.887 692.891 294.727 694.181 293.895C695.481 293.051 696.888 292.629 698.399 292.629C700.872 292.629 702.794 293.443 704.165 295.072C705.536 296.701 706.222 299.033 706.222 302.068V303.422H693.337C693.384 305.297 693.929 306.814 694.972 307.975C696.026 309.123 697.362 309.697 698.979 309.697C700.128 309.697 701.1 309.463 701.897 308.994C702.694 308.525 703.391 307.904 703.989 307.131L705.975 308.678C704.382 311.127 701.991 312.352 698.804 312.352ZM698.399 295.301C697.087 295.301 695.985 295.781 695.095 296.742C694.204 297.691 693.653 299.027 693.442 300.75H702.97V300.504C702.876 298.852 702.431 297.574 701.634 296.672C700.837 295.758 699.759 295.301 698.399 295.301ZM719.914 295.898C719.422 295.816 718.889 295.775 718.315 295.775C716.182 295.775 714.735 296.684 713.973 298.5V312H710.721V292.98H713.885L713.938 295.178C715.004 293.479 716.516 292.629 718.473 292.629C719.106 292.629 719.586 292.711 719.914 292.875V295.898ZM743.186 301.646H737.175V312H733.782V286.406H742.255C745.137 286.406 747.352 287.062 748.899 288.375C750.458 289.688 751.237 291.598 751.237 294.105C751.237 295.699 750.803 297.088 749.936 298.271C749.081 299.455 747.885 300.34 746.35 300.926L752.362 311.789V312H748.741L743.186 301.646ZM737.175 298.887H742.36C744.036 298.887 745.366 298.453 746.35 297.586C747.346 296.719 747.844 295.559 747.844 294.105C747.844 292.523 747.37 291.311 746.421 290.467C745.483 289.623 744.124 289.195 742.342 289.184H737.175V298.887ZM764.086 312.352C761.508 312.352 759.41 311.508 757.793 309.82C756.176 308.121 755.367 305.854 755.367 303.018V302.42C755.367 300.533 755.725 298.852 756.439 297.375C757.166 295.887 758.174 294.727 759.463 293.895C760.764 293.051 762.17 292.629 763.682 292.629C766.154 292.629 768.076 293.443 769.447 295.072C770.818 296.701 771.504 299.033 771.504 302.068V303.422H758.619C758.666 305.297 759.211 306.814 760.254 307.975C761.309 309.123 762.645 309.697 764.262 309.697C765.41 309.697 766.383 309.463 767.18 308.994C767.977 308.525 768.674 307.904 769.271 307.131L771.258 308.678C769.664 311.127 767.273 312.352 764.086 312.352ZM763.682 295.301C762.369 295.301 761.268 295.781 760.377 296.742C759.486 297.691 758.936 299.027 758.725 300.75H768.252V300.504C768.158 298.852 767.713 297.574 766.916 296.672C766.119 295.758 765.041 295.301 763.682 295.301ZM787.077 306.955C787.077 306.076 786.743 305.396 786.075 304.916C785.419 304.424 784.265 304.002 782.613 303.65C780.972 303.299 779.665 302.877 778.693 302.385C777.732 301.893 777.017 301.307 776.548 300.627C776.091 299.947 775.863 299.139 775.863 298.201C775.863 296.643 776.519 295.324 777.831 294.246C779.156 293.168 780.843 292.629 782.894 292.629C785.05 292.629 786.796 293.186 788.132 294.299C789.48 295.412 790.154 296.836 790.154 298.57H786.884C786.884 297.68 786.503 296.912 785.741 296.268C784.991 295.623 784.042 295.301 782.894 295.301C781.71 295.301 780.784 295.559 780.116 296.074C779.449 296.59 779.115 297.264 779.115 298.096C779.115 298.881 779.425 299.473 780.046 299.871C780.667 300.27 781.786 300.65 783.404 301.014C785.033 301.377 786.351 301.811 787.359 302.314C788.366 302.818 789.111 303.428 789.591 304.143C790.083 304.846 790.329 305.707 790.329 306.727C790.329 308.426 789.65 309.791 788.29 310.822C786.931 311.842 785.167 312.352 782.999 312.352C781.476 312.352 780.128 312.082 778.956 311.543C777.784 311.004 776.865 310.254 776.197 309.293C775.54 308.32 775.212 307.271 775.212 306.146H778.464C778.523 307.236 778.956 308.104 779.765 308.748C780.585 309.381 781.663 309.697 782.999 309.697C784.23 309.697 785.214 309.451 785.952 308.959C786.702 308.455 787.077 307.787 787.077 306.955ZM803.178 312.352C800.6 312.352 798.503 311.508 796.885 309.82C795.268 308.121 794.46 305.854 794.46 303.018V302.42C794.46 300.533 794.817 298.852 795.532 297.375C796.258 295.887 797.266 294.727 798.555 293.895C799.856 293.051 801.262 292.629 802.774 292.629C805.247 292.629 807.169 293.443 808.54 295.072C809.911 296.701 810.596 299.033 810.596 302.068V303.422H797.711C797.758 305.297 798.303 306.814 799.346 307.975C800.401 309.123 801.737 309.697 803.354 309.697C804.503 309.697 805.475 309.463 806.272 308.994C807.069 308.525 807.766 307.904 808.364 307.131L810.35 308.678C808.756 311.127 806.366 312.352 803.178 312.352ZM802.774 295.301C801.461 295.301 800.36 295.781 799.469 296.742C798.579 297.691 798.028 299.027 797.817 300.75H807.344V300.504C807.251 298.852 806.805 297.574 806.008 296.672C805.211 295.758 804.133 295.301 802.774 295.301ZM826.838 312C826.65 311.625 826.498 310.957 826.381 309.996C824.869 311.566 823.064 312.352 820.967 312.352C819.092 312.352 817.551 311.824 816.344 310.77C815.148 309.703 814.551 308.355 814.551 306.727C814.551 304.746 815.301 303.211 816.801 302.121C818.312 301.02 820.433 300.469 823.164 300.469H826.328V298.975C826.328 297.838 825.988 296.936 825.308 296.268C824.629 295.588 823.627 295.248 822.303 295.248C821.142 295.248 820.17 295.541 819.385 296.127C818.599 296.713 818.207 297.422 818.207 298.254H814.937C814.937 297.305 815.271 296.391 815.939 295.512C816.619 294.621 817.533 293.918 818.681 293.402C819.842 292.887 821.113 292.629 822.496 292.629C824.687 292.629 826.404 293.18 827.646 294.281C828.889 295.371 829.533 296.877 829.58 298.799V307.553C829.58 309.299 829.803 310.688 830.248 311.719V312H826.838ZM821.441 309.521C822.461 309.521 823.428 309.258 824.342 308.73C825.256 308.203 825.918 307.518 826.328 306.674V302.771H823.779C819.795 302.771 817.803 303.938 817.803 306.27C817.803 307.289 818.142 308.086 818.822 308.66C819.502 309.234 820.375 309.521 821.441 309.521ZM844.591 295.898C844.099 295.816 843.566 295.775 842.991 295.775C840.859 295.775 839.411 296.684 838.65 298.5V312H835.398V292.98H838.562L838.614 295.178C839.681 293.479 841.193 292.629 843.15 292.629C843.782 292.629 844.263 292.711 844.591 292.875V295.898ZM855.594 309.697C856.754 309.697 857.768 309.346 858.635 308.643C859.502 307.939 859.983 307.061 860.077 306.006H863.153C863.094 307.096 862.719 308.133 862.028 309.117C861.336 310.102 860.411 310.887 859.25 311.473C858.102 312.059 856.883 312.352 855.594 312.352C853.004 312.352 850.942 311.49 849.407 309.768C847.883 308.033 847.121 305.666 847.121 302.666V302.121C847.121 300.27 847.461 298.623 848.141 297.182C848.821 295.74 849.793 294.621 851.059 293.824C852.336 293.027 853.842 292.629 855.577 292.629C857.709 292.629 859.479 293.268 860.885 294.545C862.303 295.822 863.059 297.48 863.153 299.52H860.077C859.983 298.289 859.514 297.281 858.67 296.496C857.838 295.699 856.807 295.301 855.577 295.301C853.924 295.301 852.641 295.898 851.727 297.094C850.825 298.277 850.373 299.994 850.373 302.244V302.859C850.373 305.051 850.825 306.738 851.727 307.922C852.629 309.105 853.918 309.697 855.594 309.697ZM870.781 295.283C872.222 293.514 874.097 292.629 876.406 292.629C880.425 292.629 882.453 294.896 882.488 299.432V312H879.236V299.414C879.224 298.043 878.908 297.029 878.287 296.373C877.677 295.717 876.722 295.389 875.422 295.389C874.367 295.389 873.441 295.67 872.644 296.232C871.847 296.795 871.226 297.533 870.781 298.447V312H867.529V285H870.781V295.283Z" fill="#FCFCFC"/>
<path d="M1127.13 286.406V303.809C1127.12 306.223 1126.36 308.197 1124.85 309.732C1123.35 311.268 1121.31 312.129 1118.73 312.316L1117.83 312.352C1115.03 312.352 1112.8 311.596 1111.14 310.084C1109.47 308.572 1108.63 306.492 1108.6 303.844V286.406H1111.94V303.738C1111.94 305.59 1112.45 307.031 1113.47 308.062C1114.49 309.082 1115.95 309.592 1117.83 309.592C1119.74 309.592 1121.2 309.082 1122.21 308.062C1123.23 307.043 1123.74 305.607 1123.74 303.756V286.406H1127.13ZM1143.74 306.955C1143.74 306.076 1143.41 305.396 1142.74 304.916C1142.08 304.424 1140.93 304.002 1139.28 303.65C1137.64 303.299 1136.33 302.877 1135.36 302.385C1134.4 301.893 1133.68 301.307 1133.21 300.627C1132.76 299.947 1132.53 299.139 1132.53 298.201C1132.53 296.643 1133.18 295.324 1134.5 294.246C1135.82 293.168 1137.51 292.629 1139.56 292.629C1141.71 292.629 1143.46 293.186 1144.8 294.299C1146.14 295.412 1146.82 296.836 1146.82 298.57H1143.55C1143.55 297.68 1143.17 296.912 1142.41 296.268C1141.66 295.623 1140.71 295.301 1139.56 295.301C1138.37 295.301 1137.45 295.559 1136.78 296.074C1136.11 296.59 1135.78 297.264 1135.78 298.096C1135.78 298.881 1136.09 299.473 1136.71 299.871C1137.33 300.27 1138.45 300.65 1140.07 301.014C1141.7 301.377 1143.02 301.811 1144.02 302.314C1145.03 302.818 1145.78 303.428 1146.26 304.143C1146.75 304.846 1146.99 305.707 1146.99 306.727C1146.99 308.426 1146.31 309.791 1144.95 310.822C1143.6 311.842 1141.83 312.352 1139.66 312.352C1138.14 312.352 1136.79 312.082 1135.62 311.543C1134.45 311.004 1133.53 310.254 1132.86 309.293C1132.2 308.32 1131.88 307.271 1131.88 306.146H1135.13C1135.19 307.236 1135.62 308.104 1136.43 308.748C1137.25 309.381 1138.33 309.697 1139.66 309.697C1140.89 309.697 1141.88 309.451 1142.62 308.959C1143.37 308.455 1143.74 307.787 1143.74 306.955ZM1159.84 312.352C1157.26 312.352 1155.17 311.508 1153.55 309.82C1151.93 308.121 1151.12 305.854 1151.12 303.018V302.42C1151.12 300.533 1151.48 298.852 1152.2 297.375C1152.92 295.887 1153.93 294.727 1155.22 293.895C1156.52 293.051 1157.93 292.629 1159.44 292.629C1161.91 292.629 1163.83 293.443 1165.2 295.072C1166.58 296.701 1167.26 299.033 1167.26 302.068V303.422H1154.38C1154.42 305.297 1154.97 306.814 1156.01 307.975C1157.07 309.123 1158.4 309.697 1160.02 309.697C1161.17 309.697 1162.14 309.463 1162.94 308.994C1163.73 308.525 1164.43 307.904 1165.03 307.131L1167.01 308.678C1165.42 311.127 1163.03 312.352 1159.84 312.352ZM1159.44 295.301C1158.13 295.301 1157.02 295.781 1156.13 296.742C1155.24 297.691 1154.69 299.027 1154.48 300.75H1164.01V300.504C1163.91 298.852 1163.47 297.574 1162.67 296.672C1161.88 295.758 1160.8 295.301 1159.44 295.301ZM1180.95 295.898C1180.46 295.816 1179.93 295.775 1179.35 295.775C1177.22 295.775 1175.77 296.684 1175.01 298.5V312H1171.76V292.98H1174.92L1174.98 295.178C1176.04 293.479 1177.55 292.629 1179.51 292.629C1180.14 292.629 1180.63 292.711 1180.95 292.875V295.898ZM1208.95 300.697H1198.21V312H1194.84V286.406H1210.69V289.184H1198.21V297.938H1208.95V300.697ZM1218.48 312H1215.23V285H1218.48V312ZM1223.56 302.314C1223.56 300.451 1223.92 298.775 1224.65 297.287C1225.39 295.799 1226.41 294.65 1227.71 293.842C1229.02 293.033 1230.51 292.629 1232.19 292.629C1234.78 292.629 1236.87 293.525 1238.47 295.318C1240.07 297.111 1240.87 299.496 1240.87 302.473V302.701C1240.87 304.553 1240.52 306.217 1239.8 307.693C1239.1 309.158 1238.09 310.301 1236.76 311.121C1235.45 311.941 1233.94 312.352 1232.23 312.352C1229.65 312.352 1227.56 311.455 1225.95 309.662C1224.36 307.869 1223.56 305.496 1223.56 302.543V302.314ZM1226.83 302.701C1226.83 304.811 1227.32 306.504 1228.29 307.781C1229.27 309.059 1230.59 309.697 1232.23 309.697C1233.88 309.697 1235.19 309.053 1236.16 307.764C1237.14 306.463 1237.62 304.646 1237.62 302.314C1237.62 300.229 1237.12 298.541 1236.13 297.252C1235.14 295.951 1233.83 295.301 1232.19 295.301C1230.59 295.301 1229.29 295.939 1228.31 297.217C1227.32 298.494 1226.83 300.322 1226.83 302.701ZM1262.51 307.518L1266.17 292.98H1269.42L1263.88 312H1261.25L1256.62 297.586L1252.12 312H1249.49L1243.97 292.98H1247.2L1250.95 307.219L1255.38 292.98H1257.99L1262.51 307.518ZM1294.85 312C1294.67 311.625 1294.51 310.957 1294.4 309.996C1292.89 311.566 1291.08 312.352 1288.98 312.352C1287.11 312.352 1285.57 311.824 1284.36 310.77C1283.17 309.703 1282.57 308.355 1282.57 306.727C1282.57 304.746 1283.32 303.211 1284.82 302.121C1286.33 301.02 1288.45 300.469 1291.18 300.469H1294.34V298.975C1294.34 297.838 1294.01 296.936 1293.33 296.268C1292.65 295.588 1291.64 295.248 1290.32 295.248C1289.16 295.248 1288.19 295.541 1287.4 296.127C1286.62 296.713 1286.22 297.422 1286.22 298.254H1282.95C1282.95 297.305 1283.29 296.391 1283.96 295.512C1284.64 294.621 1285.55 293.918 1286.7 293.402C1287.86 292.887 1289.13 292.629 1290.51 292.629C1292.7 292.629 1294.42 293.18 1295.66 294.281C1296.91 295.371 1297.55 296.877 1297.6 298.799V307.553C1297.6 309.299 1297.82 310.688 1298.26 311.719V312H1294.85ZM1289.46 309.521C1290.48 309.521 1291.44 309.258 1292.36 308.73C1293.27 308.203 1293.93 307.518 1294.34 306.674V302.771H1291.8C1287.81 302.771 1285.82 303.938 1285.82 306.27C1285.82 307.289 1286.16 308.086 1286.84 308.66C1287.52 309.234 1288.39 309.521 1289.46 309.521ZM1306.49 292.98L1306.6 295.371C1308.05 293.543 1309.95 292.629 1312.29 292.629C1316.31 292.629 1318.34 294.896 1318.37 299.432V312H1315.12V299.414C1315.11 298.043 1314.79 297.029 1314.17 296.373C1313.56 295.717 1312.61 295.389 1311.31 295.389C1310.25 295.389 1309.33 295.67 1308.53 296.232C1307.73 296.795 1307.11 297.533 1306.67 298.447V312H1303.41V292.98H1306.49ZM1323.21 302.332C1323.21 299.414 1323.9 297.07 1325.28 295.301C1326.66 293.52 1328.47 292.629 1330.71 292.629C1332.94 292.629 1334.7 293.391 1336 294.914V285H1339.26V312H1336.27L1336.11 309.961C1334.81 311.555 1333 312.352 1330.68 312.352C1328.47 312.352 1326.68 311.449 1325.28 309.645C1323.9 307.84 1323.21 305.484 1323.21 302.578V302.332ZM1326.46 302.701C1326.46 304.857 1326.9 306.545 1327.79 307.764C1328.69 308.982 1329.92 309.592 1331.49 309.592C1333.55 309.592 1335.05 308.666 1336 306.814V298.078C1335.03 296.285 1333.54 295.389 1331.52 295.389C1329.93 295.389 1328.69 296.004 1327.79 297.234C1326.9 298.465 1326.46 300.287 1326.46 302.701ZM1036.85 354H1033.48V328.406H1036.85V354ZM1046.33 334.98L1046.43 337.371C1047.89 335.543 1049.78 334.629 1052.13 334.629C1056.15 334.629 1058.18 336.896 1058.21 341.432V354H1054.96V341.414C1054.95 340.043 1054.63 339.029 1054.01 338.373C1053.4 337.717 1052.44 337.389 1051.14 337.389C1050.09 337.389 1049.16 337.67 1048.37 338.232C1047.57 338.795 1046.95 339.533 1046.5 340.447V354H1043.25V334.98H1046.33ZM1065.43 354V337.494H1062.43V334.98H1065.43V333.029C1065.43 330.99 1065.98 329.414 1067.07 328.301C1068.16 327.188 1069.7 326.631 1071.69 326.631C1072.44 326.631 1073.19 326.73 1073.92 326.93L1073.75 329.566C1073.2 329.461 1072.61 329.408 1071.99 329.408C1070.94 329.408 1070.12 329.719 1069.55 330.34C1068.97 330.949 1068.69 331.828 1068.69 332.977V334.98H1072.75V337.494H1068.69V354H1065.43ZM1076.21 344.314C1076.21 342.451 1076.57 340.775 1077.3 339.287C1078.04 337.799 1079.06 336.65 1080.36 335.842C1081.67 335.033 1083.16 334.629 1084.84 334.629C1087.43 334.629 1089.52 335.525 1091.12 337.318C1092.72 339.111 1093.52 341.496 1093.52 344.473V344.701C1093.52 346.553 1093.17 348.217 1092.45 349.693C1091.75 351.158 1090.73 352.301 1089.41 353.121C1088.1 353.941 1086.59 354.352 1084.87 354.352C1082.3 354.352 1080.2 353.455 1078.6 351.662C1077.01 349.869 1076.21 347.496 1076.21 344.543V344.314ZM1079.48 344.701C1079.48 346.811 1079.96 348.504 1080.94 349.781C1081.92 351.059 1083.23 351.697 1084.87 351.697C1086.53 351.697 1087.84 351.053 1088.81 349.764C1089.78 348.463 1090.27 346.646 1090.27 344.314C1090.27 342.229 1089.77 340.541 1088.78 339.252C1087.79 337.951 1086.48 337.301 1084.84 337.301C1083.23 337.301 1081.94 337.939 1080.95 339.217C1079.97 340.494 1079.48 342.322 1079.48 344.701ZM1107.51 337.898C1107.02 337.816 1106.49 337.775 1105.92 337.775C1103.78 337.775 1102.33 338.684 1101.57 340.5V354H1098.32V334.98H1101.49L1101.54 337.178C1102.6 335.479 1104.12 334.629 1106.07 334.629C1106.71 334.629 1107.19 334.711 1107.51 334.875V337.898ZM1114.3 334.98L1114.39 337.09C1115.78 335.449 1117.66 334.629 1120.03 334.629C1122.69 334.629 1124.5 335.648 1125.46 337.688C1126.09 336.773 1126.91 336.035 1127.92 335.473C1128.94 334.91 1130.14 334.629 1131.53 334.629C1135.7 334.629 1137.82 336.838 1137.89 341.256V354H1134.64V341.449C1134.64 340.09 1134.33 339.076 1133.71 338.408C1133.08 337.729 1132.04 337.389 1130.58 337.389C1129.37 337.389 1128.37 337.752 1127.57 338.479C1126.77 339.193 1126.31 340.16 1126.18 341.379V354H1122.91V341.537C1122.91 338.771 1121.56 337.389 1118.85 337.389C1116.72 337.389 1115.26 338.297 1114.47 340.113V354H1111.22V334.98H1114.3ZM1155.27 354C1155.09 353.625 1154.93 352.957 1154.82 351.996C1153.3 353.566 1151.5 354.352 1149.4 354.352C1147.53 354.352 1145.99 353.824 1144.78 352.77C1143.58 351.703 1142.99 350.355 1142.99 348.727C1142.99 346.746 1143.74 345.211 1145.24 344.121C1146.75 343.02 1148.87 342.469 1151.6 342.469H1154.76V340.975C1154.76 339.838 1154.42 338.936 1153.74 338.268C1153.06 337.588 1152.06 337.248 1150.74 337.248C1149.58 337.248 1148.61 337.541 1147.82 338.127C1147.03 338.713 1146.64 339.422 1146.64 340.254H1143.37C1143.37 339.305 1143.71 338.391 1144.37 337.512C1145.05 336.621 1145.97 335.918 1147.12 335.402C1148.28 334.887 1149.55 334.629 1150.93 334.629C1153.12 334.629 1154.84 335.18 1156.08 336.281C1157.32 337.371 1157.97 338.877 1158.02 340.799V349.553C1158.02 351.299 1158.24 352.688 1158.68 353.719V354H1155.27ZM1149.88 351.521C1150.9 351.521 1151.86 351.258 1152.78 350.73C1153.69 350.203 1154.35 349.518 1154.76 348.674V344.771H1152.21C1148.23 344.771 1146.24 345.938 1146.24 348.27C1146.24 349.289 1146.58 350.086 1147.26 350.66C1147.94 351.234 1148.81 351.521 1149.88 351.521ZM1168.24 330.375V334.98H1171.8V337.494H1168.24V349.289C1168.24 350.051 1168.4 350.625 1168.72 351.012C1169.04 351.387 1169.58 351.574 1170.34 351.574C1170.71 351.574 1171.23 351.504 1171.88 351.363V354C1171.03 354.234 1170.2 354.352 1169.39 354.352C1167.93 354.352 1166.84 353.912 1166.1 353.033C1165.36 352.154 1164.99 350.906 1164.99 349.289V337.494H1161.53V334.98H1164.99V330.375H1168.24ZM1179.86 354H1176.61V334.98H1179.86V354ZM1176.35 329.936C1176.35 329.408 1176.51 328.963 1176.82 328.6C1177.15 328.236 1177.63 328.055 1178.26 328.055C1178.9 328.055 1179.38 328.236 1179.71 328.6C1180.03 328.963 1180.2 329.408 1180.2 329.936C1180.2 330.463 1180.03 330.902 1179.71 331.254C1179.38 331.605 1178.9 331.781 1178.26 331.781C1177.63 331.781 1177.15 331.605 1176.82 331.254C1176.51 330.902 1176.35 330.463 1176.35 329.936ZM1184.94 344.314C1184.94 342.451 1185.31 340.775 1186.03 339.287C1186.77 337.799 1187.79 336.65 1189.09 335.842C1190.4 335.033 1191.9 334.629 1193.57 334.629C1196.16 334.629 1198.26 335.525 1199.85 337.318C1201.45 339.111 1202.26 341.496 1202.26 344.473V344.701C1202.26 346.553 1201.9 348.217 1201.18 349.693C1200.48 351.158 1199.47 352.301 1198.14 353.121C1196.83 353.941 1195.32 354.352 1193.61 354.352C1191.03 354.352 1188.94 353.455 1187.33 351.662C1185.74 349.869 1184.94 347.496 1184.94 344.543V344.314ZM1188.21 344.701C1188.21 346.811 1188.7 348.504 1189.67 349.781C1190.66 351.059 1191.97 351.697 1193.61 351.697C1195.26 351.697 1196.57 351.053 1197.55 349.764C1198.52 348.463 1199.01 346.646 1199.01 344.314C1199.01 342.229 1198.51 340.541 1197.51 339.252C1196.53 337.951 1195.21 337.301 1193.57 337.301C1191.97 337.301 1190.67 337.939 1189.69 339.217C1188.7 340.494 1188.21 342.322 1188.21 344.701ZM1210.13 334.98L1210.24 337.371C1211.69 335.543 1213.59 334.629 1215.93 334.629C1219.95 334.629 1221.98 336.896 1222.01 341.432V354H1218.76V341.414C1218.75 340.043 1218.43 339.029 1217.81 338.373C1217.2 337.717 1216.25 337.389 1214.95 337.389C1213.89 337.389 1212.97 337.67 1212.17 338.232C1211.37 338.795 1210.75 339.533 1210.31 340.447V354H1207.06V334.98H1210.13ZM1251.93 347.32H1241.21L1238.8 354H1235.32L1245.09 328.406H1248.05L1257.84 354H1254.37L1251.93 347.32ZM1242.23 344.543H1250.93L1246.57 332.572L1242.23 344.543ZM1270.69 337.898C1270.19 337.816 1269.66 337.775 1269.09 337.775C1266.95 337.775 1265.51 338.684 1264.74 340.5V354H1261.49V334.98H1264.66L1264.71 337.178C1265.78 335.479 1267.29 334.629 1269.24 334.629C1269.88 334.629 1270.36 334.711 1270.69 334.875V337.898ZM1281.69 351.697C1282.85 351.697 1283.86 351.346 1284.73 350.643C1285.6 349.939 1286.08 349.061 1286.17 348.006H1289.25C1289.19 349.096 1288.81 350.133 1288.12 351.117C1287.43 352.102 1286.51 352.887 1285.35 353.473C1284.2 354.059 1282.98 354.352 1281.69 354.352C1279.1 354.352 1277.04 353.49 1275.5 351.768C1273.98 350.033 1273.22 347.666 1273.22 344.666V344.121C1273.22 342.27 1273.56 340.623 1274.24 339.182C1274.92 337.74 1275.89 336.621 1277.15 335.824C1278.43 335.027 1279.94 334.629 1281.67 334.629C1283.8 334.629 1285.57 335.268 1286.98 336.545C1288.4 337.822 1289.15 339.48 1289.25 341.52H1286.17C1286.08 340.289 1285.61 339.281 1284.77 338.496C1283.93 337.699 1282.9 337.301 1281.67 337.301C1280.02 337.301 1278.74 337.898 1277.82 339.094C1276.92 340.277 1276.47 341.994 1276.47 344.244V344.859C1276.47 347.051 1276.92 348.738 1277.82 349.922C1278.72 351.105 1280.01 351.697 1281.69 351.697ZM1297.16 354H1293.91V334.98H1297.16V354ZM1293.64 329.936C1293.64 329.408 1293.8 328.963 1294.12 328.6C1294.44 328.236 1294.92 328.055 1295.56 328.055C1296.19 328.055 1296.67 328.236 1297 328.6C1297.33 328.963 1297.49 329.408 1297.49 329.936C1297.49 330.463 1297.33 330.902 1297 331.254C1296.67 331.605 1296.19 331.781 1295.56 331.781C1294.92 331.781 1294.44 331.605 1294.12 331.254C1293.8 330.902 1293.64 330.463 1293.64 329.936ZM1307.51 330.375V334.98H1311.06V337.494H1307.51V349.289C1307.51 350.051 1307.67 350.625 1307.98 351.012C1308.3 351.387 1308.84 351.574 1309.6 351.574C1309.98 351.574 1310.49 351.504 1311.15 351.363V354C1310.29 354.234 1309.46 354.352 1308.65 354.352C1307.2 354.352 1306.1 353.912 1305.37 353.033C1304.63 352.154 1304.26 350.906 1304.26 349.289V337.494H1300.8V334.98H1304.26V330.375H1307.51ZM1327.34 354C1327.15 353.625 1327 352.957 1326.88 351.996C1325.37 353.566 1323.56 354.352 1321.47 354.352C1319.59 354.352 1318.05 353.824 1316.84 352.77C1315.65 351.703 1315.05 350.355 1315.05 348.727C1315.05 346.746 1315.8 345.211 1317.3 344.121C1318.81 343.02 1320.93 342.469 1323.66 342.469H1326.83V340.975C1326.83 339.838 1326.49 338.936 1325.81 338.268C1325.13 337.588 1324.13 337.248 1322.8 337.248C1321.64 337.248 1320.67 337.541 1319.88 338.127C1319.1 338.713 1318.71 339.422 1318.71 340.254H1315.44C1315.44 339.305 1315.77 338.391 1316.44 337.512C1317.12 336.621 1318.03 335.918 1319.18 335.402C1320.34 334.887 1321.61 334.629 1323 334.629C1325.19 334.629 1326.9 335.18 1328.15 336.281C1329.39 337.371 1330.03 338.877 1330.08 340.799V349.553C1330.08 351.299 1330.3 352.688 1330.75 353.719V354H1327.34ZM1321.94 351.521C1322.96 351.521 1323.93 351.258 1324.84 350.73C1325.76 350.203 1326.42 349.518 1326.83 348.674V344.771H1324.28C1320.29 344.771 1318.3 345.938 1318.3 348.27C1318.3 349.289 1318.64 350.086 1319.32 350.66C1320 351.234 1320.87 351.521 1321.94 351.521ZM1343.53 351.697C1344.69 351.697 1345.7 351.346 1346.57 350.643C1347.43 349.939 1347.91 349.061 1348.01 348.006H1351.08C1351.03 349.096 1350.65 350.133 1349.96 351.117C1349.27 352.102 1348.34 352.887 1347.18 353.473C1346.03 354.059 1344.82 354.352 1343.53 354.352C1340.94 354.352 1338.87 353.49 1337.34 351.768C1335.82 350.033 1335.05 347.666 1335.05 344.666V344.121C1335.05 342.27 1335.39 340.623 1336.07 339.182C1336.75 337.74 1337.73 336.621 1338.99 335.824C1340.27 335.027 1341.77 334.629 1343.51 334.629C1345.64 334.629 1347.41 335.268 1348.82 336.545C1350.24 337.822 1350.99 339.48 1351.08 341.52H1348.01C1347.91 340.289 1347.45 339.281 1346.6 338.496C1345.77 337.699 1344.74 337.301 1343.51 337.301C1341.86 337.301 1340.57 337.898 1339.66 339.094C1338.76 340.277 1338.31 341.994 1338.31 344.244V344.859C1338.31 347.051 1338.76 348.738 1339.66 349.922C1340.56 351.105 1341.85 351.697 1343.53 351.697ZM1359.87 330.375V334.98H1363.42V337.494H1359.87V349.289C1359.87 350.051 1360.03 350.625 1360.35 351.012C1360.66 351.387 1361.2 351.574 1361.97 351.574C1362.34 351.574 1362.86 351.504 1363.51 351.363V354C1362.66 354.234 1361.82 354.352 1361.02 354.352C1359.56 354.352 1358.47 353.912 1357.73 353.033C1356.99 352.154 1356.62 350.906 1356.62 349.289V337.494H1353.16V334.98H1356.62V330.375H1359.87ZM1379.7 352.119C1378.44 353.607 1376.58 354.352 1374.13 354.352C1372.1 354.352 1370.55 353.766 1369.49 352.594C1368.43 351.41 1367.9 349.664 1367.89 347.355V334.98H1371.14V347.268C1371.14 350.15 1372.31 351.592 1374.66 351.592C1377.14 351.592 1378.79 350.666 1379.61 348.814V334.98H1382.86V354H1379.77L1379.7 352.119ZM1397.74 337.898C1397.24 337.816 1396.71 337.775 1396.14 337.775C1394 337.775 1392.56 338.684 1391.79 340.5V354H1388.54V334.98H1391.71L1391.76 337.178C1392.83 335.479 1394.34 334.629 1396.29 334.629C1396.93 334.629 1397.41 334.711 1397.74 334.875V337.898ZM1409 354.352C1406.42 354.352 1404.33 353.508 1402.71 351.82C1401.09 350.121 1400.28 347.854 1400.28 345.018V344.42C1400.28 342.533 1400.64 340.852 1401.36 339.375C1402.08 337.887 1403.09 336.727 1404.38 335.895C1405.68 335.051 1407.09 334.629 1408.6 334.629C1411.07 334.629 1412.99 335.443 1414.36 337.072C1415.73 338.701 1416.42 341.033 1416.42 344.068V345.422H1403.54C1403.58 347.297 1404.13 348.814 1405.17 349.975C1406.22 351.123 1407.56 351.697 1409.18 351.697C1410.33 351.697 1411.3 351.463 1412.1 350.994C1412.89 350.525 1413.59 349.904 1414.19 349.131L1416.17 350.678C1414.58 353.127 1412.19 354.352 1409 354.352ZM1408.6 337.301C1407.29 337.301 1406.18 337.781 1405.29 338.742C1404.4 339.691 1403.85 341.027 1403.64 342.75H1413.17V342.504C1413.07 340.852 1412.63 339.574 1411.83 338.672C1411.04 337.758 1409.96 337.301 1408.6 337.301Z" fill="#FCFCFC"/>
<path d="M1595.33 312V286.406H1602.55C1604.78 286.406 1606.75 286.898 1608.46 287.883C1610.17 288.867 1611.49 290.268 1612.41 292.084C1613.35 293.9 1613.83 295.986 1613.84 298.342V299.977C1613.84 302.391 1613.37 304.506 1612.43 306.322C1611.51 308.139 1610.18 309.533 1608.44 310.506C1606.72 311.479 1604.71 311.977 1602.41 312H1595.33ZM1598.7 289.184V309.24H1602.25C1604.86 309.24 1606.88 308.432 1608.32 306.814C1609.77 305.197 1610.5 302.895 1610.5 299.906V298.412C1610.5 295.506 1609.81 293.25 1608.44 291.645C1607.08 290.027 1605.15 289.207 1602.64 289.184H1598.7ZM1627.06 312.352C1624.48 312.352 1622.38 311.508 1620.76 309.82C1619.15 308.121 1618.34 305.854 1618.34 303.018V302.42C1618.34 300.533 1618.69 298.852 1619.41 297.375C1620.14 295.887 1621.14 294.727 1622.43 293.895C1623.73 293.051 1625.14 292.629 1626.65 292.629C1629.12 292.629 1631.05 293.443 1632.42 295.072C1633.79 296.701 1634.47 299.033 1634.47 302.068V303.422H1621.59C1621.64 305.297 1622.18 306.814 1623.22 307.975C1624.28 309.123 1625.61 309.697 1627.23 309.697C1628.38 309.697 1629.35 309.463 1630.15 308.994C1630.95 308.525 1631.64 307.904 1632.24 307.131L1634.23 308.678C1632.63 311.127 1630.24 312.352 1627.06 312.352ZM1626.65 295.301C1625.34 295.301 1624.24 295.781 1623.35 296.742C1622.46 297.691 1621.91 299.027 1621.69 300.75H1631.22V300.504C1631.13 298.852 1630.68 297.574 1629.89 296.672C1629.09 295.758 1628.01 295.301 1626.65 295.301ZM1650.05 306.955C1650.05 306.076 1649.71 305.396 1649.05 304.916C1648.39 304.424 1647.24 304.002 1645.58 303.65C1643.94 303.299 1642.64 302.877 1641.66 302.385C1640.7 301.893 1639.99 301.307 1639.52 300.627C1639.06 299.947 1638.83 299.139 1638.83 298.201C1638.83 296.643 1639.49 295.324 1640.8 294.246C1642.13 293.168 1643.81 292.629 1645.86 292.629C1648.02 292.629 1649.77 293.186 1651.1 294.299C1652.45 295.412 1653.12 296.836 1653.12 298.57H1649.85C1649.85 297.68 1649.47 296.912 1648.71 296.268C1647.96 295.623 1647.01 295.301 1645.86 295.301C1644.68 295.301 1643.75 295.559 1643.09 296.074C1642.42 296.59 1642.08 297.264 1642.08 298.096C1642.08 298.881 1642.4 299.473 1643.02 299.871C1643.64 300.27 1644.76 300.65 1646.37 301.014C1648 301.377 1649.32 301.811 1650.33 302.314C1651.34 302.818 1652.08 303.428 1652.56 304.143C1653.05 304.846 1653.3 305.707 1653.3 306.727C1653.3 308.426 1652.62 309.791 1651.26 310.822C1649.9 311.842 1648.14 312.352 1645.97 312.352C1644.45 312.352 1643.1 312.082 1641.93 311.543C1640.75 311.004 1639.83 310.254 1639.17 309.293C1638.51 308.32 1638.18 307.271 1638.18 306.146H1641.43C1641.49 307.236 1641.93 308.104 1642.74 308.748C1643.56 309.381 1644.63 309.697 1645.97 309.697C1647.2 309.697 1648.18 309.451 1648.92 308.959C1649.67 308.455 1650.05 307.787 1650.05 306.955ZM1661.79 312H1658.54V292.98H1661.79V312ZM1658.27 287.936C1658.27 287.408 1658.43 286.963 1658.75 286.6C1659.08 286.236 1659.56 286.055 1660.19 286.055C1660.82 286.055 1661.3 286.236 1661.63 286.6C1661.96 286.963 1662.12 287.408 1662.12 287.936C1662.12 288.463 1661.96 288.902 1661.63 289.254C1661.3 289.605 1660.82 289.781 1660.19 289.781C1659.56 289.781 1659.08 289.605 1658.75 289.254C1658.43 288.902 1658.27 288.463 1658.27 287.936ZM1666.96 302.332C1666.96 299.367 1667.64 297.012 1669.01 295.266C1670.38 293.508 1672.2 292.629 1674.46 292.629C1676.78 292.629 1678.59 293.449 1679.89 295.09L1680.05 292.98H1683.02V311.543C1683.02 314.004 1682.29 315.943 1680.83 317.361C1679.37 318.779 1677.42 319.488 1674.95 319.488C1673.58 319.488 1672.24 319.195 1670.93 318.609C1669.62 318.023 1668.61 317.221 1667.92 316.201L1669.61 314.25C1671.01 315.973 1672.71 316.834 1674.73 316.834C1676.31 316.834 1677.54 316.389 1678.42 315.498C1679.31 314.607 1679.75 313.354 1679.75 311.736V310.102C1678.45 311.602 1676.68 312.352 1674.43 312.352C1672.2 312.352 1670.4 311.455 1669.01 309.662C1667.64 307.869 1666.96 305.426 1666.96 302.332ZM1670.23 302.701C1670.23 304.846 1670.67 306.533 1671.54 307.764C1672.42 308.982 1673.65 309.592 1675.24 309.592C1677.29 309.592 1678.79 308.66 1679.75 306.797V298.113C1678.76 296.297 1677.26 295.389 1675.27 295.389C1673.69 295.389 1672.45 296.004 1671.56 297.234C1670.67 298.465 1670.23 300.287 1670.23 302.701ZM1691.74 292.98L1691.85 295.371C1693.3 293.543 1695.2 292.629 1697.54 292.629C1701.56 292.629 1703.59 294.896 1703.62 299.432V312H1700.37V299.414C1700.36 298.043 1700.04 297.029 1699.42 296.373C1698.81 295.717 1697.86 295.389 1696.56 295.389C1695.5 295.389 1694.58 295.67 1693.78 296.232C1692.98 296.795 1692.36 297.533 1691.92 298.447V312H1688.66V292.98H1691.74ZM1730.64 312C1730.45 311.625 1730.3 310.957 1730.18 309.996C1728.67 311.566 1726.87 312.352 1724.77 312.352C1722.89 312.352 1721.35 311.824 1720.15 310.77C1718.95 309.703 1718.35 308.355 1718.35 306.727C1718.35 304.746 1719.1 303.211 1720.6 302.121C1722.11 301.02 1724.24 300.469 1726.97 300.469H1730.13V298.975C1730.13 297.838 1729.79 296.936 1729.11 296.268C1728.43 295.588 1727.43 295.248 1726.1 295.248C1724.94 295.248 1723.97 295.541 1723.19 296.127C1722.4 296.713 1722.01 297.422 1722.01 298.254H1718.74C1718.74 297.305 1719.07 296.391 1719.74 295.512C1720.42 294.621 1721.34 293.918 1722.48 293.402C1723.64 292.887 1724.92 292.629 1726.3 292.629C1728.49 292.629 1730.21 293.18 1731.45 294.281C1732.69 295.371 1733.34 296.877 1733.38 298.799V307.553C1733.38 309.299 1733.6 310.688 1734.05 311.719V312H1730.64ZM1725.24 309.521C1726.26 309.521 1727.23 309.258 1728.14 308.73C1729.06 308.203 1729.72 307.518 1730.13 306.674V302.771H1727.58C1723.6 302.771 1721.6 303.938 1721.6 306.27C1721.6 307.289 1721.94 308.086 1722.62 308.66C1723.3 309.234 1724.18 309.521 1725.24 309.521ZM1742.28 292.98L1742.38 295.371C1743.83 293.543 1745.73 292.629 1748.08 292.629C1752.1 292.629 1754.12 294.896 1754.16 299.432V312H1750.91V299.414C1750.89 298.043 1750.58 297.029 1749.96 296.373C1749.35 295.717 1748.39 295.389 1747.09 295.389C1746.04 295.389 1745.11 295.67 1744.31 296.232C1743.52 296.795 1742.9 297.533 1742.45 298.447V312H1739.2V292.98H1742.28ZM1758.99 302.332C1758.99 299.414 1759.68 297.07 1761.07 295.301C1762.45 293.52 1764.26 292.629 1766.5 292.629C1768.72 292.629 1770.49 293.391 1771.79 294.914V285H1775.04V312H1772.05L1771.89 309.961C1770.59 311.555 1768.78 312.352 1766.46 312.352C1764.26 312.352 1762.46 311.449 1761.07 309.645C1759.68 307.84 1758.99 305.484 1758.99 302.578V302.332ZM1762.24 302.701C1762.24 304.857 1762.69 306.545 1763.58 307.764C1764.47 308.982 1765.7 309.592 1767.27 309.592C1769.33 309.592 1770.84 308.666 1771.79 306.814V298.078C1770.82 296.285 1769.32 295.389 1767.31 295.389C1765.71 295.389 1764.47 296.004 1763.58 297.234C1762.69 298.465 1762.24 300.287 1762.24 302.701ZM1610.88 343.98V354H1607.5V328.406H1616.94C1619.74 328.406 1621.93 329.121 1623.51 330.551C1625.11 331.98 1625.91 333.873 1625.91 336.229C1625.91 338.713 1625.13 340.629 1623.57 341.977C1622.02 343.312 1619.8 343.98 1616.91 343.98H1610.88ZM1610.88 341.221H1616.94C1618.75 341.221 1620.13 340.799 1621.09 339.955C1622.05 339.1 1622.53 337.869 1622.53 336.264C1622.53 334.74 1622.05 333.521 1621.09 332.607C1620.13 331.693 1618.81 331.219 1617.13 331.184H1610.88V341.221ZM1639.62 337.898C1639.12 337.816 1638.59 337.775 1638.02 337.775C1635.88 337.775 1634.44 338.684 1633.67 340.5V354H1630.42V334.98H1633.59L1633.64 337.178C1634.71 335.479 1636.22 334.629 1638.17 334.629C1638.81 334.629 1639.29 334.711 1639.62 334.875V337.898ZM1642.13 344.314C1642.13 342.451 1642.49 340.775 1643.22 339.287C1643.96 337.799 1644.98 336.65 1646.28 335.842C1647.59 335.033 1649.08 334.629 1650.76 334.629C1653.35 334.629 1655.44 335.525 1657.03 337.318C1658.64 339.111 1659.44 341.496 1659.44 344.473V344.701C1659.44 346.553 1659.09 348.217 1658.37 349.693C1657.67 351.158 1656.65 352.301 1655.33 353.121C1654.02 353.941 1652.51 354.352 1650.79 354.352C1648.22 354.352 1646.12 353.455 1644.52 351.662C1642.93 349.869 1642.13 347.496 1642.13 344.543V344.314ZM1645.4 344.701C1645.4 346.811 1645.88 348.504 1646.86 349.781C1647.84 351.059 1649.15 351.697 1650.79 351.697C1652.45 351.697 1653.76 351.053 1654.73 349.764C1655.7 348.463 1656.19 346.646 1656.19 344.314C1656.19 342.229 1655.69 340.541 1654.7 339.252C1653.71 337.951 1652.4 337.301 1650.76 337.301C1649.15 337.301 1647.86 337.939 1646.87 339.217C1645.89 340.494 1645.4 342.322 1645.4 344.701ZM1668.65 330.375V334.98H1672.2V337.494H1668.65V349.289C1668.65 350.051 1668.81 350.625 1669.13 351.012C1669.44 351.387 1669.98 351.574 1670.74 351.574C1671.12 351.574 1671.64 351.504 1672.29 351.363V354C1671.44 354.234 1670.6 354.352 1669.8 354.352C1668.34 354.352 1667.25 353.912 1666.51 353.033C1665.77 352.154 1665.4 350.906 1665.4 349.289V337.494H1661.94V334.98H1665.4V330.375H1668.65ZM1675.53 344.314C1675.53 342.451 1675.89 340.775 1676.62 339.287C1677.35 337.799 1678.37 336.65 1679.67 335.842C1680.99 335.033 1682.48 334.629 1684.16 334.629C1686.75 334.629 1688.84 335.525 1690.43 337.318C1692.04 339.111 1692.84 341.496 1692.84 344.473V344.701C1692.84 346.553 1692.48 348.217 1691.77 349.693C1691.06 351.158 1690.05 352.301 1688.73 353.121C1687.41 353.941 1685.9 354.352 1684.19 354.352C1681.61 354.352 1679.52 353.455 1677.92 351.662C1676.32 349.869 1675.53 347.496 1675.53 344.543V344.314ZM1678.79 344.701C1678.79 346.811 1679.28 348.504 1680.25 349.781C1681.24 351.059 1682.55 351.697 1684.19 351.697C1685.84 351.697 1687.16 351.053 1688.13 349.764C1689.1 348.463 1689.59 346.646 1689.59 344.314C1689.59 342.229 1689.09 340.541 1688.09 339.252C1687.11 337.951 1685.8 337.301 1684.16 337.301C1682.55 337.301 1681.26 337.939 1680.27 339.217C1679.29 340.494 1678.79 342.322 1678.79 344.701ZM1702.05 330.375V334.98H1705.6V337.494H1702.05V349.289C1702.05 350.051 1702.21 350.625 1702.52 351.012C1702.84 351.387 1703.38 351.574 1704.14 351.574C1704.52 351.574 1705.03 351.504 1705.69 351.363V354C1704.83 354.234 1704 354.352 1703.19 354.352C1701.74 354.352 1700.64 353.912 1699.91 353.033C1699.17 352.154 1698.8 350.906 1698.8 349.289V337.494H1695.34V334.98H1698.8V330.375H1702.05ZM1716.36 349.236L1720.79 334.98H1724.27L1716.62 356.936C1715.44 360.1 1713.56 361.682 1710.98 361.682L1710.36 361.629L1709.15 361.4V358.764L1710.03 358.834C1711.13 358.834 1711.99 358.611 1712.6 358.166C1713.22 357.721 1713.73 356.906 1714.13 355.723L1714.85 353.789L1708.06 334.98H1711.61L1716.36 349.236ZM1743.97 344.701C1743.97 347.596 1743.31 349.928 1741.99 351.697C1740.66 353.467 1738.87 354.352 1736.61 354.352C1734.3 354.352 1732.48 353.619 1731.16 352.154V361.312H1727.91V334.98H1730.88L1731.04 337.09C1732.36 335.449 1734.2 334.629 1736.55 334.629C1738.84 334.629 1740.64 335.49 1741.97 337.213C1743.3 338.936 1743.97 341.332 1743.97 344.402V344.701ZM1740.72 344.332C1740.72 342.188 1740.26 340.494 1739.35 339.252C1738.44 338.01 1737.18 337.389 1735.59 337.389C1733.62 337.389 1732.14 338.262 1731.16 340.008V349.096C1732.13 350.83 1733.62 351.697 1735.62 351.697C1737.18 351.697 1738.42 351.082 1739.33 349.852C1740.26 348.609 1740.72 346.77 1740.72 344.332ZM1756.73 354.352C1754.16 354.352 1752.06 353.508 1750.44 351.82C1748.82 350.121 1748.01 347.854 1748.01 345.018V344.42C1748.01 342.533 1748.37 340.852 1749.09 339.375C1749.81 337.887 1750.82 336.727 1752.11 335.895C1753.41 335.051 1754.82 334.629 1756.33 334.629C1758.8 334.629 1760.72 335.443 1762.09 337.072C1763.47 338.701 1764.15 341.033 1764.15 344.068V345.422H1751.27C1751.31 347.297 1751.86 348.814 1752.9 349.975C1753.96 351.123 1755.29 351.697 1756.91 351.697C1758.06 351.697 1759.03 351.463 1759.83 350.994C1760.62 350.525 1761.32 349.904 1761.92 349.131L1763.91 350.678C1762.31 353.127 1759.92 354.352 1756.73 354.352ZM1756.33 337.301C1755.02 337.301 1753.92 337.781 1753.02 338.742C1752.13 339.691 1751.58 341.027 1751.37 342.75H1760.9V342.504C1760.81 340.852 1760.36 339.574 1759.56 338.672C1758.77 337.758 1757.69 337.301 1756.33 337.301Z" fill="#FCFCFC"/>
<path d="M309 172H273C269.688 172 267 169.312 267 166C267 162.688 269.688 160 273 160H309C312.312 160 315 162.688 315 166C315 169.312 312.312 172 309 172Z" fill="#FCFCFC"/>
<path d="M305.022 196H272.978C269.678 196 267 193.312 267 190C267 186.688 269.678 184 272.978 184H305.022C308.322 184 311 186.688 311 190C311 193.312 308.322 196 305.022 196Z" fill="#FCFCFC"/>
<path d="M303 108C311.837 108 319 100.837 319 92C319 83.1634 311.837 76 303 76C294.163 76 287 83.1634 287 92C287 100.837 294.163 108 303 108Z" fill="#FCFCFC"/>
<path d="M329 148H277C273.688 148 271 145.312 271 142V138C271 125.864 280.864 116 293 116H313C325.136 116 335 125.864 335 138V142C335 145.312 332.312 148 329 148Z" fill="#FCFCFC"/>
<path d="M317.24 220H257C244.864 220 235 210.136 235 198V74C235 61.864 244.864 52 257 52H349C361.136 52 371 61.864 371 74V126.16C371 129.472 368.312 132.16 365 132.16C361.688 132.16 359 129.472 359 126.16V74C359 68.488 354.512 64 349 64H257C251.488 64 247 68.488 247 74V198C247 203.512 251.488 208 257 208H317.24C320.552 208 323.24 210.688 323.24 214C323.24 217.312 320.552 220 317.24 220V220Z" fill="#FCFCFC"/>
<path d="M425.238 233.762L403.102 211.625C408.006 204.985 410.998 196.865 410.998 188.001C410.998 165.944 393.055 148 370.999 148C348.944 148 331 165.944 331 188.001C331 210.057 348.944 228.002 370.999 228.002C379.863 228.002 387.983 225.01 394.623 220.105L416.758 242.242C419.102 244.586 422.902 244.586 425.246 242.242C427.59 239.898 427.582 236.106 425.238 233.762V233.762ZM343 188.001C343 172.561 355.559 160 370.999 160C386.439 160 398.999 172.561 398.999 188.001C398.999 203.441 386.439 216.001 370.999 216.001C355.559 216.001 343 203.441 343 188.001V188.001Z" fill="#FCFCFC"/>
<path d="M714 193.375C714 184.07 706.43 176.5 697.125 176.5C687.82 176.5 680.25 184.07 680.25 193.375C680.25 202.68 687.82 210.25 697.125 210.25C706.43 210.25 714 202.68 714 193.375ZM697.125 199C694.023 199 691.5 196.477 691.5 193.375C691.5 190.273 694.023 187.75 697.125 187.75C700.227 187.75 702.75 190.273 702.75 193.375C702.75 196.477 700.227 199 697.125 199Z" fill="#FCFCFC"/>
<path d="M697.125 210.25C681.617 210.25 669 222.867 669 238.375V244H725.25V238.375C725.25 222.867 712.633 210.25 697.125 210.25ZM681.214 232.75C683.535 226.202 689.792 221.5 697.125 221.5C704.458 221.5 710.715 226.202 713.036 232.75H681.214Z" fill="#FCFCFC"/>
<path d="M781.875 193.375C781.875 184.07 774.305 176.5 765 176.5C755.695 176.5 748.125 184.07 748.125 193.375C748.125 202.68 755.695 210.25 765 210.25C774.305 210.25 781.875 202.68 781.875 193.375ZM765 199C761.898 199 759.375 196.477 759.375 193.375C759.375 190.273 761.898 187.75 765 187.75C768.102 187.75 770.625 190.273 770.625 193.375C770.625 196.477 768.102 199 765 199Z" fill="#FCFCFC"/>
<path d="M765 210.25C749.492 210.25 736.875 222.867 736.875 238.375V244H793.125V238.375C793.125 222.867 780.508 210.25 765 210.25ZM749.089 232.75C751.41 226.202 757.667 221.5 765 221.5C772.333 221.5 778.59 226.202 780.911 232.75H749.089Z" fill="#FCFCFC"/>
<path d="M849.75 193.375C849.75 184.07 842.18 176.5 832.875 176.5C823.57 176.5 816 184.07 816 193.375C816 202.68 823.57 210.25 832.875 210.25C842.18 210.25 849.75 202.68 849.75 193.375ZM832.875 199C829.773 199 827.25 196.477 827.25 193.375C827.25 190.273 829.773 187.75 832.875 187.75C835.977 187.75 838.5 190.273 838.5 193.375C838.5 196.477 835.977 199 832.875 199Z" fill="#FCFCFC"/>
<path d="M832.875 210.25C817.367 210.25 804.75 222.867 804.75 238.375V244H861V238.375C861 222.867 848.383 210.25 832.875 210.25ZM816.964 232.75C819.285 226.202 825.542 221.5 832.875 221.5C840.208 221.5 846.465 226.202 848.786 232.75H816.964Z" fill="#FCFCFC"/>
<path d="M815.625 120.25H793.125V97.75H781.875V74.5H838.125V63.25H781.875V52H748.125V63.25H691.875V74.5H748.125V97.75H736.875V120.25H714.375V150.078L731.99 176.5H748.125V154H781.875V176.5H798.011L815.625 150.078V120.25ZM759.375 63.25H770.625V97.75H759.375C759.375 93.8901 759.375 67.4196 759.375 63.25ZM736.875 163.547L725.625 146.672V131.5H736.875V163.547ZM748.125 109H781.875V142.75H748.125V109ZM804.375 146.672L793.125 163.547C793.125 157.406 793.125 139.197 793.125 131.5H804.375V146.672Z" fill="#FCFCFC"/>
<path d="M759.375 120.25H770.625V131.5H759.375V120.25Z" fill="#FCFCFC"/>
<path d="M1253.92 69.748H1194.08C1192.5 69.748 1191.22 71.0308 1191.22 72.613C1191.22 74.1937 1192.5 75.4765 1194.08 75.4765H1253.92C1255.5 75.4765 1256.78 74.1937 1256.78 72.613C1256.78 71.0308 1255.5 69.748 1253.92 69.748Z" fill="#FCFCFC"/>
<path d="M1253.92 81.7774H1194.08C1192.5 81.7774 1191.22 83.0602 1191.22 84.6409C1191.22 86.2231 1192.5 87.5059 1194.08 87.5059H1253.92C1255.5 87.5059 1256.78 86.2231 1256.78 84.6409C1256.78 83.0602 1255.5 81.7774 1253.92 81.7774Z" fill="#FCFCFC"/>
<path d="M1253.92 89.8068H1194.08C1192.5 89.8068 1191.22 91.0881 1191.22 92.6703C1191.22 94.2524 1192.5 95.5338 1194.08 95.5338H1253.92C1255.5 95.5338 1256.78 94.2524 1256.78 92.6703C1256.78 91.0881 1255.5 89.8068 1253.92 89.8068Z" fill="#FCFCFC"/>
<path d="M1144.96 189.414H1160.78C1162.36 189.414 1163.64 188.132 1163.64 186.551C1163.64 184.969 1162.36 183.686 1160.78 183.686H1144.96C1143.38 183.686 1142.1 184.969 1142.1 186.551C1142.1 188.132 1143.38 189.414 1144.96 189.414Z" fill="#FCFCFC"/>
<path d="M1144.96 210.069H1160.78C1162.36 210.069 1163.64 208.788 1163.64 207.206C1163.64 205.624 1162.36 204.341 1160.78 204.341H1144.96C1143.38 204.341 1142.1 205.624 1142.1 207.206C1142.1 208.788 1143.38 210.069 1144.96 210.069Z" fill="#FCFCFC"/>
<path d="M1144.96 230.725H1160.78C1162.36 230.725 1163.64 229.443 1163.64 227.861C1163.64 226.279 1162.36 224.996 1160.78 224.996H1144.96C1143.38 224.996 1142.1 226.279 1142.1 227.861C1142.1 229.443 1143.38 230.725 1144.96 230.725Z" fill="#FCFCFC"/>
<path d="M1317.14 187.203C1315.56 187.203 1314.28 188.485 1314.28 190.066V232.062C1314.28 234.957 1311.93 237.313 1309.04 237.313H1281.22C1278.33 237.313 1275.98 234.957 1275.98 232.062V180.916C1275.98 178.022 1278.33 175.666 1281.22 175.666H1309.04C1311.35 175.666 1313.42 177.222 1314.07 179.45C1314.52 180.968 1316.11 181.837 1317.62 181.389C1319.14 180.943 1320 179.352 1319.56 177.834C1318.19 173.184 1313.87 169.938 1309.04 169.938H1297.99V141.483C1297.99 137.838 1295.03 134.873 1291.39 134.873H1226.86V109.283H1259.92C1265.97 109.283 1270.88 104.358 1270.88 98.3033V62.9785C1270.88 56.9256 1265.97 52 1259.92 52H1209.52C1207.94 52 1206.66 53.2828 1206.66 54.8635C1206.66 56.4457 1207.94 57.7285 1209.52 57.7285H1259.92C1262.81 57.7285 1265.16 60.0841 1265.16 62.9785V98.3033C1265.16 101.199 1262.81 103.555 1259.92 103.555H1188.08C1185.19 103.555 1182.84 101.199 1182.84 98.3033V62.9785C1182.84 60.0841 1185.19 57.7285 1188.08 57.7285H1198.09C1199.66 57.7285 1200.94 56.4457 1200.94 54.8635C1200.94 53.2828 1199.66 52 1198.09 52H1188.08C1182.04 52 1177.12 56.9256 1177.12 62.9785V98.3033C1177.12 104.358 1182.04 109.283 1188.08 109.283H1221.14V134.873H1156.61C1152.97 134.873 1150.01 137.838 1150.01 141.483V169.938H1138.96C1132.92 169.938 1128 174.862 1128 180.916V222.912C1128 224.494 1129.28 225.775 1130.86 225.775C1132.44 225.775 1133.72 224.494 1133.72 222.912V180.916C1133.72 178.022 1136.07 175.666 1138.96 175.666H1166.78C1169.67 175.666 1172.02 178.022 1172.02 180.916V232.062C1172.02 234.957 1169.67 237.313 1166.78 237.313H1138.96C1136.65 237.313 1134.58 235.756 1133.93 233.528C1133.48 232.01 1131.89 231.143 1130.38 231.589C1128.86 232.035 1128 233.628 1128.44 235.145C1129.81 239.794 1134.13 243.042 1138.96 243.042H1166.78C1172.82 243.042 1177.74 238.116 1177.74 232.062V180.916C1177.74 174.864 1172.82 169.938 1166.78 169.938H1155.73V141.483C1155.73 140.998 1156.12 140.601 1156.61 140.601H1221.14V169.938H1210.09C1204.05 169.938 1199.13 174.864 1199.13 180.916V232.062C1199.13 238.116 1204.05 243.042 1210.09 243.042H1237.91C1243.95 243.042 1248.87 238.116 1248.87 232.062V180.916C1248.87 174.864 1243.95 169.938 1237.91 169.938H1226.86V140.601H1291.39C1291.88 140.601 1292.27 140.998 1292.27 141.483V169.938H1281.22C1275.18 169.938 1270.26 174.864 1270.26 180.916V232.062C1270.26 238.116 1275.18 243.042 1281.22 243.042H1309.04C1315.08 243.042 1320 238.116 1320 232.062V190.066C1320 188.485 1318.72 187.203 1317.14 187.203V187.203ZM1237.91 175.666C1240.8 175.666 1243.15 178.022 1243.15 180.916V232.062C1243.15 234.957 1240.8 237.313 1237.91 237.313H1210.09C1207.2 237.313 1204.85 234.957 1204.85 232.062V180.916C1204.85 178.022 1207.2 175.666 1210.09 175.666H1237.91Z" fill="#FCFCFC"/>
<path d="M1303.04 183.686H1287.22C1285.64 183.686 1284.36 184.969 1284.36 186.551C1284.36 188.132 1285.64 189.414 1287.22 189.414H1303.04C1304.62 189.414 1305.9 188.132 1305.9 186.551C1305.9 184.969 1304.62 183.686 1303.04 183.686V183.686Z" fill="#FCFCFC"/>
<path d="M1303.04 204.341H1287.22C1285.64 204.341 1284.36 205.624 1284.36 207.206C1284.36 208.788 1285.64 210.069 1287.22 210.069H1303.04C1304.62 210.069 1305.9 208.788 1305.9 207.206C1305.9 205.624 1304.62 204.341 1303.04 204.341V204.341Z" fill="#FCFCFC"/>
<path d="M1303.04 224.996H1287.22C1285.64 224.996 1284.36 226.279 1284.36 227.861C1284.36 229.443 1285.64 230.725 1287.22 230.725H1303.04C1304.62 230.725 1305.9 229.443 1305.9 227.861C1305.9 226.279 1304.62 224.996 1303.04 224.996V224.996Z" fill="#FCFCFC"/>
<path d="M1216.09 189.414H1231.91C1233.49 189.414 1234.77 188.132 1234.77 186.551C1234.77 184.969 1233.49 183.686 1231.91 183.686H1216.09C1214.51 183.686 1213.23 184.969 1213.23 186.551C1213.23 188.132 1214.51 189.414 1216.09 189.414V189.414Z" fill="#FCFCFC"/>
<path d="M1216.09 210.069H1231.91C1233.49 210.069 1234.77 208.788 1234.77 207.206C1234.77 205.624 1233.49 204.341 1231.91 204.341H1216.09C1214.51 204.341 1213.23 205.624 1213.23 207.206C1213.23 208.788 1214.51 210.069 1216.09 210.069V210.069Z" fill="#FCFCFC"/>
<path d="M1216.09 230.725H1231.91C1233.49 230.725 1234.77 229.443 1234.77 227.861C1234.77 226.279 1233.49 224.996 1231.91 224.996H1216.09C1214.51 224.996 1213.23 226.279 1213.23 227.861C1213.23 229.443 1214.51 230.725 1216.09 230.725V230.725Z" fill="#FCFCFC"/>
<path d="M1773.44 52H1703.9C1699.73 52 1696.34 56.3066 1696.34 61.6V86.5605C1687.38 88.7742 1681.22 99.0866 1681.22 110.08V126.405C1681.22 129.05 1682.92 131.205 1685 131.205C1687.08 131.205 1688.78 129.05 1688.78 126.405V110.08C1688.79 103.838 1691.95 98.5058 1696.34 96.5157V234.4C1696.34 239.693 1699.73 244 1703.9 244H1773.44C1777.61 244 1781 239.693 1781 234.4V61.6C1781 56.3066 1777.61 52 1773.44 52ZM1773.44 234.4H1703.9V61.6H1773.44L1773.45 234.4C1773.45 234.4 1773.44 234.4 1773.44 234.4ZM1604.12 152.32C1604.12 149.669 1605.81 147.52 1607.9 147.52H1631.33C1633.42 147.52 1635.11 149.669 1635.11 152.32C1635.11 154.971 1633.42 157.12 1631.33 157.12H1607.9C1605.81 157.12 1604.12 154.971 1604.12 152.32ZM1604.12 171.52C1604.12 168.869 1605.81 166.72 1607.9 166.72H1654.76C1656.85 166.72 1658.54 168.869 1658.54 171.52C1658.54 174.171 1656.85 176.32 1654.76 176.32H1607.9C1605.81 176.32 1604.12 174.171 1604.12 171.52ZM1604.12 76C1604.12 73.3494 1605.81 71.2 1607.9 71.2H1654.76C1656.85 71.2 1658.54 73.3494 1658.54 76C1658.54 78.6506 1656.85 80.8 1654.76 80.8H1607.9C1605.81 80.8 1604.12 78.6506 1604.12 76ZM1765.88 154.72C1765.88 157.371 1764.19 159.52 1762.1 159.52H1715.24C1713.15 159.52 1711.46 157.371 1711.46 154.72C1711.46 152.069 1713.15 149.92 1715.24 149.92H1762.1C1764.19 149.92 1765.88 152.069 1765.88 154.72ZM1765.88 173.92C1765.88 176.571 1764.19 178.72 1762.1 178.72H1715.24C1713.15 178.72 1711.46 176.571 1711.46 173.92C1711.46 171.269 1713.15 169.12 1715.24 169.12H1762.1C1764.19 169.12 1765.88 171.269 1765.88 173.92ZM1742.45 193.12C1742.45 195.771 1740.76 197.92 1738.67 197.92H1715.24C1713.15 197.92 1711.46 195.771 1711.46 193.12C1711.46 190.469 1713.15 188.32 1715.24 188.32H1738.67C1740.76 188.32 1742.45 190.469 1742.45 193.12ZM1762.1 71.2H1715.24C1713.15 71.2 1711.46 73.3494 1711.46 76V135.52C1711.46 138.171 1713.15 140.32 1715.24 140.32H1762.1C1764.19 140.32 1765.88 138.171 1765.88 135.52V76C1765.88 73.3494 1764.19 71.2 1762.1 71.2ZM1758.32 130.72H1719.02V80.8H1758.32V130.72ZM1688.78 148.005C1688.78 150.65 1687.08 152.805 1685 152.805C1682.92 152.805 1681.22 150.65 1681.22 148.005C1681.22 145.355 1682.92 143.205 1685 143.205C1687.08 143.205 1688.78 145.355 1688.78 148.005ZM1685 164.805C1682.92 164.805 1681.22 166.955 1681.22 169.605V185.92C1681.21 192.162 1678.05 197.494 1673.66 199.484V61.6C1673.66 56.3066 1670.27 52 1666.1 52H1596.56C1592.39 52 1589 56.3066 1589 61.6V234.4C1589 239.693 1592.39 244 1596.56 244H1666.1C1670.27 244 1673.66 239.693 1673.66 234.4V209.441C1681.96 207.412 1688.78 197.92 1688.78 185.92V169.605C1688.78 166.955 1687.08 164.805 1685 164.805ZM1666.1 234.4H1596.56V61.6H1666.1L1666.11 200.32H1658.54C1658.54 192.38 1653.46 185.92 1647.2 185.92H1615.46C1609.2 185.92 1604.12 192.38 1604.12 200.32V209.92C1604.12 217.86 1609.2 224.32 1615.46 224.32H1647.2C1653.46 224.32 1658.54 217.86 1658.54 209.92H1666.11L1666.11 234.4C1666.11 234.4 1666.11 234.4 1666.1 234.4ZM1650.98 209.92C1650.98 212.567 1649.29 214.72 1647.2 214.72H1615.46C1613.37 214.72 1611.68 212.567 1611.68 209.92V200.32C1611.68 197.673 1613.37 195.52 1615.46 195.52H1647.2C1649.29 195.52 1650.98 197.673 1650.98 200.32V209.92Z" fill="#FCFCFC"/>
</svg>
