<svg width="1920" height="1396" viewBox="0 0 1920 1396" fill="none" xmlns="http://www.w3.org/2000/svg">
<rect width="1920" height="1396" fill="#121212"/>
<rect x="787" y="72" width="316" height="81" rx="40.5" fill="#146CDB"/>
<path d="M872.779 115.314C872.779 113.451 873.143 111.775 873.869 110.287C874.607 108.799 875.627 107.65 876.928 106.842C878.24 106.033 879.734 105.629 881.41 105.629C884 105.629 886.092 106.525 887.686 108.318C889.291 110.111 890.094 112.496 890.094 115.473V115.701C890.094 117.553 889.736 119.217 889.021 120.693C888.318 122.158 887.305 123.301 885.98 124.121C884.668 124.941 883.156 125.352 881.445 125.352C878.867 125.352 876.775 124.455 875.17 122.662C873.576 120.869 872.779 118.496 872.779 115.543V115.314ZM876.049 115.701C876.049 117.811 876.535 119.504 877.508 120.781C878.492 122.059 879.805 122.697 881.445 122.697C883.098 122.697 884.41 122.053 885.383 120.764C886.355 119.463 886.842 117.646 886.842 115.314C886.842 113.229 886.344 111.541 885.348 110.252C884.363 108.951 883.051 108.301 881.41 108.301C879.805 108.301 878.51 108.939 877.525 110.217C876.541 111.494 876.049 113.322 876.049 115.701ZM910.238 115.701C910.238 118.596 909.576 120.928 908.252 122.697C906.928 124.467 905.135 125.352 902.873 125.352C900.564 125.352 898.748 124.619 897.424 123.154V132.312H894.172V105.98H897.143L897.301 108.09C898.625 106.449 900.465 105.629 902.82 105.629C905.105 105.629 906.91 106.49 908.234 108.213C909.57 109.936 910.238 112.332 910.238 115.402V115.701ZM906.986 115.332C906.986 113.188 906.529 111.494 905.615 110.252C904.701 109.01 903.447 108.389 901.854 108.389C899.885 108.389 898.408 109.262 897.424 111.008V120.096C898.396 121.83 899.885 122.697 901.889 122.697C903.447 122.697 904.684 122.082 905.598 120.852C906.523 119.609 906.986 117.77 906.986 115.332ZM922.279 125.352C919.701 125.352 917.604 124.508 915.986 122.82C914.369 121.121 913.561 118.854 913.561 116.018V115.42C913.561 113.533 913.918 111.852 914.633 110.375C915.359 108.887 916.367 107.727 917.656 106.895C918.957 106.051 920.363 105.629 921.875 105.629C924.348 105.629 926.27 106.443 927.641 108.072C929.012 109.701 929.697 112.033 929.697 115.068V116.422H916.812C916.859 118.297 917.404 119.814 918.447 120.975C919.502 122.123 920.838 122.697 922.455 122.697C923.604 122.697 924.576 122.463 925.373 121.994C926.17 121.525 926.867 120.904 927.465 120.131L929.451 121.678C927.857 124.127 925.467 125.352 922.279 125.352ZM921.875 108.301C920.562 108.301 919.461 108.781 918.57 109.742C917.68 110.691 917.129 112.027 916.918 113.75H926.445V113.504C926.352 111.852 925.906 110.574 925.109 109.672C924.312 108.758 923.234 108.301 921.875 108.301ZM936.553 105.98L936.658 108.371C938.111 106.543 940.01 105.629 942.354 105.629C946.373 105.629 948.4 107.896 948.436 112.432V125H945.184V112.414C945.172 111.043 944.855 110.029 944.234 109.373C943.625 108.717 942.67 108.389 941.369 108.389C940.314 108.389 939.389 108.67 938.592 109.232C937.795 109.795 937.174 110.533 936.729 111.447V125H933.477V105.98H936.553ZM974.012 125C973.824 124.625 973.672 123.957 973.555 122.996C972.043 124.566 970.238 125.352 968.141 125.352C966.266 125.352 964.725 124.824 963.518 123.77C962.322 122.703 961.725 121.355 961.725 119.727C961.725 117.746 962.475 116.211 963.975 115.121C965.486 114.02 967.607 113.469 970.338 113.469H973.502V111.975C973.502 110.838 973.162 109.936 972.482 109.268C971.803 108.588 970.801 108.248 969.477 108.248C968.316 108.248 967.344 108.541 966.559 109.127C965.773 109.713 965.381 110.422 965.381 111.254H962.111C962.111 110.305 962.445 109.391 963.113 108.512C963.793 107.621 964.707 106.918 965.855 106.402C967.016 105.887 968.287 105.629 969.67 105.629C971.861 105.629 973.578 106.18 974.82 107.281C976.062 108.371 976.707 109.877 976.754 111.799V120.553C976.754 122.299 976.977 123.688 977.422 124.719V125H974.012ZM968.615 122.521C969.635 122.521 970.602 122.258 971.516 121.73C972.43 121.203 973.092 120.518 973.502 119.674V115.771H970.953C966.969 115.771 964.977 116.938 964.977 119.27C964.977 120.289 965.316 121.086 965.996 121.66C966.676 122.234 967.549 122.521 968.615 122.521ZM997.918 115.701C997.918 118.596 997.256 120.928 995.932 122.697C994.607 124.467 992.814 125.352 990.553 125.352C988.244 125.352 986.428 124.619 985.104 123.154V132.312H981.852V105.98H984.822L984.98 108.09C986.305 106.449 988.145 105.629 990.5 105.629C992.785 105.629 994.59 106.49 995.914 108.213C997.25 109.936 997.918 112.332 997.918 115.402V115.701ZM994.666 115.332C994.666 113.188 994.209 111.494 993.295 110.252C992.381 109.01 991.127 108.389 989.533 108.389C987.564 108.389 986.088 109.262 985.104 111.008V120.096C986.076 121.83 987.564 122.697 989.568 122.697C991.127 122.697 992.363 122.082 993.277 120.852C994.203 119.609 994.666 117.77 994.666 115.332ZM1018.13 115.701C1018.13 118.596 1017.47 120.928 1016.15 122.697C1014.82 124.467 1013.03 125.352 1010.77 125.352C1008.46 125.352 1006.64 124.619 1005.32 123.154V132.312H1002.07V105.98H1005.04L1005.2 108.09C1006.52 106.449 1008.36 105.629 1010.71 105.629C1013 105.629 1014.8 106.49 1016.13 108.213C1017.46 109.936 1018.13 112.332 1018.13 115.402V115.701ZM1014.88 115.332C1014.88 113.188 1014.42 111.494 1013.51 110.252C1012.6 109.01 1011.34 108.389 1009.75 108.389C1007.78 108.389 1006.3 109.262 1005.32 111.008V120.096C1006.29 121.83 1007.78 122.697 1009.78 122.697C1011.34 122.697 1012.58 122.082 1013.49 120.852C1014.42 119.609 1014.88 117.77 1014.88 115.332Z" fill="white"/>
<rect x="1234" y="1253" width="274" height="70.2342" rx="35.1171" fill="#146CDB"/>
<path d="M1351.72 1300.35C1349.14 1300.35 1347.04 1299.51 1345.42 1297.82C1343.81 1296.12 1343 1293.85 1343 1291.02V1290.42C1343 1288.53 1343.36 1286.85 1344.07 1285.38C1344.8 1283.89 1345.8 1282.73 1347.09 1281.89C1348.39 1281.05 1349.8 1280.63 1351.31 1280.63C1353.79 1280.63 1355.71 1281.44 1357.08 1283.07C1358.45 1284.7 1359.13 1287.03 1359.13 1290.07V1291.42H1346.25C1346.3 1293.3 1346.84 1294.81 1347.88 1295.97C1348.94 1297.12 1350.28 1297.7 1351.89 1297.7C1353.04 1297.7 1354.01 1297.46 1354.81 1296.99C1355.61 1296.53 1356.3 1295.9 1356.9 1295.13L1358.89 1296.68C1357.29 1299.13 1354.9 1300.35 1351.72 1300.35ZM1351.31 1283.3C1350 1283.3 1348.9 1283.78 1348.01 1284.74C1347.12 1285.69 1346.57 1287.03 1346.36 1288.75H1355.88V1288.5C1355.79 1286.85 1355.34 1285.57 1354.55 1284.67C1353.75 1283.76 1352.67 1283.3 1351.31 1283.3ZM1365.99 1280.98L1366.1 1283.37C1367.55 1281.54 1369.45 1280.63 1371.79 1280.63C1375.81 1280.63 1377.84 1282.9 1377.87 1287.43V1300H1374.62V1287.41C1374.61 1286.04 1374.29 1285.03 1373.67 1284.37C1373.06 1283.72 1372.11 1283.39 1370.81 1283.39C1369.75 1283.39 1368.83 1283.67 1368.03 1284.23C1367.23 1284.79 1366.61 1285.53 1366.17 1286.45V1300H1362.91V1280.98H1365.99ZM1381.99 1290.33C1381.99 1287.41 1382.68 1285.07 1384.06 1283.3C1385.44 1281.52 1387.25 1280.63 1389.49 1280.63C1391.72 1280.63 1393.48 1281.39 1394.78 1282.91V1273H1398.04V1300H1395.05L1394.89 1297.96C1393.59 1299.55 1391.78 1300.35 1389.46 1300.35C1387.25 1300.35 1385.46 1299.45 1384.06 1297.64C1382.68 1295.84 1381.99 1293.48 1381.99 1290.58V1290.33ZM1385.24 1290.7C1385.24 1292.86 1385.68 1294.54 1386.57 1295.76C1387.46 1296.98 1388.7 1297.59 1390.27 1297.59C1392.33 1297.59 1393.83 1296.67 1394.78 1294.81V1286.08C1393.81 1284.29 1392.32 1283.39 1390.3 1283.39C1388.71 1283.39 1387.46 1284 1386.57 1285.23C1385.68 1286.46 1385.24 1288.29 1385.24 1290.7Z" fill="white"/>
<circle cx="945" cy="227" r="12.5" transform="rotate(180 945 227)" stroke="#FCFCFC" stroke-width="3"/>
<circle r="4.5" transform="matrix(1 0 0 -1 1341 678)" stroke="#FCFCFC" stroke-width="3"/>
<line x1="943.5" y1="213" x2="943.5" y2="153" stroke="#FCFCFC" stroke-width="3"/>
<rect x="945" y="241" width="175.362" height="175.362" rx="40" transform="rotate(45 945 241)" fill="#FBB500"/>
<path d="M896.258 349.5V355.641H900.992V358.992H896.258V374.719C896.258 375.734 896.469 376.5 896.891 377.016C897.312 377.516 898.031 377.766 899.047 377.766C899.547 377.766 900.234 377.672 901.109 377.484V381C899.969 381.312 898.859 381.469 897.781 381.469C895.844 381.469 894.383 380.883 893.398 379.711C892.414 378.539 891.922 376.875 891.922 374.719V358.992H887.305V355.641H891.922V349.5H896.258ZM918.336 359.531C917.68 359.422 916.969 359.367 916.203 359.367C913.359 359.367 911.43 360.578 910.414 363V381H906.078V355.641H910.297L910.367 358.57C911.789 356.305 913.805 355.172 916.414 355.172C917.258 355.172 917.898 355.281 918.336 355.5V359.531ZM937.062 381C936.812 380.5 936.609 379.609 936.453 378.328C934.438 380.422 932.031 381.469 929.234 381.469C926.734 381.469 924.68 380.766 923.07 379.359C921.477 377.938 920.68 376.141 920.68 373.969C920.68 371.328 921.68 369.281 923.68 367.828C925.695 366.359 928.523 365.625 932.164 365.625H936.383V363.633C936.383 362.117 935.93 360.914 935.023 360.023C934.117 359.117 932.781 358.664 931.016 358.664C929.469 358.664 928.172 359.055 927.125 359.836C926.078 360.617 925.555 361.562 925.555 362.672H921.195C921.195 361.406 921.641 360.188 922.531 359.016C923.438 357.828 924.656 356.891 926.188 356.203C927.734 355.516 929.43 355.172 931.273 355.172C934.195 355.172 936.484 355.906 938.141 357.375C939.797 358.828 940.656 360.836 940.719 363.398V375.07C940.719 377.398 941.016 379.25 941.609 380.625V381H937.062ZM929.867 377.695C931.227 377.695 932.516 377.344 933.734 376.641C934.953 375.938 935.836 375.023 936.383 373.898V368.695H932.984C927.672 368.695 925.016 370.25 925.016 373.359C925.016 374.719 925.469 375.781 926.375 376.547C927.281 377.312 928.445 377.695 929.867 377.695ZM955.508 375.117L961.789 355.641H966.219L957.125 381H953.82L944.633 355.641H949.062L955.508 375.117ZM980.586 381.469C977.148 381.469 974.352 380.344 972.195 378.094C970.039 375.828 968.961 372.805 968.961 369.023V368.227C968.961 365.711 969.438 363.469 970.391 361.5C971.359 359.516 972.703 357.969 974.422 356.859C976.156 355.734 978.031 355.172 980.047 355.172C983.344 355.172 985.906 356.258 987.734 358.43C989.562 360.602 990.477 363.711 990.477 367.758V369.562H973.297C973.359 372.062 974.086 374.086 975.477 375.633C976.883 377.164 978.664 377.93 980.82 377.93C982.352 377.93 983.648 377.617 984.711 376.992C985.773 376.367 986.703 375.539 987.5 374.508L990.148 376.57C988.023 379.836 984.836 381.469 980.586 381.469ZM980.047 358.734C978.297 358.734 976.828 359.375 975.641 360.656C974.453 361.922 973.719 363.703 973.438 366H986.141V365.672C986.016 363.469 985.422 361.766 984.359 360.562C983.297 359.344 981.859 358.734 980.047 358.734ZM1000.23 381H995.891V345H1000.23V381Z" fill="black"/>
<path d="M647 365L627 365C593.863 365 567 391.863 567 425L567 445" stroke="#FCFCFC" stroke-width="2"/>
<path d="M591 422L567 446L543 422" stroke="#FCFCFC" stroke-width="2"/>
<line x1="646.994" y1="365.013" x2="803.007" y2="365.013" stroke="#FCFCFC" stroke-width="2"/>
<path d="M1248.79 365L1280.99 365C1314.13 365 1340.99 391.863 1340.99 425L1340.99 457.198" stroke="#FCFCFC" stroke-width="2"/>
<path d="M1316.79 434L1340.79 458L1364.79 434" stroke="#FCFCFC" stroke-width="2"/>
<line y1="-1" x2="179.801" y2="-1" transform="matrix(-1 0 0 1 1248.8 366.167)" stroke="#FCFCFC" stroke-width="2"/>
<rect x="376.5" y="487.5" width="381" height="81" rx="27.5" stroke="#2F80ED" stroke-width="5"/>
<rect x="376.5" y="674.5" width="381" height="81" rx="27.5" stroke="#2F80ED" stroke-width="5"/>
<rect x="1161.5" y="484.5" width="381" height="173" rx="27.5" stroke="#2F80ED" stroke-width="5"/>
<rect x="376.5" y="1164.5" width="381" height="81" rx="27.5" stroke="#2F80ED" stroke-width="5"/>
<rect x="376.5" y="861.5" width="381" height="197" rx="27.5" stroke="#2F80ED" stroke-width="5"/>
<path d="M464.602 540V514.406H472.16C474.422 514.406 476.426 514.91 478.172 515.918C479.93 516.926 481.289 518.355 482.25 520.207C483.211 522.059 483.691 524.18 483.691 526.57V527.854C483.691 530.279 483.205 532.412 482.232 534.252C481.271 536.092 479.895 537.51 478.102 538.506C476.32 539.502 474.275 540 471.967 540H464.602ZM469.049 517.992V536.449H471.949C474.281 536.449 476.068 535.723 477.311 534.27C478.564 532.805 479.203 530.707 479.227 527.977V526.553C479.227 523.775 478.623 521.654 477.416 520.189C476.209 518.725 474.457 517.992 472.16 517.992H469.049ZM496.084 540.352C493.377 540.352 491.18 539.502 489.492 537.803C487.816 536.092 486.979 533.818 486.979 530.982V530.455C486.979 528.557 487.342 526.863 488.068 525.375C488.807 523.875 489.838 522.709 491.162 521.877C492.486 521.045 493.963 520.629 495.592 520.629C498.182 520.629 500.18 521.455 501.586 523.107C503.004 524.76 503.713 527.098 503.713 530.121V531.844H491.285C491.414 533.414 491.936 534.656 492.85 535.57C493.775 536.484 494.936 536.941 496.33 536.941C498.287 536.941 499.881 536.15 501.111 534.568L503.414 536.766C502.652 537.902 501.633 538.787 500.355 539.42C499.09 540.041 497.666 540.352 496.084 540.352ZM495.574 524.057C494.402 524.057 493.453 524.467 492.727 525.287C492.012 526.107 491.555 527.25 491.355 528.715H499.494V528.398C499.4 526.969 499.02 525.891 498.352 525.164C497.684 524.426 496.758 524.057 495.574 524.057ZM517.705 534.832C517.705 534.07 517.389 533.49 516.756 533.092C516.135 532.693 515.098 532.342 513.645 532.037C512.191 531.732 510.979 531.346 510.006 530.877C507.873 529.846 506.807 528.352 506.807 526.395C506.807 524.754 507.498 523.383 508.881 522.281C510.264 521.18 512.021 520.629 514.154 520.629C516.428 520.629 518.262 521.191 519.656 522.316C521.062 523.441 521.766 524.9 521.766 526.693H517.494C517.494 525.873 517.189 525.193 516.58 524.654C515.971 524.104 515.162 523.828 514.154 523.828C513.217 523.828 512.449 524.045 511.852 524.479C511.266 524.912 510.973 525.492 510.973 526.219C510.973 526.875 511.248 527.385 511.799 527.748C512.35 528.111 513.463 528.48 515.139 528.855C516.814 529.219 518.127 529.658 519.076 530.174C520.037 530.678 520.746 531.287 521.203 532.002C521.672 532.717 521.906 533.584 521.906 534.604C521.906 536.314 521.197 537.703 519.779 538.77C518.361 539.824 516.504 540.352 514.207 540.352C512.648 540.352 511.26 540.07 510.041 539.508C508.822 538.945 507.873 538.172 507.193 537.188C506.514 536.203 506.174 535.143 506.174 534.006H510.322C510.381 535.014 510.762 535.793 511.465 536.344C512.168 536.883 513.1 537.152 514.26 537.152C515.385 537.152 516.24 536.941 516.826 536.52C517.412 536.086 517.705 535.523 517.705 534.832ZM530.994 516.357V520.98H534.352V524.145H530.994V534.762C530.994 535.488 531.135 536.016 531.416 536.344C531.709 536.66 532.225 536.818 532.963 536.818C533.455 536.818 533.953 536.76 534.457 536.643V539.947C533.484 540.217 532.547 540.352 531.645 540.352C528.363 540.352 526.723 538.541 526.723 534.92V524.145H523.594V520.98H526.723V516.357H530.994ZM542.174 540H537.902V520.98H542.174V540ZM537.639 516.041C537.639 515.385 537.844 514.84 538.254 514.406C538.676 513.973 539.273 513.756 540.047 513.756C540.82 513.756 541.418 513.973 541.84 514.406C542.262 514.84 542.473 515.385 542.473 516.041C542.473 516.686 542.262 517.225 541.84 517.658C541.418 518.08 540.82 518.291 540.047 518.291C539.273 518.291 538.676 518.08 538.254 517.658C537.844 517.225 537.639 516.686 537.639 516.041ZM550.805 520.98L550.928 523.178C552.334 521.479 554.18 520.629 556.465 520.629C560.426 520.629 562.441 522.896 562.512 527.432V540H558.24V527.678C558.24 526.471 557.977 525.58 557.449 525.006C556.934 524.42 556.084 524.127 554.9 524.127C553.178 524.127 551.895 524.906 551.051 526.465V540H546.779V520.98H550.805ZM578.244 540C578.057 539.637 577.893 539.045 577.752 538.225C576.393 539.643 574.729 540.352 572.76 540.352C570.85 540.352 569.291 539.807 568.084 538.717C566.877 537.627 566.273 536.279 566.273 534.674C566.273 532.646 567.023 531.094 568.523 530.016C570.035 528.926 572.191 528.381 574.992 528.381H577.611V527.133C577.611 526.148 577.336 525.363 576.785 524.777C576.234 524.18 575.396 523.881 574.271 523.881C573.299 523.881 572.502 524.127 571.881 524.619C571.26 525.1 570.949 525.715 570.949 526.465H566.678C566.678 525.422 567.023 524.449 567.715 523.547C568.406 522.633 569.344 521.918 570.527 521.402C571.723 520.887 573.053 520.629 574.518 520.629C576.744 520.629 578.52 521.191 579.844 522.316C581.168 523.43 581.848 525 581.883 527.027V535.605C581.883 537.316 582.123 538.682 582.604 539.701V540H578.244ZM573.551 536.924C574.395 536.924 575.186 536.719 575.924 536.309C576.674 535.898 577.236 535.348 577.611 534.656V531.07H575.309C573.727 531.07 572.537 531.346 571.74 531.896C570.943 532.447 570.545 533.227 570.545 534.234C570.545 535.055 570.814 535.711 571.354 536.203C571.904 536.684 572.637 536.924 573.551 536.924ZM591.709 516.357V520.98H595.066V524.145H591.709V534.762C591.709 535.488 591.85 536.016 592.131 536.344C592.424 536.66 592.939 536.818 593.678 536.818C594.17 536.818 594.668 536.76 595.172 536.643V539.947C594.199 540.217 593.262 540.352 592.359 540.352C589.078 540.352 587.438 538.541 587.438 534.92V524.145H584.309V520.98H587.438V516.357H591.709ZM602.889 540H598.617V520.98H602.889V540ZM598.354 516.041C598.354 515.385 598.559 514.84 598.969 514.406C599.391 513.973 599.988 513.756 600.762 513.756C601.535 513.756 602.133 513.973 602.555 514.406C602.977 514.84 603.188 515.385 603.188 516.041C603.188 516.686 602.977 517.225 602.555 517.658C602.133 518.08 601.535 518.291 600.762 518.291C599.988 518.291 599.391 518.08 598.969 517.658C598.559 517.225 598.354 516.686 598.354 516.041ZM606.756 530.314C606.756 528.451 607.125 526.775 607.863 525.287C608.602 523.787 609.639 522.639 610.975 521.842C612.311 521.033 613.846 520.629 615.58 520.629C618.146 520.629 620.227 521.455 621.82 523.107C623.426 524.76 624.293 526.951 624.422 529.682L624.439 530.684C624.439 532.559 624.076 534.234 623.35 535.711C622.635 537.188 621.604 538.33 620.256 539.139C618.92 539.947 617.373 540.352 615.615 540.352C612.932 540.352 610.781 539.461 609.164 537.68C607.559 535.887 606.756 533.502 606.756 530.525V530.314ZM611.027 530.684C611.027 532.641 611.432 534.176 612.24 535.289C613.049 536.391 614.174 536.941 615.615 536.941C617.057 536.941 618.176 536.379 618.973 535.254C619.781 534.129 620.186 532.482 620.186 530.314C620.186 528.393 619.77 526.869 618.938 525.744C618.117 524.619 616.998 524.057 615.58 524.057C614.186 524.057 613.078 524.613 612.258 525.727C611.438 526.828 611.027 528.48 611.027 530.684ZM632.016 520.98L632.139 523.178C633.545 521.479 635.391 520.629 637.676 520.629C641.637 520.629 643.652 522.896 643.723 527.432V540H639.451V527.678C639.451 526.471 639.188 525.58 638.66 525.006C638.145 524.42 637.295 524.127 636.111 524.127C634.389 524.127 633.105 524.906 632.262 526.465V540H627.99V520.98H632.016ZM658.752 534.832C658.752 534.07 658.436 533.49 657.803 533.092C657.182 532.693 656.145 532.342 654.691 532.037C653.238 531.732 652.025 531.346 651.053 530.877C648.92 529.846 647.854 528.352 647.854 526.395C647.854 524.754 648.545 523.383 649.928 522.281C651.311 521.18 653.068 520.629 655.201 520.629C657.475 520.629 659.309 521.191 660.703 522.316C662.109 523.441 662.812 524.9 662.812 526.693H658.541C658.541 525.873 658.236 525.193 657.627 524.654C657.018 524.104 656.209 523.828 655.201 523.828C654.264 523.828 653.496 524.045 652.898 524.479C652.312 524.912 652.02 525.492 652.02 526.219C652.02 526.875 652.295 527.385 652.846 527.748C653.396 528.111 654.51 528.48 656.186 528.855C657.861 529.219 659.174 529.658 660.123 530.174C661.084 530.678 661.793 531.287 662.25 532.002C662.719 532.717 662.953 533.584 662.953 534.604C662.953 536.314 662.244 537.703 660.826 538.77C659.408 539.824 657.551 540.352 655.254 540.352C653.695 540.352 652.307 540.07 651.088 539.508C649.869 538.945 648.92 538.172 648.24 537.188C647.561 536.203 647.221 535.143 647.221 534.006H651.369C651.428 535.014 651.809 535.793 652.512 536.344C653.215 536.883 654.146 537.152 655.307 537.152C656.432 537.152 657.287 536.941 657.873 536.52C658.459 536.086 658.752 535.523 658.752 534.832Z" fill="#FCFCFC"/>
<path d="M445.979 716.408C445.979 715.283 445.58 714.416 444.783 713.807C443.998 713.197 442.574 712.582 440.512 711.961C438.449 711.34 436.809 710.648 435.59 709.887C433.258 708.422 432.092 706.512 432.092 704.156C432.092 702.094 432.93 700.395 434.605 699.059C436.293 697.723 438.479 697.055 441.162 697.055C442.943 697.055 444.531 697.383 445.926 698.039C447.32 698.695 448.416 699.633 449.213 700.852C450.01 702.059 450.408 703.4 450.408 704.877H445.979C445.979 703.541 445.557 702.498 444.713 701.748C443.881 700.986 442.686 700.605 441.127 700.605C439.674 700.605 438.543 700.916 437.734 701.537C436.938 702.158 436.539 703.025 436.539 704.139C436.539 705.076 436.973 705.861 437.84 706.494C438.707 707.115 440.137 707.725 442.129 708.322C444.121 708.908 445.721 709.582 446.928 710.344C448.135 711.094 449.02 711.961 449.582 712.945C450.145 713.918 450.426 715.061 450.426 716.373C450.426 718.506 449.605 720.205 447.965 721.471C446.336 722.725 444.121 723.352 441.32 723.352C439.469 723.352 437.764 723.012 436.205 722.332C434.658 721.641 433.451 720.691 432.584 719.484C431.729 718.277 431.301 716.871 431.301 715.266H435.748C435.748 716.719 436.229 717.844 437.189 718.641C438.15 719.438 439.527 719.836 441.32 719.836C442.867 719.836 444.027 719.525 444.801 718.904C445.586 718.271 445.979 717.439 445.979 716.408ZM458.125 706.055C459.52 704.438 461.283 703.629 463.416 703.629C467.471 703.629 469.527 705.943 469.586 710.572V723H465.314V710.73C465.314 709.418 465.027 708.492 464.453 707.953C463.891 707.402 463.059 707.127 461.957 707.127C460.246 707.127 458.969 707.889 458.125 709.412V723H453.854V696H458.125V706.055ZM473.119 713.314C473.119 711.451 473.488 709.775 474.227 708.287C474.965 706.787 476.002 705.639 477.338 704.842C478.674 704.033 480.209 703.629 481.943 703.629C484.51 703.629 486.59 704.455 488.184 706.107C489.789 707.76 490.656 709.951 490.785 712.682L490.803 713.684C490.803 715.559 490.439 717.234 489.713 718.711C488.998 720.188 487.967 721.33 486.619 722.139C485.283 722.947 483.736 723.352 481.979 723.352C479.295 723.352 477.145 722.461 475.527 720.68C473.922 718.887 473.119 716.502 473.119 713.525V713.314ZM477.391 713.684C477.391 715.641 477.795 717.176 478.604 718.289C479.412 719.391 480.537 719.941 481.979 719.941C483.42 719.941 484.539 719.379 485.336 718.254C486.145 717.129 486.549 715.482 486.549 713.314C486.549 711.393 486.133 709.869 485.301 708.744C484.48 707.619 483.361 707.057 481.943 707.057C480.549 707.057 479.441 707.613 478.621 708.727C477.801 709.828 477.391 711.48 477.391 713.684ZM511.123 717.111L514.146 703.98H518.312L513.127 723H509.611L505.533 709.939L501.525 723H498.01L492.807 703.98H496.973L500.049 716.971L503.951 703.98H507.168L511.123 717.111ZM531.83 717.832C531.83 717.07 531.514 716.49 530.881 716.092C530.26 715.693 529.223 715.342 527.77 715.037C526.316 714.732 525.104 714.346 524.131 713.877C521.998 712.846 520.932 711.352 520.932 709.395C520.932 707.754 521.623 706.383 523.006 705.281C524.389 704.18 526.146 703.629 528.279 703.629C530.553 703.629 532.387 704.191 533.781 705.316C535.188 706.441 535.891 707.9 535.891 709.693H531.619C531.619 708.873 531.314 708.193 530.705 707.654C530.096 707.104 529.287 706.828 528.279 706.828C527.342 706.828 526.574 707.045 525.977 707.479C525.391 707.912 525.098 708.492 525.098 709.219C525.098 709.875 525.373 710.385 525.924 710.748C526.475 711.111 527.588 711.48 529.264 711.855C530.939 712.219 532.252 712.658 533.201 713.174C534.162 713.678 534.871 714.287 535.328 715.002C535.797 715.717 536.031 716.584 536.031 717.604C536.031 719.314 535.322 720.703 533.904 721.77C532.486 722.824 530.629 723.352 528.332 723.352C526.773 723.352 525.385 723.07 524.166 722.508C522.947 721.945 521.998 721.172 521.318 720.188C520.639 719.203 520.299 718.143 520.299 717.006H524.447C524.506 718.014 524.887 718.793 525.59 719.344C526.293 719.883 527.225 720.152 528.385 720.152C529.51 720.152 530.365 719.941 530.951 719.52C531.537 719.086 531.83 718.523 531.83 717.832ZM562.521 716.408C562.521 715.283 562.123 714.416 561.326 713.807C560.541 713.197 559.117 712.582 557.055 711.961C554.992 711.34 553.352 710.648 552.133 709.887C549.801 708.422 548.635 706.512 548.635 704.156C548.635 702.094 549.473 700.395 551.148 699.059C552.836 697.723 555.021 697.055 557.705 697.055C559.486 697.055 561.074 697.383 562.469 698.039C563.863 698.695 564.959 699.633 565.756 700.852C566.553 702.059 566.951 703.4 566.951 704.877H562.521C562.521 703.541 562.1 702.498 561.256 701.748C560.424 700.986 559.229 700.605 557.67 700.605C556.217 700.605 555.086 700.916 554.277 701.537C553.48 702.158 553.082 703.025 553.082 704.139C553.082 705.076 553.516 705.861 554.383 706.494C555.25 707.115 556.68 707.725 558.672 708.322C560.664 708.908 562.264 709.582 563.471 710.344C564.678 711.094 565.562 711.961 566.125 712.945C566.688 713.918 566.969 715.061 566.969 716.373C566.969 718.506 566.148 720.205 564.508 721.471C562.879 722.725 560.664 723.352 557.863 723.352C556.012 723.352 554.307 723.012 552.748 722.332C551.201 721.641 549.994 720.691 549.127 719.484C548.271 718.277 547.844 716.871 547.844 715.266H552.291C552.291 716.719 552.771 717.844 553.732 718.641C554.693 719.438 556.07 719.836 557.863 719.836C559.41 719.836 560.57 719.525 561.344 718.904C562.129 718.271 562.521 717.439 562.521 716.408ZM581.822 723C581.635 722.637 581.471 722.045 581.33 721.225C579.971 722.643 578.307 723.352 576.338 723.352C574.428 723.352 572.869 722.807 571.662 721.717C570.455 720.627 569.852 719.279 569.852 717.674C569.852 715.646 570.602 714.094 572.102 713.016C573.613 711.926 575.77 711.381 578.57 711.381H581.189V710.133C581.189 709.148 580.914 708.363 580.363 707.777C579.812 707.18 578.975 706.881 577.85 706.881C576.877 706.881 576.08 707.127 575.459 707.619C574.838 708.1 574.527 708.715 574.527 709.465H570.256C570.256 708.422 570.602 707.449 571.293 706.547C571.984 705.633 572.922 704.918 574.105 704.402C575.301 703.887 576.631 703.629 578.096 703.629C580.322 703.629 582.098 704.191 583.422 705.316C584.746 706.43 585.426 708 585.461 710.027V718.605C585.461 720.316 585.701 721.682 586.182 722.701V723H581.822ZM577.129 719.924C577.973 719.924 578.764 719.719 579.502 719.309C580.252 718.898 580.814 718.348 581.189 717.656V714.07H578.887C577.305 714.07 576.115 714.346 575.318 714.896C574.521 715.447 574.123 716.227 574.123 717.234C574.123 718.055 574.393 718.711 574.932 719.203C575.482 719.684 576.215 719.924 577.129 719.924ZM591.438 723V707.145H588.537V703.98H591.438V702.24C591.438 700.131 592.023 698.502 593.195 697.354C594.367 696.205 596.008 695.631 598.117 695.631C598.867 695.631 599.664 695.736 600.508 695.947L600.402 699.287C599.934 699.193 599.389 699.146 598.768 699.146C596.729 699.146 595.709 700.195 595.709 702.293V703.98H599.576V707.145H595.709V723H591.438ZM610.65 723.352C607.943 723.352 605.746 722.502 604.059 720.803C602.383 719.092 601.545 716.818 601.545 713.982V713.455C601.545 711.557 601.908 709.863 602.635 708.375C603.373 706.875 604.404 705.709 605.729 704.877C607.053 704.045 608.529 703.629 610.158 703.629C612.748 703.629 614.746 704.455 616.152 706.107C617.57 707.76 618.279 710.098 618.279 713.121V714.844H605.852C605.98 716.414 606.502 717.656 607.416 718.57C608.342 719.484 609.502 719.941 610.896 719.941C612.854 719.941 614.447 719.15 615.678 717.568L617.98 719.766C617.219 720.902 616.199 721.787 614.922 722.42C613.656 723.041 612.232 723.352 610.65 723.352ZM610.141 707.057C608.969 707.057 608.02 707.467 607.293 708.287C606.578 709.107 606.121 710.25 605.922 711.715H614.061V711.398C613.967 709.969 613.586 708.891 612.918 708.164C612.25 707.426 611.324 707.057 610.141 707.057ZM640.393 713.139H635.436V723H630.988V697.406H639.988C642.941 697.406 645.221 698.068 646.826 699.393C648.432 700.717 649.234 702.633 649.234 705.141C649.234 706.852 648.818 708.287 647.986 709.447C647.166 710.596 646.018 711.48 644.541 712.102L650.289 722.771V723H645.525L640.393 713.139ZM635.436 709.57H640.006C641.506 709.57 642.678 709.195 643.521 708.445C644.365 707.684 644.787 706.646 644.787 705.334C644.787 703.963 644.395 702.902 643.609 702.152C642.836 701.402 641.676 701.016 640.129 700.992H635.436V709.57ZM652.24 713.314C652.24 711.451 652.609 709.775 653.348 708.287C654.086 706.787 655.123 705.639 656.459 704.842C657.795 704.033 659.33 703.629 661.064 703.629C663.631 703.629 665.711 704.455 667.305 706.107C668.91 707.76 669.777 709.951 669.906 712.682L669.924 713.684C669.924 715.559 669.561 717.234 668.834 718.711C668.119 720.188 667.088 721.33 665.74 722.139C664.404 722.947 662.857 723.352 661.1 723.352C658.416 723.352 656.266 722.461 654.648 720.68C653.043 718.887 652.24 716.502 652.24 713.525V713.314ZM656.512 713.684C656.512 715.641 656.916 717.176 657.725 718.289C658.533 719.391 659.658 719.941 661.1 719.941C662.541 719.941 663.66 719.379 664.457 718.254C665.266 717.129 665.67 715.482 665.67 713.314C665.67 711.393 665.254 709.869 664.422 708.744C663.602 707.619 662.482 707.057 661.064 707.057C659.67 707.057 658.562 707.613 657.742 708.727C656.922 709.828 656.512 711.48 656.512 713.684ZM685.059 721.137C683.805 722.613 682.023 723.352 679.715 723.352C677.652 723.352 676.088 722.748 675.021 721.541C673.967 720.334 673.439 718.588 673.439 716.303V703.98H677.711V716.25C677.711 718.664 678.713 719.871 680.717 719.871C682.791 719.871 684.191 719.127 684.918 717.639V703.98H689.189V723H685.164L685.059 721.137ZM698.893 699.357V703.98H702.25V707.145H698.893V717.762C698.893 718.488 699.033 719.016 699.314 719.344C699.607 719.66 700.123 719.818 700.861 719.818C701.354 719.818 701.852 719.76 702.355 719.643V722.947C701.383 723.217 700.445 723.352 699.543 723.352C696.262 723.352 694.621 721.541 694.621 717.92V707.145H691.492V703.98H694.621V699.357H698.893ZM713.904 723.352C711.197 723.352 709 722.502 707.312 720.803C705.637 719.092 704.799 716.818 704.799 713.982V713.455C704.799 711.557 705.162 709.863 705.889 708.375C706.627 706.875 707.658 705.709 708.982 704.877C710.307 704.045 711.783 703.629 713.412 703.629C716.002 703.629 718 704.455 719.406 706.107C720.824 707.76 721.533 710.098 721.533 713.121V714.844H709.105C709.234 716.414 709.756 717.656 710.67 718.57C711.596 719.484 712.756 719.941 714.15 719.941C716.107 719.941 717.701 719.15 718.932 717.568L721.234 719.766C720.473 720.902 719.453 721.787 718.176 722.42C716.91 723.041 715.486 723.352 713.904 723.352ZM713.395 707.057C712.223 707.057 711.273 707.467 710.547 708.287C709.832 709.107 709.375 710.25 709.176 711.715H717.314V711.398C717.221 709.969 716.84 708.891 716.172 708.164C715.504 707.426 714.578 707.057 713.395 707.057Z" fill="#FCFCFC"/>
<path d="M475.904 930H471.457L460.049 911.842V930H455.602V904.406H460.049L471.492 922.635V904.406H475.904V930ZM479.947 920.314C479.947 918.451 480.316 916.775 481.055 915.287C481.793 913.787 482.83 912.639 484.166 911.842C485.502 911.033 487.037 910.629 488.771 910.629C491.338 910.629 493.418 911.455 495.012 913.107C496.617 914.76 497.484 916.951 497.613 919.682L497.631 920.684C497.631 922.559 497.268 924.234 496.541 925.711C495.826 927.188 494.795 928.33 493.447 929.139C492.111 929.947 490.564 930.352 488.807 930.352C486.123 930.352 483.973 929.461 482.355 927.68C480.75 925.887 479.947 923.502 479.947 920.525V920.314ZM484.219 920.684C484.219 922.641 484.623 924.176 485.432 925.289C486.24 926.391 487.365 926.941 488.807 926.941C490.248 926.941 491.367 926.379 492.164 925.254C492.973 924.129 493.377 922.482 493.377 920.314C493.377 918.393 492.961 916.869 492.129 915.744C491.309 914.619 490.189 914.057 488.771 914.057C487.377 914.057 486.27 914.613 485.449 915.727C484.629 916.828 484.219 918.48 484.219 920.684ZM506.596 906.357V910.98H509.953V914.145H506.596V924.762C506.596 925.488 506.736 926.016 507.018 926.344C507.311 926.66 507.826 926.818 508.564 926.818C509.057 926.818 509.555 926.76 510.059 926.643V929.947C509.086 930.217 508.148 930.352 507.246 930.352C503.965 930.352 502.324 928.541 502.324 924.92V914.145H499.195V910.98H502.324V906.357H506.596ZM517.775 930H513.504V910.98H517.775V930ZM513.24 906.041C513.24 905.385 513.445 904.84 513.855 904.406C514.277 903.973 514.875 903.756 515.648 903.756C516.422 903.756 517.02 903.973 517.441 904.406C517.863 904.84 518.074 905.385 518.074 906.041C518.074 906.686 517.863 907.225 517.441 907.658C517.02 908.08 516.422 908.291 515.648 908.291C514.875 908.291 514.277 908.08 513.855 907.658C513.445 907.225 513.24 906.686 513.24 906.041ZM523.576 930V914.145H520.676V910.98H523.576V909.68C523.588 908.191 523.904 906.914 524.525 905.848C525.146 904.781 526.025 903.979 527.162 903.439C528.299 902.9 529.664 902.631 531.258 902.631C532.195 902.631 533.092 902.73 533.947 902.93C534.814 903.129 535.711 903.381 536.637 903.686L535.986 907.219C534.369 906.656 532.893 906.375 531.557 906.375C530.256 906.375 529.312 906.662 528.727 907.236C528.141 907.799 527.848 908.648 527.848 909.785V910.98H531.592V914.145H527.848V930H523.576ZM538.658 930H534.387V910.98H538.658V930ZM551.209 926.941C552.275 926.941 553.16 926.631 553.863 926.01C554.566 925.389 554.941 924.621 554.988 923.707H559.014C558.967 924.891 558.598 925.998 557.906 927.029C557.215 928.049 556.277 928.857 555.094 929.455C553.91 930.053 552.633 930.352 551.262 930.352C548.602 930.352 546.492 929.49 544.934 927.768C543.375 926.045 542.596 923.666 542.596 920.631V920.191C542.596 917.297 543.369 914.982 544.916 913.248C546.463 911.502 548.572 910.629 551.244 910.629C553.506 910.629 555.346 911.291 556.764 912.615C558.193 913.928 558.943 915.656 559.014 917.801H554.988C554.941 916.711 554.566 915.814 553.863 915.111C553.172 914.408 552.287 914.057 551.209 914.057C549.826 914.057 548.76 914.561 548.01 915.568C547.26 916.564 546.879 918.082 546.867 920.121V920.807C546.867 922.869 547.236 924.41 547.975 925.43C548.725 926.438 549.803 926.941 551.209 926.941ZM573.604 930C573.416 929.637 573.252 929.045 573.111 928.225C571.752 929.643 570.088 930.352 568.119 930.352C566.209 930.352 564.65 929.807 563.443 928.717C562.236 927.627 561.633 926.279 561.633 924.674C561.633 922.646 562.383 921.094 563.883 920.016C565.395 918.926 567.551 918.381 570.352 918.381H572.971V917.133C572.971 916.148 572.695 915.363 572.145 914.777C571.594 914.18 570.756 913.881 569.631 913.881C568.658 913.881 567.861 914.127 567.24 914.619C566.619 915.1 566.309 915.715 566.309 916.465H562.037C562.037 915.422 562.383 914.449 563.074 913.547C563.766 912.633 564.703 911.918 565.887 911.402C567.082 910.887 568.412 910.629 569.877 910.629C572.104 910.629 573.879 911.191 575.203 912.316C576.527 913.43 577.207 915 577.242 917.027V925.605C577.242 927.316 577.482 928.682 577.963 929.701V930H573.604ZM568.91 926.924C569.754 926.924 570.545 926.719 571.283 926.309C572.033 925.898 572.596 925.348 572.971 924.656V921.07H570.668C569.086 921.07 567.896 921.346 567.1 921.896C566.303 922.447 565.904 923.227 565.904 924.234C565.904 925.055 566.174 925.711 566.713 926.203C567.264 926.684 567.996 926.924 568.91 926.924ZM587.068 906.357V910.98H590.426V914.145H587.068V924.762C587.068 925.488 587.209 926.016 587.49 926.344C587.783 926.66 588.299 926.818 589.037 926.818C589.529 926.818 590.027 926.76 590.531 926.643V929.947C589.559 930.217 588.621 930.352 587.719 930.352C584.438 930.352 582.797 928.541 582.797 924.92V914.145H579.668V910.98H582.797V906.357H587.068ZM598.248 930H593.977V910.98H598.248V930ZM593.713 906.041C593.713 905.385 593.918 904.84 594.328 904.406C594.75 903.973 595.348 903.756 596.121 903.756C596.895 903.756 597.492 903.973 597.914 904.406C598.336 904.84 598.547 905.385 598.547 906.041C598.547 906.686 598.336 907.225 597.914 907.658C597.492 908.08 596.895 908.291 596.121 908.291C595.348 908.291 594.75 908.08 594.328 907.658C593.918 907.225 593.713 906.686 593.713 906.041ZM602.115 920.314C602.115 918.451 602.484 916.775 603.223 915.287C603.961 913.787 604.998 912.639 606.334 911.842C607.67 911.033 609.205 910.629 610.939 910.629C613.506 910.629 615.586 911.455 617.18 913.107C618.785 914.76 619.652 916.951 619.781 919.682L619.799 920.684C619.799 922.559 619.436 924.234 618.709 925.711C617.994 927.188 616.963 928.33 615.615 929.139C614.279 929.947 612.732 930.352 610.975 930.352C608.291 930.352 606.141 929.461 604.523 927.68C602.918 925.887 602.115 923.502 602.115 920.525V920.314ZM606.387 920.684C606.387 922.641 606.791 924.176 607.6 925.289C608.408 926.391 609.533 926.941 610.975 926.941C612.416 926.941 613.535 926.379 614.332 925.254C615.141 924.129 615.545 922.482 615.545 920.314C615.545 918.393 615.129 916.869 614.297 915.744C613.477 914.619 612.357 914.057 610.939 914.057C609.545 914.057 608.438 914.613 607.617 915.727C606.797 916.828 606.387 918.48 606.387 920.684ZM627.375 910.98L627.498 913.178C628.904 911.479 630.75 910.629 633.035 910.629C636.996 910.629 639.012 912.896 639.082 917.432V930H634.811V917.678C634.811 916.471 634.547 915.58 634.02 915.006C633.504 914.42 632.654 914.127 631.471 914.127C629.748 914.127 628.465 914.906 627.621 916.465V930H623.35V910.98H627.375ZM651.615 920.314C651.615 918.451 651.984 916.775 652.723 915.287C653.461 913.787 654.498 912.639 655.834 911.842C657.17 911.033 658.705 910.629 660.439 910.629C663.006 910.629 665.086 911.455 666.68 913.107C668.285 914.76 669.152 916.951 669.281 919.682L669.299 920.684C669.299 922.559 668.936 924.234 668.209 925.711C667.494 927.188 666.463 928.33 665.115 929.139C663.779 929.947 662.232 930.352 660.475 930.352C657.791 930.352 655.641 929.461 654.023 927.68C652.418 925.887 651.615 923.502 651.615 920.525V920.314ZM655.887 920.684C655.887 922.641 656.291 924.176 657.1 925.289C657.908 926.391 659.033 926.941 660.475 926.941C661.916 926.941 663.035 926.379 663.832 925.254C664.641 924.129 665.045 922.482 665.045 920.314C665.045 918.393 664.629 916.869 663.797 915.744C662.977 914.619 661.857 914.057 660.439 914.057C659.045 914.057 657.938 914.613 657.117 915.727C656.297 916.828 655.887 918.48 655.887 920.684ZM676.875 910.98L676.998 913.178C678.404 911.479 680.25 910.629 682.535 910.629C686.496 910.629 688.512 912.896 688.582 917.432V930H684.311V917.678C684.311 916.471 684.047 915.58 683.52 915.006C683.004 914.42 682.154 914.127 680.971 914.127C679.248 914.127 677.965 914.906 677.121 916.465V930H672.85V910.98H676.875ZM502.025 963.668C501.768 966.398 500.76 968.531 499.002 970.066C497.244 971.59 494.906 972.352 491.988 972.352C489.949 972.352 488.15 971.871 486.592 970.91C485.045 969.938 483.85 968.561 483.006 966.779C482.162 964.998 481.723 962.93 481.688 960.574V958.184C481.688 955.77 482.115 953.643 482.971 951.803C483.826 949.963 485.051 948.545 486.645 947.549C488.25 946.553 490.102 946.055 492.199 946.055C495.023 946.055 497.297 946.822 499.02 948.357C500.742 949.893 501.744 952.061 502.025 954.861H497.596C497.385 953.021 496.846 951.697 495.979 950.889C495.123 950.068 493.863 949.658 492.199 949.658C490.266 949.658 488.777 950.367 487.734 951.785C486.703 953.191 486.176 955.26 486.152 957.99V960.258C486.152 963.023 486.645 965.133 487.629 966.586C488.625 968.039 490.078 968.766 491.988 968.766C493.734 968.766 495.047 968.373 495.926 967.588C496.805 966.803 497.361 965.496 497.596 963.668H502.025ZM509.812 955.055C511.207 953.438 512.971 952.629 515.104 952.629C519.158 952.629 521.215 954.943 521.273 959.572V972H517.002V959.73C517.002 958.418 516.715 957.492 516.141 956.953C515.578 956.402 514.746 956.127 513.645 956.127C511.934 956.127 510.656 956.889 509.812 958.412V972H505.541V945H509.812V955.055ZM536.971 972C536.783 971.637 536.619 971.045 536.479 970.225C535.119 971.643 533.455 972.352 531.486 972.352C529.576 972.352 528.018 971.807 526.811 970.717C525.604 969.627 525 968.279 525 966.674C525 964.646 525.75 963.094 527.25 962.016C528.762 960.926 530.918 960.381 533.719 960.381H536.338V959.133C536.338 958.148 536.062 957.363 535.512 956.777C534.961 956.18 534.123 955.881 532.998 955.881C532.025 955.881 531.229 956.127 530.607 956.619C529.986 957.1 529.676 957.715 529.676 958.465H525.404C525.404 957.422 525.75 956.449 526.441 955.547C527.133 954.633 528.07 953.918 529.254 953.402C530.449 952.887 531.779 952.629 533.244 952.629C535.471 952.629 537.246 953.191 538.57 954.316C539.895 955.43 540.574 957 540.609 959.027V967.605C540.609 969.316 540.85 970.682 541.33 971.701V972H536.971ZM532.277 968.924C533.121 968.924 533.912 968.719 534.65 968.309C535.4 967.898 535.963 967.348 536.338 966.656V963.07H534.035C532.453 963.07 531.264 963.346 530.467 963.896C529.67 964.447 529.271 965.227 529.271 966.234C529.271 967.055 529.541 967.711 530.08 968.203C530.631 968.684 531.363 968.924 532.277 968.924ZM549.047 952.98L549.17 955.178C550.576 953.479 552.422 952.629 554.707 952.629C558.668 952.629 560.684 954.896 560.754 959.432V972H556.482V959.678C556.482 958.471 556.219 957.58 555.691 957.006C555.176 956.42 554.326 956.127 553.143 956.127C551.42 956.127 550.137 956.906 549.293 958.465V972H545.021V952.98H549.047ZM564.375 962.35C564.375 959.396 565.066 957.041 566.449 955.283C567.844 953.514 569.689 952.629 571.986 952.629C574.154 952.629 575.859 953.385 577.102 954.896L577.295 952.98H581.145V971.42C581.145 973.916 580.365 975.885 578.807 977.326C577.26 978.768 575.168 979.488 572.531 979.488C571.137 979.488 569.771 979.195 568.436 978.609C567.111 978.035 566.104 977.279 565.412 976.342L567.434 973.775C568.746 975.334 570.363 976.113 572.285 976.113C573.703 976.113 574.822 975.727 575.643 974.953C576.463 974.191 576.873 973.066 576.873 971.578V970.295C575.643 971.666 574.002 972.352 571.951 972.352C569.725 972.352 567.902 971.467 566.484 969.697C565.078 967.928 564.375 965.479 564.375 962.35ZM568.629 962.719C568.629 964.629 569.016 966.135 569.789 967.236C570.574 968.326 571.658 968.871 573.041 968.871C574.764 968.871 576.041 968.133 576.873 966.656V958.289C576.064 956.848 574.799 956.127 573.076 956.127C571.67 956.127 570.574 956.684 569.789 957.797C569.016 958.91 568.629 960.551 568.629 962.719ZM593.924 972.352C591.217 972.352 589.02 971.502 587.332 969.803C585.656 968.092 584.818 965.818 584.818 962.982V962.455C584.818 960.557 585.182 958.863 585.908 957.375C586.646 955.875 587.678 954.709 589.002 953.877C590.326 953.045 591.803 952.629 593.432 952.629C596.021 952.629 598.02 953.455 599.426 955.107C600.844 956.76 601.553 959.098 601.553 962.121V963.844H589.125C589.254 965.414 589.775 966.656 590.689 967.57C591.615 968.484 592.775 968.941 594.17 968.941C596.127 968.941 597.721 968.15 598.951 966.568L601.254 968.766C600.492 969.902 599.473 970.787 598.195 971.42C596.93 972.041 595.506 972.352 593.924 972.352ZM593.414 956.057C592.242 956.057 591.293 956.467 590.566 957.287C589.852 958.107 589.395 959.25 589.195 960.715H597.334V960.398C597.24 958.969 596.859 957.891 596.191 957.164C595.523 956.426 594.598 956.057 593.414 956.057ZM615.545 966.832C615.545 966.07 615.229 965.49 614.596 965.092C613.975 964.693 612.938 964.342 611.484 964.037C610.031 963.732 608.818 963.346 607.846 962.877C605.713 961.846 604.646 960.352 604.646 958.395C604.646 956.754 605.338 955.383 606.721 954.281C608.104 953.18 609.861 952.629 611.994 952.629C614.268 952.629 616.102 953.191 617.496 954.316C618.902 955.441 619.605 956.9 619.605 958.693H615.334C615.334 957.873 615.029 957.193 614.42 956.654C613.811 956.104 613.002 955.828 611.994 955.828C611.057 955.828 610.289 956.045 609.691 956.479C609.105 956.912 608.812 957.492 608.812 958.219C608.812 958.875 609.088 959.385 609.639 959.748C610.189 960.111 611.303 960.48 612.979 960.855C614.654 961.219 615.967 961.658 616.916 962.174C617.877 962.678 618.586 963.287 619.043 964.002C619.512 964.717 619.746 965.584 619.746 966.604C619.746 968.314 619.037 969.703 617.619 970.77C616.201 971.824 614.344 972.352 612.047 972.352C610.488 972.352 609.1 972.07 607.881 971.508C606.662 970.945 605.713 970.172 605.033 969.188C604.354 968.203 604.014 967.143 604.014 966.006H608.162C608.221 967.014 608.602 967.793 609.305 968.344C610.008 968.883 610.939 969.152 612.1 969.152C613.225 969.152 614.08 968.941 614.666 968.52C615.252 968.086 615.545 967.523 615.545 966.832ZM636.99 972H632.719V952.98H636.99V972ZM632.455 948.041C632.455 947.385 632.66 946.84 633.07 946.406C633.492 945.973 634.09 945.756 634.863 945.756C635.637 945.756 636.234 945.973 636.656 946.406C637.078 946.84 637.289 947.385 637.289 948.041C637.289 948.686 637.078 949.225 636.656 949.658C636.234 950.08 635.637 950.291 634.863 950.291C634.09 950.291 633.492 950.08 633.07 949.658C632.66 949.225 632.455 948.686 632.455 948.041ZM645.621 952.98L645.744 955.178C647.15 953.479 648.996 952.629 651.281 952.629C655.242 952.629 657.258 954.896 657.328 959.432V972H653.057V959.678C653.057 958.471 652.793 957.58 652.266 957.006C651.75 956.42 650.9 956.127 649.717 956.127C647.994 956.127 646.711 956.906 645.867 958.465V972H641.596V952.98H645.621ZM531.504 1010.45H545.18V1014H526.125V1011.12L539.361 991.992H526.213V988.406H544.758V991.219L531.504 1010.45ZM547.412 1004.31C547.412 1002.45 547.781 1000.78 548.52 999.287C549.258 997.787 550.295 996.639 551.631 995.842C552.967 995.033 554.502 994.629 556.236 994.629C558.803 994.629 560.883 995.455 562.477 997.107C564.082 998.76 564.949 1000.95 565.078 1003.68L565.096 1004.68C565.096 1006.56 564.732 1008.23 564.006 1009.71C563.291 1011.19 562.26 1012.33 560.912 1013.14C559.576 1013.95 558.029 1014.35 556.271 1014.35C553.588 1014.35 551.438 1013.46 549.82 1011.68C548.215 1009.89 547.412 1007.5 547.412 1004.53V1004.31ZM551.684 1004.68C551.684 1006.64 552.088 1008.18 552.896 1009.29C553.705 1010.39 554.83 1010.94 556.271 1010.94C557.713 1010.94 558.832 1010.38 559.629 1009.25C560.438 1008.13 560.842 1006.48 560.842 1004.31C560.842 1002.39 560.426 1000.87 559.594 999.744C558.773 998.619 557.654 998.057 556.236 998.057C554.842 998.057 553.734 998.613 552.914 999.727C552.094 1000.83 551.684 1002.48 551.684 1004.68ZM572.672 994.98L572.795 997.178C574.201 995.479 576.047 994.629 578.332 994.629C582.293 994.629 584.309 996.896 584.379 1001.43V1014H580.107V1001.68C580.107 1000.47 579.844 999.58 579.316 999.006C578.801 998.42 577.951 998.127 576.768 998.127C575.045 998.127 573.762 998.906 572.918 1000.46V1014H568.646V994.98H572.672ZM597.123 1014.35C594.416 1014.35 592.219 1013.5 590.531 1011.8C588.855 1010.09 588.018 1007.82 588.018 1004.98V1004.46C588.018 1002.56 588.381 1000.86 589.107 999.375C589.846 997.875 590.877 996.709 592.201 995.877C593.525 995.045 595.002 994.629 596.631 994.629C599.221 994.629 601.219 995.455 602.625 997.107C604.043 998.76 604.752 1001.1 604.752 1004.12V1005.84H592.324C592.453 1007.41 592.975 1008.66 593.889 1009.57C594.814 1010.48 595.975 1010.94 597.369 1010.94C599.326 1010.94 600.92 1010.15 602.15 1008.57L604.453 1010.77C603.691 1011.9 602.672 1012.79 601.395 1013.42C600.129 1014.04 598.705 1014.35 597.123 1014.35ZM596.613 998.057C595.441 998.057 594.492 998.467 593.766 999.287C593.051 1000.11 592.594 1001.25 592.395 1002.71H600.533V1002.4C600.439 1000.97 600.059 999.891 599.391 999.164C598.723 998.426 597.797 998.057 596.613 998.057Z" fill="#FCFCFC"/>
<path d="M443.078 1195.41H447.508V1213.35C447.508 1215.8 446.74 1217.75 445.205 1219.19C443.682 1220.63 441.666 1221.35 439.158 1221.35C436.486 1221.35 434.424 1220.68 432.971 1219.33C431.518 1217.98 430.791 1216.11 430.791 1213.71H435.221C435.221 1215.06 435.555 1216.09 436.223 1216.78C436.902 1217.46 437.881 1217.8 439.158 1217.8C440.354 1217.8 441.303 1217.41 442.006 1216.62C442.721 1215.83 443.078 1214.73 443.078 1213.34V1195.41ZM451.393 1211.31C451.393 1209.45 451.762 1207.78 452.5 1206.29C453.238 1204.79 454.275 1203.64 455.611 1202.84C456.947 1202.03 458.482 1201.63 460.217 1201.63C462.783 1201.63 464.863 1202.46 466.457 1204.11C468.062 1205.76 468.93 1207.95 469.059 1210.68L469.076 1211.68C469.076 1213.56 468.713 1215.23 467.986 1216.71C467.271 1218.19 466.24 1219.33 464.893 1220.14C463.557 1220.95 462.01 1221.35 460.252 1221.35C457.568 1221.35 455.418 1220.46 453.801 1218.68C452.195 1216.89 451.393 1214.5 451.393 1211.53V1211.31ZM455.664 1211.68C455.664 1213.64 456.068 1215.18 456.877 1216.29C457.686 1217.39 458.811 1217.94 460.252 1217.94C461.693 1217.94 462.812 1217.38 463.609 1216.25C464.418 1215.13 464.822 1213.48 464.822 1211.31C464.822 1209.39 464.406 1207.87 463.574 1206.74C462.754 1205.62 461.635 1205.06 460.217 1205.06C458.822 1205.06 457.715 1205.61 456.895 1206.73C456.074 1207.83 455.664 1209.48 455.664 1211.68ZM484.211 1219.14C482.957 1220.61 481.176 1221.35 478.867 1221.35C476.805 1221.35 475.24 1220.75 474.174 1219.54C473.119 1218.33 472.592 1216.59 472.592 1214.3V1201.98H476.863V1214.25C476.863 1216.66 477.865 1217.87 479.869 1217.87C481.943 1217.87 483.344 1217.13 484.07 1215.64V1201.98H488.342V1221H484.316L484.211 1219.14ZM502.65 1205.88C502.088 1205.79 501.508 1205.74 500.91 1205.74C498.953 1205.74 497.635 1206.49 496.955 1207.99V1221H492.684V1201.98H496.762L496.867 1204.11C497.898 1202.46 499.328 1201.63 501.156 1201.63C501.766 1201.63 502.27 1201.71 502.668 1201.88L502.65 1205.88ZM509.312 1201.98L509.436 1204.18C510.842 1202.48 512.688 1201.63 514.973 1201.63C518.934 1201.63 520.949 1203.9 521.02 1208.43V1221H516.748V1208.68C516.748 1207.47 516.484 1206.58 515.957 1206.01C515.441 1205.42 514.592 1205.13 513.408 1205.13C511.686 1205.13 510.402 1205.91 509.559 1207.46V1221H505.287V1201.98H509.312ZM533.764 1221.35C531.057 1221.35 528.859 1220.5 527.172 1218.8C525.496 1217.09 524.658 1214.82 524.658 1211.98V1211.46C524.658 1209.56 525.021 1207.86 525.748 1206.38C526.486 1204.88 527.518 1203.71 528.842 1202.88C530.166 1202.04 531.643 1201.63 533.271 1201.63C535.861 1201.63 537.859 1202.46 539.266 1204.11C540.684 1205.76 541.393 1208.1 541.393 1211.12V1212.84H528.965C529.094 1214.41 529.615 1215.66 530.529 1216.57C531.455 1217.48 532.615 1217.94 534.01 1217.94C535.967 1217.94 537.561 1217.15 538.791 1215.57L541.094 1217.77C540.332 1218.9 539.312 1219.79 538.035 1220.42C536.77 1221.04 535.346 1221.35 533.764 1221.35ZM533.254 1205.06C532.082 1205.06 531.133 1205.47 530.406 1206.29C529.691 1207.11 529.234 1208.25 529.035 1209.71H537.174V1209.4C537.08 1207.97 536.699 1206.89 536.031 1206.16C535.363 1205.43 534.438 1205.06 533.254 1205.06ZM551.131 1214.88L554.998 1201.98H559.551L551.992 1223.88C550.832 1227.08 548.863 1228.68 546.086 1228.68C545.465 1228.68 544.779 1228.58 544.029 1228.37V1225.06L544.838 1225.11C545.916 1225.11 546.725 1224.91 547.264 1224.52C547.814 1224.13 548.248 1223.47 548.564 1222.55L549.18 1220.91L542.5 1201.98H547.105L551.131 1214.88ZM590.928 1212.67C590.67 1215.4 589.662 1217.53 587.904 1219.07C586.146 1220.59 583.809 1221.35 580.891 1221.35C578.852 1221.35 577.053 1220.87 575.494 1219.91C573.947 1218.94 572.752 1217.56 571.908 1215.78C571.064 1214 570.625 1211.93 570.59 1209.57V1207.18C570.59 1204.77 571.018 1202.64 571.873 1200.8C572.729 1198.96 573.953 1197.54 575.547 1196.55C577.152 1195.55 579.004 1195.05 581.102 1195.05C583.926 1195.05 586.199 1195.82 587.922 1197.36C589.645 1198.89 590.646 1201.06 590.928 1203.86H586.498C586.287 1202.02 585.748 1200.7 584.881 1199.89C584.025 1199.07 582.766 1198.66 581.102 1198.66C579.168 1198.66 577.68 1199.37 576.637 1200.79C575.605 1202.19 575.078 1204.26 575.055 1206.99V1209.26C575.055 1212.02 575.547 1214.13 576.531 1215.59C577.527 1217.04 578.98 1217.77 580.891 1217.77C582.637 1217.77 583.949 1217.37 584.828 1216.59C585.707 1215.8 586.264 1214.5 586.498 1212.67H590.928ZM593.705 1211.31C593.705 1209.45 594.074 1207.78 594.812 1206.29C595.551 1204.79 596.588 1203.64 597.924 1202.84C599.26 1202.03 600.795 1201.63 602.529 1201.63C605.096 1201.63 607.176 1202.46 608.77 1204.11C610.375 1205.76 611.242 1207.95 611.371 1210.68L611.389 1211.68C611.389 1213.56 611.025 1215.23 610.299 1216.71C609.584 1218.19 608.553 1219.33 607.205 1220.14C605.869 1220.95 604.322 1221.35 602.564 1221.35C599.881 1221.35 597.73 1220.46 596.113 1218.68C594.508 1216.89 593.705 1214.5 593.705 1211.53V1211.31ZM597.977 1211.68C597.977 1213.64 598.381 1215.18 599.189 1216.29C599.998 1217.39 601.123 1217.94 602.564 1217.94C604.006 1217.94 605.125 1217.38 605.922 1216.25C606.73 1215.13 607.135 1213.48 607.135 1211.31C607.135 1209.39 606.719 1207.87 605.887 1206.74C605.066 1205.62 603.947 1205.06 602.529 1205.06C601.135 1205.06 600.027 1205.61 599.207 1206.73C598.387 1207.83 597.977 1209.48 597.977 1211.68ZM619.018 1201.98L619.141 1203.97C620.477 1202.41 622.305 1201.63 624.625 1201.63C627.168 1201.63 628.908 1202.6 629.846 1204.55C631.229 1202.6 633.174 1201.63 635.682 1201.63C637.779 1201.63 639.338 1202.21 640.357 1203.37C641.389 1204.53 641.916 1206.24 641.939 1208.5V1221H637.668V1208.62C637.668 1207.42 637.404 1206.53 636.877 1205.97C636.35 1205.41 635.477 1205.13 634.258 1205.13C633.285 1205.13 632.488 1205.39 631.867 1205.92C631.258 1206.43 630.83 1207.11 630.584 1207.96L630.602 1221H626.33V1208.48C626.271 1206.25 625.129 1205.13 622.902 1205.13C621.191 1205.13 619.979 1205.82 619.264 1207.22V1221H614.992V1201.98H619.018ZM662.98 1211.68C662.98 1214.62 662.312 1216.97 660.977 1218.73C659.641 1220.48 657.848 1221.35 655.598 1221.35C653.512 1221.35 651.842 1220.67 650.588 1219.29V1228.31H646.316V1201.98H650.254L650.43 1203.91C651.684 1202.39 653.389 1201.63 655.545 1201.63C657.865 1201.63 659.682 1202.5 660.994 1204.23C662.318 1205.95 662.98 1208.35 662.98 1211.42V1211.68ZM658.727 1211.31C658.727 1209.42 658.346 1207.91 657.584 1206.8C656.834 1205.68 655.756 1205.13 654.35 1205.13C652.604 1205.13 651.35 1205.85 650.588 1207.29V1215.73C651.361 1217.2 652.627 1217.94 654.385 1217.94C655.744 1217.94 656.805 1217.4 657.566 1216.31C658.34 1215.21 658.727 1213.54 658.727 1211.31ZM671.154 1221H666.883V1194H671.154V1221ZM684.197 1221.35C681.49 1221.35 679.293 1220.5 677.605 1218.8C675.93 1217.09 675.092 1214.82 675.092 1211.98V1211.46C675.092 1209.56 675.455 1207.86 676.182 1206.38C676.92 1204.88 677.951 1203.71 679.275 1202.88C680.6 1202.04 682.076 1201.63 683.705 1201.63C686.295 1201.63 688.293 1202.46 689.699 1204.11C691.117 1205.76 691.826 1208.1 691.826 1211.12V1212.84H679.398C679.527 1214.41 680.049 1215.66 680.963 1216.57C681.889 1217.48 683.049 1217.94 684.443 1217.94C686.4 1217.94 687.994 1217.15 689.225 1215.57L691.527 1217.77C690.766 1218.9 689.746 1219.79 688.469 1220.42C687.203 1221.04 685.779 1221.35 684.197 1221.35ZM683.688 1205.06C682.516 1205.06 681.566 1205.47 680.84 1206.29C680.125 1207.11 679.668 1208.25 679.469 1209.71H687.607V1209.4C687.514 1207.97 687.133 1206.89 686.465 1206.16C685.797 1205.43 684.871 1205.06 683.688 1205.06ZM700.51 1197.36V1201.98H703.867V1205.14H700.51V1215.76C700.51 1216.49 700.65 1217.02 700.932 1217.34C701.225 1217.66 701.74 1217.82 702.479 1217.82C702.971 1217.82 703.469 1217.76 703.973 1217.64V1220.95C703 1221.22 702.062 1221.35 701.16 1221.35C697.879 1221.35 696.238 1219.54 696.238 1215.92V1205.14H693.109V1201.98H696.238V1197.36H700.51ZM715.521 1221.35C712.814 1221.35 710.617 1220.5 708.93 1218.8C707.254 1217.09 706.416 1214.82 706.416 1211.98V1211.46C706.416 1209.56 706.779 1207.86 707.506 1206.38C708.244 1204.88 709.275 1203.71 710.6 1202.88C711.924 1202.04 713.4 1201.63 715.029 1201.63C717.619 1201.63 719.617 1202.46 721.023 1204.11C722.441 1205.76 723.15 1208.1 723.15 1211.12V1212.84H710.723C710.852 1214.41 711.373 1215.66 712.287 1216.57C713.213 1217.48 714.373 1217.94 715.768 1217.94C717.725 1217.94 719.318 1217.15 720.549 1215.57L722.852 1217.77C722.09 1218.9 721.07 1219.79 719.793 1220.42C718.527 1221.04 717.104 1221.35 715.521 1221.35ZM715.012 1205.06C713.84 1205.06 712.891 1205.47 712.164 1206.29C711.449 1207.11 710.992 1208.25 710.793 1209.71H718.932V1209.4C718.838 1207.97 718.457 1206.89 717.789 1206.16C717.121 1205.43 716.195 1205.06 715.012 1205.06Z" fill="#FCFCFC"/>
<path d="M1278.64 555.832C1278.64 555.07 1278.32 554.49 1277.69 554.092C1277.07 553.693 1276.03 553.342 1274.58 553.037C1273.12 552.732 1271.91 552.346 1270.94 551.877C1268.81 550.846 1267.74 549.352 1267.74 547.395C1267.74 545.754 1268.43 544.383 1269.81 543.281C1271.2 542.18 1272.96 541.629 1275.09 541.629C1277.36 541.629 1279.2 542.191 1280.59 543.316C1282 544.441 1282.7 545.9 1282.7 547.693H1278.43C1278.43 546.873 1278.12 546.193 1277.51 545.654C1276.9 545.104 1276.1 544.828 1275.09 544.828C1274.15 544.828 1273.38 545.045 1272.79 545.479C1272.2 545.912 1271.91 546.492 1271.91 547.219C1271.91 547.875 1272.18 548.385 1272.73 548.748C1273.28 549.111 1274.4 549.48 1276.07 549.855C1277.75 550.219 1279.06 550.658 1280.01 551.174C1280.97 551.678 1281.68 552.287 1282.14 553.002C1282.61 553.717 1282.84 554.584 1282.84 555.604C1282.84 557.314 1282.13 558.703 1280.71 559.77C1279.29 560.824 1277.44 561.352 1275.14 561.352C1273.58 561.352 1272.19 561.07 1270.97 560.508C1269.76 559.945 1268.81 559.172 1268.13 558.188C1267.45 557.203 1267.11 556.143 1267.11 555.006H1271.26C1271.31 556.014 1271.7 556.793 1272.4 557.344C1273.1 557.883 1274.03 558.152 1275.19 558.152C1276.32 558.152 1277.17 557.941 1277.76 557.52C1278.35 557.086 1278.64 556.523 1278.64 555.832ZM1294.95 561.352C1292.24 561.352 1290.05 560.502 1288.36 558.803C1286.68 557.092 1285.85 554.818 1285.85 551.982V551.455C1285.85 549.557 1286.21 547.863 1286.94 546.375C1287.67 544.875 1288.71 543.709 1290.03 542.877C1291.35 542.045 1292.83 541.629 1294.46 541.629C1297.05 541.629 1299.05 542.455 1300.45 544.107C1301.87 545.76 1302.58 548.098 1302.58 551.121V552.844H1290.15C1290.28 554.414 1290.8 555.656 1291.72 556.57C1292.64 557.484 1293.8 557.941 1295.2 557.941C1297.15 557.941 1298.75 557.15 1299.98 555.568L1302.28 557.766C1301.52 558.902 1300.5 559.787 1299.22 560.42C1297.96 561.041 1296.53 561.352 1294.95 561.352ZM1294.44 545.057C1293.27 545.057 1292.32 545.467 1291.59 546.287C1290.88 547.107 1290.42 548.25 1290.22 549.715H1298.36V549.398C1298.27 547.969 1297.89 546.891 1297.22 546.164C1296.55 545.426 1295.62 545.057 1294.44 545.057ZM1314.29 561.352C1311.58 561.352 1309.38 560.502 1307.7 558.803C1306.02 557.092 1305.18 554.818 1305.18 551.982V551.455C1305.18 549.557 1305.54 547.863 1306.27 546.375C1307.01 544.875 1308.04 543.709 1309.37 542.877C1310.69 542.045 1312.17 541.629 1313.79 541.629C1316.38 541.629 1318.38 542.455 1319.79 544.107C1321.21 545.76 1321.92 548.098 1321.92 551.121V552.844H1309.49C1309.62 554.414 1310.14 555.656 1311.05 556.57C1311.98 557.484 1313.14 557.941 1314.53 557.941C1316.49 557.941 1318.08 557.15 1319.31 555.568L1321.62 557.766C1320.86 558.902 1319.84 559.787 1318.56 560.42C1317.29 561.041 1315.87 561.352 1314.29 561.352ZM1313.78 545.057C1312.61 545.057 1311.66 545.467 1310.93 546.287C1310.21 547.107 1309.76 548.25 1309.56 549.715H1317.7V549.398C1317.6 547.969 1317.22 546.891 1316.55 546.164C1315.89 545.426 1314.96 545.057 1313.78 545.057ZM1344.17 545.883C1343.61 545.789 1343.03 545.742 1342.43 545.742C1340.47 545.742 1339.15 546.492 1338.47 547.992V561H1334.2V541.98H1338.28L1338.39 544.107C1339.42 542.455 1340.85 541.629 1342.68 541.629C1343.29 541.629 1343.79 541.711 1344.19 541.875L1344.17 545.883ZM1358.39 559.137C1357.14 560.613 1355.36 561.352 1353.05 561.352C1350.98 561.352 1349.42 560.748 1348.35 559.541C1347.3 558.334 1346.77 556.588 1346.77 554.303V541.98H1351.04V554.25C1351.04 556.664 1352.04 557.871 1354.05 557.871C1356.12 557.871 1357.52 557.127 1358.25 555.639V541.98H1362.52V561H1358.5L1358.39 559.137ZM1371.42 561H1367.14V534H1371.42V561ZM1384.46 561.352C1381.75 561.352 1379.55 560.502 1377.87 558.803C1376.19 557.092 1375.35 554.818 1375.35 551.982V551.455C1375.35 549.557 1375.72 547.863 1376.44 546.375C1377.18 544.875 1378.21 543.709 1379.54 542.877C1380.86 542.045 1382.34 541.629 1383.97 541.629C1386.56 541.629 1388.55 542.455 1389.96 544.107C1391.38 545.76 1392.09 548.098 1392.09 551.121V552.844H1379.66C1379.79 554.414 1380.31 555.656 1381.22 556.57C1382.15 557.484 1383.31 557.941 1384.71 557.941C1386.66 557.941 1388.26 557.15 1389.49 555.568L1391.79 557.766C1391.03 558.902 1390.01 559.787 1388.73 560.42C1387.46 561.041 1386.04 561.352 1384.46 561.352ZM1383.95 545.057C1382.78 545.057 1381.83 545.467 1381.1 546.287C1380.39 547.107 1379.93 548.25 1379.73 549.715H1387.87V549.398C1387.78 547.969 1387.39 546.891 1386.73 546.164C1386.06 545.426 1385.13 545.057 1383.95 545.057ZM1406.08 555.832C1406.08 555.07 1405.76 554.49 1405.13 554.092C1404.51 553.693 1403.47 553.342 1402.02 553.037C1400.57 552.732 1399.35 552.346 1398.38 551.877C1396.25 550.846 1395.18 549.352 1395.18 547.395C1395.18 545.754 1395.87 544.383 1397.26 543.281C1398.64 542.18 1400.4 541.629 1402.53 541.629C1404.8 541.629 1406.64 542.191 1408.03 543.316C1409.44 544.441 1410.14 545.9 1410.14 547.693H1405.87C1405.87 546.873 1405.56 546.193 1404.96 545.654C1404.35 545.104 1403.54 544.828 1402.53 544.828C1401.59 544.828 1400.82 545.045 1400.23 545.479C1399.64 545.912 1399.35 546.492 1399.35 547.219C1399.35 547.875 1399.62 548.385 1400.17 548.748C1400.72 549.111 1401.84 549.48 1403.51 549.855C1405.19 550.219 1406.5 550.658 1407.45 551.174C1408.41 551.678 1409.12 552.287 1409.58 553.002C1410.05 553.717 1410.28 554.584 1410.28 555.604C1410.28 557.314 1409.57 558.703 1408.15 559.77C1406.74 560.824 1404.88 561.352 1402.58 561.352C1401.02 561.352 1399.63 561.07 1398.42 560.508C1397.2 559.945 1396.25 559.172 1395.57 558.188C1394.89 557.203 1394.55 556.143 1394.55 555.006H1398.7C1398.76 556.014 1399.14 556.793 1399.84 557.344C1400.54 557.883 1401.47 558.152 1402.63 558.152C1403.76 558.152 1404.62 557.941 1405.2 557.52C1405.79 557.086 1406.08 556.523 1406.08 555.832ZM1234.52 603C1234.33 602.637 1234.17 602.045 1234.03 601.225C1232.67 602.643 1231 603.352 1229.03 603.352C1227.12 603.352 1225.56 602.807 1224.36 601.717C1223.15 600.627 1222.55 599.279 1222.55 597.674C1222.55 595.646 1223.3 594.094 1224.8 593.016C1226.31 591.926 1228.46 591.381 1231.27 591.381H1233.88V590.133C1233.88 589.148 1233.61 588.363 1233.06 587.777C1232.51 587.18 1231.67 586.881 1230.54 586.881C1229.57 586.881 1228.78 587.127 1228.15 587.619C1227.53 588.1 1227.22 588.715 1227.22 589.465H1222.95C1222.95 588.422 1223.3 587.449 1223.99 586.547C1224.68 585.633 1225.62 584.918 1226.8 584.402C1228 583.887 1229.33 583.629 1230.79 583.629C1233.02 583.629 1234.79 584.191 1236.12 585.316C1237.44 586.43 1238.12 588 1238.16 590.027V598.605C1238.16 600.316 1238.4 601.682 1238.88 602.701V603H1234.52ZM1229.82 599.924C1230.67 599.924 1231.46 599.719 1232.2 599.309C1232.95 598.898 1233.51 598.348 1233.88 597.656V594.07H1231.58C1230 594.07 1228.81 594.346 1228.01 594.896C1227.22 595.447 1226.82 596.227 1226.82 597.234C1226.82 598.055 1227.09 598.711 1227.63 599.203C1228.18 599.684 1228.91 599.924 1229.82 599.924ZM1246.59 583.98L1246.72 586.178C1248.12 584.479 1249.97 583.629 1252.25 583.629C1256.21 583.629 1258.23 585.896 1258.3 590.432V603H1254.03V590.678C1254.03 589.471 1253.77 588.58 1253.24 588.006C1252.72 587.42 1251.87 587.127 1250.69 587.127C1248.97 587.127 1247.68 587.906 1246.84 589.465V603H1242.57V583.98H1246.59ZM1261.87 593.35C1261.87 590.42 1262.55 588.07 1263.91 586.301C1265.27 584.52 1267.09 583.629 1269.38 583.629C1271.39 583.629 1273.02 584.332 1274.26 585.738V576H1278.53V603H1274.67L1274.46 601.031C1273.18 602.578 1271.47 603.352 1269.34 603.352C1267.11 603.352 1265.31 602.455 1263.93 600.662C1262.55 598.869 1261.87 596.432 1261.87 593.35ZM1266.14 593.719C1266.14 595.652 1266.51 597.164 1267.25 598.254C1268 599.332 1269.06 599.871 1270.43 599.871C1272.18 599.871 1273.45 599.092 1274.26 597.533V589.412C1273.48 587.889 1272.21 587.127 1270.46 587.127C1269.08 587.127 1268.02 587.678 1267.27 588.779C1266.52 589.869 1266.14 591.516 1266.14 593.719ZM1301.91 587.883C1301.35 587.789 1300.77 587.742 1300.17 587.742C1298.21 587.742 1296.9 588.492 1296.22 589.992V603H1291.95V583.98H1296.02L1296.13 586.107C1297.16 584.455 1298.59 583.629 1300.42 583.629C1301.03 583.629 1301.53 583.711 1301.93 583.875L1301.91 587.883ZM1312.63 603.352C1309.93 603.352 1307.73 602.502 1306.04 600.803C1304.37 599.092 1303.53 596.818 1303.53 593.982V593.455C1303.53 591.557 1303.89 589.863 1304.62 588.375C1305.36 586.875 1306.39 585.709 1307.71 584.877C1309.04 584.045 1310.51 583.629 1312.14 583.629C1314.73 583.629 1316.73 584.455 1318.14 586.107C1319.55 587.76 1320.26 590.098 1320.26 593.121V594.844H1307.84C1307.96 596.414 1308.49 597.656 1309.4 598.57C1310.33 599.484 1311.49 599.941 1312.88 599.941C1314.84 599.941 1316.43 599.15 1317.66 597.568L1319.96 599.766C1319.2 600.902 1318.18 601.787 1316.91 602.42C1315.64 603.041 1314.22 603.352 1312.63 603.352ZM1312.12 587.057C1310.95 587.057 1310 587.467 1309.28 588.287C1308.56 589.107 1308.11 590.25 1307.91 591.715H1316.04V591.398C1315.95 589.969 1315.57 588.891 1314.9 588.164C1314.23 587.426 1313.31 587.057 1312.12 587.057ZM1322.85 593.35C1322.85 590.396 1323.54 588.041 1324.92 586.283C1326.32 584.514 1328.16 583.629 1330.46 583.629C1332.63 583.629 1334.33 584.385 1335.57 585.896L1335.77 583.98H1339.62V602.42C1339.62 604.916 1338.84 606.885 1337.28 608.326C1335.73 609.768 1333.64 610.488 1331 610.488C1329.61 610.488 1328.24 610.195 1326.91 609.609C1325.58 609.035 1324.58 608.279 1323.88 607.342L1325.91 604.775C1327.22 606.334 1328.84 607.113 1330.76 607.113C1332.18 607.113 1333.29 606.727 1334.12 605.953C1334.94 605.191 1335.35 604.066 1335.35 602.578V601.295C1334.12 602.666 1332.47 603.352 1330.42 603.352C1328.2 603.352 1326.38 602.467 1324.96 600.697C1323.55 598.928 1322.85 596.479 1322.85 593.35ZM1327.1 593.719C1327.1 595.629 1327.49 597.135 1328.26 598.236C1329.05 599.326 1330.13 599.871 1331.51 599.871C1333.24 599.871 1334.51 599.133 1335.35 597.656V589.289C1334.54 587.848 1333.27 587.127 1331.55 587.127C1330.14 587.127 1329.05 587.684 1328.26 588.797C1327.49 589.91 1327.1 591.551 1327.1 593.719ZM1355.54 601.137C1354.29 602.613 1352.51 603.352 1350.2 603.352C1348.14 603.352 1346.57 602.748 1345.51 601.541C1344.45 600.334 1343.92 598.588 1343.92 596.303V583.98H1348.2V596.25C1348.2 598.664 1349.2 599.871 1351.2 599.871C1353.28 599.871 1354.68 599.127 1355.4 597.639V583.98H1359.67V603H1355.65L1355.54 601.137ZM1368.57 603H1364.3V576H1368.57V603ZM1384.6 603C1384.41 602.637 1384.25 602.045 1384.11 601.225C1382.75 602.643 1381.08 603.352 1379.12 603.352C1377.21 603.352 1375.65 602.807 1374.44 601.717C1373.23 600.627 1372.63 599.279 1372.63 597.674C1372.63 595.646 1373.38 594.094 1374.88 593.016C1376.39 591.926 1378.55 591.381 1381.35 591.381H1383.97V590.133C1383.97 589.148 1383.69 588.363 1383.14 587.777C1382.59 587.18 1381.75 586.881 1380.63 586.881C1379.65 586.881 1378.86 587.127 1378.24 587.619C1377.62 588.1 1377.3 588.715 1377.3 589.465H1373.03C1373.03 588.422 1373.38 587.449 1374.07 586.547C1374.76 585.633 1375.7 584.918 1376.88 584.402C1378.08 583.887 1379.41 583.629 1380.87 583.629C1383.1 583.629 1384.88 584.191 1386.2 585.316C1387.52 586.43 1388.2 588 1388.24 590.027V598.605C1388.24 600.316 1388.48 601.682 1388.96 602.701V603H1384.6ZM1379.91 599.924C1380.75 599.924 1381.54 599.719 1382.28 599.309C1383.03 598.898 1383.59 598.348 1383.97 597.656V594.07H1381.66C1380.08 594.07 1378.89 594.346 1378.1 594.896C1377.3 595.447 1376.9 596.227 1376.9 597.234C1376.9 598.055 1377.17 598.711 1377.71 599.203C1378.26 599.684 1378.99 599.924 1379.91 599.924ZM1398.06 579.357V583.98H1401.42V587.145H1398.06V597.762C1398.06 598.488 1398.21 599.016 1398.49 599.344C1398.78 599.66 1399.29 599.818 1400.03 599.818C1400.53 599.818 1401.02 599.76 1401.53 599.643V602.947C1400.55 603.217 1399.62 603.352 1398.71 603.352C1395.43 603.352 1393.79 601.541 1393.79 597.92V587.145H1390.66V583.98H1393.79V579.357H1398.06ZM1409.24 603H1404.97V583.98H1409.24V603ZM1404.71 579.041C1404.71 578.385 1404.91 577.84 1405.32 577.406C1405.75 576.973 1406.34 576.756 1407.12 576.756C1407.89 576.756 1408.49 576.973 1408.91 577.406C1409.33 577.84 1409.54 578.385 1409.54 579.041C1409.54 579.686 1409.33 580.225 1408.91 580.658C1408.49 581.08 1407.89 581.291 1407.12 581.291C1406.34 581.291 1405.75 581.08 1405.32 580.658C1404.91 580.225 1404.71 579.686 1404.71 579.041ZM1413.11 593.314C1413.11 591.451 1413.48 589.775 1414.22 588.287C1414.96 586.787 1415.99 585.639 1417.33 584.842C1418.67 584.033 1420.2 583.629 1421.94 583.629C1424.5 583.629 1426.58 584.455 1428.18 586.107C1429.78 587.76 1430.65 589.951 1430.78 592.682L1430.79 593.684C1430.79 595.559 1430.43 597.234 1429.71 598.711C1428.99 600.188 1427.96 601.33 1426.61 602.139C1425.28 602.947 1423.73 603.352 1421.97 603.352C1419.29 603.352 1417.14 602.461 1415.52 600.68C1413.91 598.887 1413.11 596.502 1413.11 593.525V593.314ZM1417.38 593.684C1417.38 595.641 1417.79 597.176 1418.6 598.289C1419.4 599.391 1420.53 599.941 1421.97 599.941C1423.41 599.941 1424.53 599.379 1425.33 598.254C1426.14 597.129 1426.54 595.482 1426.54 593.314C1426.54 591.393 1426.12 589.869 1425.29 588.744C1424.47 587.619 1423.35 587.057 1421.94 587.057C1420.54 587.057 1419.43 587.613 1418.61 588.727C1417.79 589.828 1417.38 591.48 1417.38 593.684ZM1438.37 583.98L1438.49 586.178C1439.9 584.479 1441.75 583.629 1444.03 583.629C1447.99 583.629 1450.01 585.896 1450.08 590.432V603H1445.81V590.678C1445.81 589.471 1445.54 588.58 1445.02 588.006C1444.5 587.42 1443.65 587.127 1442.47 587.127C1440.74 587.127 1439.46 587.906 1438.62 589.465V603H1434.35V583.98H1438.37ZM1465.11 597.832C1465.11 597.07 1464.79 596.49 1464.16 596.092C1463.54 595.693 1462.5 595.342 1461.05 595.037C1459.59 594.732 1458.38 594.346 1457.41 593.877C1455.28 592.846 1454.21 591.352 1454.21 589.395C1454.21 587.754 1454.9 586.383 1456.28 585.281C1457.67 584.18 1459.42 583.629 1461.56 583.629C1463.83 583.629 1465.66 584.191 1467.06 585.316C1468.46 586.441 1469.17 587.9 1469.17 589.693H1464.9C1464.9 588.873 1464.59 588.193 1463.98 587.654C1463.37 587.104 1462.56 586.828 1461.56 586.828C1460.62 586.828 1459.85 587.045 1459.25 587.479C1458.67 587.912 1458.38 588.492 1458.38 589.219C1458.38 589.875 1458.65 590.385 1459.2 590.748C1459.75 591.111 1460.87 591.48 1462.54 591.855C1464.22 592.219 1465.53 592.658 1466.48 593.174C1467.44 593.678 1468.15 594.287 1468.61 595.002C1469.07 595.717 1469.31 596.584 1469.31 597.604C1469.31 599.314 1468.6 600.703 1467.18 601.77C1465.76 602.824 1463.91 603.352 1461.61 603.352C1460.05 603.352 1458.66 603.07 1457.44 602.508C1456.22 601.945 1455.28 601.172 1454.6 600.188C1453.92 599.203 1453.58 598.143 1453.58 597.006H1457.72C1457.78 598.014 1458.16 598.793 1458.87 599.344C1459.57 599.883 1460.5 600.152 1461.66 600.152C1462.79 600.152 1463.64 599.941 1464.23 599.52C1464.81 599.086 1465.11 598.523 1465.11 597.832Z" fill="#FCFCFC"/>
<line x1="569" y1="570.989" x2="569" y2="660.011" stroke="#FCFCFC" stroke-width="2"/>
<line x1="568" y1="758" x2="568" y2="847.022" stroke="#FCFCFC" stroke-width="2"/>
<line x1="1342" y1="684" x2="1342" y2="1230" stroke="#FCFCFC" stroke-width="2"/>
<line x1="568" y1="1061" x2="568" y2="1150.02" stroke="#FCFCFC" stroke-width="2"/>
<path d="M580 649L568 661L556 649" stroke="#FCFCFC" stroke-width="2"/>
<path d="M580 836L568 848L556 836" stroke="#FCFCFC" stroke-width="2"/>
<path d="M1353 1219.54L1341 1232.59L1329 1219.54" stroke="#FCFCFC" stroke-width="2"/>
<path d="M580 1137L568 1149L556 1137" stroke="#FCFCFC" stroke-width="2"/>
<path d="M1064 1208H1114C1130.57 1208 1144 1221.43 1144 1238V1258C1144 1274.57 1157.43 1288 1174 1288H1224" stroke="#FCFCFC" stroke-width="2"/>
<path d="M1201 1264L1225 1288L1201 1312" stroke="#FCFCFC" stroke-width="2"/>
<circle cx="1064" cy="1208" r="5" transform="rotate(-180 1064 1208)" fill="#FCFCFC"/>
<line x1="760" y1="1207.5" x2="1064" y2="1207.5" stroke="#FCFCFC" stroke-width="3"/>
<path d="M754.5 360C754.5 390.603 728.806 415.5 697 415.5C665.194 415.5 639.5 390.603 639.5 360C639.5 329.397 665.194 304.5 697 304.5C728.806 304.5 754.5 329.397 754.5 360Z" fill="white" stroke="black" stroke-width="3"/>
<path d="M1247.5 360C1247.5 390.603 1221.81 415.5 1190 415.5C1158.19 415.5 1132.5 390.603 1132.5 360C1132.5 329.397 1158.19 304.5 1190 304.5C1221.81 304.5 1247.5 329.397 1247.5 360Z" fill="white" stroke="black" stroke-width="3"/>
<path d="M678.955 365.236L683.385 350.98H686.865L679.219 372.936C678.035 376.1 676.154 377.682 673.576 377.682L672.961 377.629L671.748 377.4V374.764L672.627 374.834C673.729 374.834 674.584 374.611 675.193 374.166C675.814 373.721 676.324 372.906 676.723 371.723L677.443 369.789L670.658 350.98H674.209L678.955 365.236ZM697.43 370.352C694.852 370.352 692.754 369.508 691.137 367.82C689.52 366.121 688.711 363.854 688.711 361.018V360.42C688.711 358.533 689.068 356.852 689.783 355.375C690.51 353.887 691.518 352.727 692.807 351.895C694.107 351.051 695.514 350.629 697.025 350.629C699.498 350.629 701.42 351.443 702.791 353.072C704.162 354.701 704.848 357.033 704.848 360.068V361.422H691.963C692.01 363.297 692.555 364.814 693.598 365.975C694.652 367.123 695.988 367.697 697.605 367.697C698.754 367.697 699.727 367.463 700.523 366.994C701.32 366.525 702.018 365.904 702.615 365.131L704.602 366.678C703.008 369.127 700.617 370.352 697.43 370.352ZM697.025 353.301C695.713 353.301 694.611 353.781 693.721 354.742C692.83 355.691 692.279 357.027 692.068 358.75H701.596V358.504C701.502 356.852 701.057 355.574 700.26 354.672C699.463 353.758 698.385 353.301 697.025 353.301ZM719.701 364.955C719.701 364.076 719.367 363.396 718.699 362.916C718.043 362.424 716.889 362.002 715.236 361.65C713.596 361.299 712.289 360.877 711.316 360.385C710.355 359.893 709.641 359.307 709.172 358.627C708.715 357.947 708.486 357.139 708.486 356.201C708.486 354.643 709.143 353.324 710.455 352.246C711.779 351.168 713.467 350.629 715.518 350.629C717.674 350.629 719.42 351.186 720.756 352.299C722.104 353.412 722.777 354.836 722.777 356.57H719.508C719.508 355.68 719.127 354.912 718.365 354.268C717.615 353.623 716.666 353.301 715.518 353.301C714.334 353.301 713.408 353.559 712.74 354.074C712.072 354.59 711.738 355.264 711.738 356.096C711.738 356.881 712.049 357.473 712.67 357.871C713.291 358.27 714.41 358.65 716.027 359.014C717.656 359.377 718.975 359.811 719.982 360.314C720.99 360.818 721.734 361.428 722.215 362.143C722.707 362.846 722.953 363.707 722.953 364.727C722.953 366.426 722.273 367.791 720.914 368.822C719.555 369.842 717.791 370.352 715.623 370.352C714.1 370.352 712.752 370.082 711.58 369.543C710.408 369.004 709.488 368.254 708.82 367.293C708.164 366.32 707.836 365.271 707.836 364.146H711.088C711.146 365.236 711.58 366.104 712.389 366.748C713.209 367.381 714.287 367.697 715.623 367.697C716.854 367.697 717.838 367.451 718.576 366.959C719.326 366.455 719.701 365.787 719.701 364.955Z" fill="black"/>
<path d="M1175.84 350.98L1175.95 353.371C1177.4 351.543 1179.3 350.629 1181.64 350.629C1185.66 350.629 1187.69 352.896 1187.72 357.432V370H1184.47V357.414C1184.46 356.043 1184.14 355.029 1183.52 354.373C1182.91 353.717 1181.96 353.389 1180.66 353.389C1179.6 353.389 1178.68 353.67 1177.88 354.232C1177.08 354.795 1176.46 355.533 1176.02 356.447V370H1172.76V350.98H1175.84ZM1191.77 360.314C1191.77 358.451 1192.13 356.775 1192.86 355.287C1193.59 353.799 1194.61 352.65 1195.91 351.842C1197.23 351.033 1198.72 350.629 1200.4 350.629C1202.99 350.629 1205.08 351.525 1206.67 353.318C1208.28 355.111 1209.08 357.496 1209.08 360.473V360.701C1209.08 362.553 1208.72 364.217 1208.01 365.693C1207.3 367.158 1206.29 368.301 1204.97 369.121C1203.65 369.941 1202.14 370.352 1200.43 370.352C1197.85 370.352 1195.76 369.455 1194.16 367.662C1192.56 365.869 1191.77 363.496 1191.77 360.543V360.314ZM1195.04 360.701C1195.04 362.811 1195.52 364.504 1196.49 365.781C1197.48 367.059 1198.79 367.697 1200.43 367.697C1202.08 367.697 1203.4 367.053 1204.37 365.764C1205.34 364.463 1205.83 362.646 1205.83 360.314C1205.83 358.229 1205.33 356.541 1204.33 355.252C1203.35 353.951 1202.04 353.301 1200.4 353.301C1198.79 353.301 1197.5 353.939 1196.51 355.217C1195.53 356.494 1195.04 358.322 1195.04 360.701Z" fill="black"/>
</svg>
