<svg width="1920" height="302" viewBox="0 0 1920 302" fill="none" xmlns="http://www.w3.org/2000/svg">
<g clip-path="url(#clip0)">
<path d="M1920 -26H0V362H1920V-26Z" fill="#121212"/>
<path d="M492 117H474C472.344 117 471 115.656 471 114C471 112.344 472.344 111 474 111H492C493.656 111 495 112.344 495 114C495 115.656 493.656 117 492 117Z" fill="#FCFCFC"/>
<path d="M490.011 129H473.989C472.339 129 471 127.656 471 126C471 124.344 472.339 123 473.989 123H490.011C491.661 123 493 124.344 493 126C493 127.656 491.661 129 490.011 129Z" fill="#FCFCFC"/>
<path d="M489 85C493.418 85 497 81.4185 497 77C497 72.5817 493.418 69 489 69C484.582 69 481 72.5817 481 77C481 81.4185 484.582 85 489 85Z" fill="#FCFCFC"/>
<path d="M502 105H476C474.344 105 473 103.656 473 102V100C473 93.932 477.932 89 484 89H494C500.068 89 505 93.932 505 100V102C505 103.656 503.656 105 502 105Z" fill="#FCFCFC"/>
<path d="M496.12 141H466C459.932 141 455 136.068 455 130V68C455 61.932 459.932 57 466 57H512C518.068 57 523 61.932 523 68V94.08C523 95.736 521.656 97.08 520 97.08C518.344 97.08 517 95.736 517 94.08V68C517 65.244 514.756 63 512 63H466C463.244 63 461 65.244 461 68V130C461 132.756 463.244 135 466 135H496.12C497.776 135 499.12 136.344 499.12 138C499.12 139.656 497.776 141 496.12 141Z" fill="#FCFCFC"/>
<path d="M550.119 147.881L539.051 136.812C541.503 133.492 542.999 129.433 542.999 125.001C542.999 113.972 534.027 105 522.999 105C511.972 105 503 113.972 503 125.001C503 136.029 511.972 145.001 522.999 145.001C527.431 145.001 531.491 143.505 534.811 141.052L545.879 152.121C547.051 153.293 548.951 153.293 550.123 152.121C551.295 150.949 551.291 149.053 550.119 147.881ZM509 125.001C509 117.281 515.279 111 522.999 111C530.719 111 536.999 117.281 536.999 125.001C536.999 132.721 530.719 139.001 522.999 139.001C515.279 139.001 509 132.721 509 125.001Z" fill="#FCFCFC"/>
<path d="M408.173 202.99V208H406.485V195.203H411.205C412.605 195.203 413.701 195.561 414.492 196.275C415.289 196.99 415.688 197.937 415.688 199.114C415.688 200.356 415.298 201.314 414.519 201.988C413.745 202.656 412.635 202.99 411.188 202.99H408.173ZM408.173 201.61H411.205C412.107 201.61 412.799 201.399 413.279 200.978C413.76 200.55 414 199.935 414 199.132C414 198.37 413.76 197.761 413.279 197.304C412.799 196.847 412.14 196.609 411.302 196.592H408.173V201.61ZM422.183 199.949C421.937 199.908 421.67 199.888 421.383 199.888C420.316 199.888 419.593 200.342 419.212 201.25V208H417.586V198.49H419.168L419.194 199.589C419.728 198.739 420.483 198.314 421.462 198.314C421.778 198.314 422.019 198.355 422.183 198.438V199.949ZM423.079 203.157C423.079 202.226 423.261 201.388 423.624 200.644C423.993 199.899 424.503 199.325 425.153 198.921C425.81 198.517 426.557 198.314 427.395 198.314C428.689 198.314 429.735 198.763 430.532 199.659C431.335 200.556 431.736 201.748 431.736 203.236V203.351C431.736 204.276 431.558 205.108 431.2 205.847C430.849 206.579 430.342 207.15 429.68 207.561C429.023 207.971 428.268 208.176 427.412 208.176C426.123 208.176 425.077 207.728 424.274 206.831C423.478 205.935 423.079 204.748 423.079 203.271V203.157ZM424.714 203.351C424.714 204.405 424.957 205.252 425.443 205.891C425.936 206.529 426.592 206.849 427.412 206.849C428.238 206.849 428.895 206.526 429.381 205.882C429.867 205.231 430.11 204.323 430.11 203.157C430.11 202.114 429.861 201.271 429.363 200.626C428.871 199.976 428.215 199.65 427.395 199.65C426.592 199.65 425.944 199.97 425.452 200.608C424.96 201.247 424.714 202.161 424.714 203.351ZM441.826 203.351C441.826 204.804 441.492 205.973 440.824 206.857C440.156 207.736 439.26 208.176 438.135 208.176C436.934 208.176 436.005 207.751 435.349 206.901L435.27 208H433.775V194.5H435.401V199.536C436.058 198.722 436.963 198.314 438.117 198.314C439.271 198.314 440.177 198.751 440.833 199.624C441.495 200.497 441.826 201.692 441.826 203.21V203.351ZM440.2 203.166C440.2 202.059 439.986 201.203 439.559 200.6C439.131 199.996 438.516 199.694 437.713 199.694C436.641 199.694 435.87 200.192 435.401 201.188V205.302C435.899 206.298 436.676 206.796 437.73 206.796C438.51 206.796 439.116 206.494 439.55 205.891C439.983 205.287 440.2 204.379 440.2 203.166ZM445.649 208H444.023V194.5H445.649V208ZM452.206 208.176C450.917 208.176 449.868 207.754 449.06 206.91C448.251 206.061 447.847 204.927 447.847 203.509V203.21C447.847 202.267 448.025 201.426 448.383 200.688C448.746 199.943 449.25 199.363 449.895 198.947C450.545 198.525 451.248 198.314 452.004 198.314C453.24 198.314 454.201 198.722 454.887 199.536C455.572 200.351 455.915 201.517 455.915 203.034V203.711H449.473C449.496 204.648 449.769 205.407 450.29 205.987C450.817 206.562 451.485 206.849 452.294 206.849C452.868 206.849 453.354 206.731 453.753 206.497C454.151 206.263 454.5 205.952 454.799 205.565L455.792 206.339C454.995 207.563 453.8 208.176 452.206 208.176ZM452.004 199.65C451.348 199.65 450.797 199.891 450.352 200.371C449.906 200.846 449.631 201.514 449.525 202.375H454.289V202.252C454.242 201.426 454.02 200.787 453.621 200.336C453.223 199.879 452.684 199.65 452.004 199.65ZM459.334 198.49L459.378 199.545C460.075 198.725 461.016 198.314 462.199 198.314C463.529 198.314 464.435 198.824 464.915 199.844C465.231 199.387 465.642 199.018 466.146 198.736C466.655 198.455 467.256 198.314 467.947 198.314C470.033 198.314 471.094 199.419 471.129 201.628V208H469.503V201.725C469.503 201.045 469.348 200.538 469.037 200.204C468.727 199.864 468.205 199.694 467.473 199.694C466.869 199.694 466.368 199.876 465.97 200.239C465.571 200.597 465.34 201.08 465.275 201.689V208H463.641V201.769C463.641 200.386 462.964 199.694 461.61 199.694C460.544 199.694 459.814 200.148 459.422 201.057V208H457.796V198.49H459.334ZM480.12 208H478.433V195.203H480.12V208ZM482.563 203.166C482.563 201.707 482.909 200.535 483.601 199.65C484.292 198.76 485.197 198.314 486.316 198.314C487.43 198.314 488.312 198.695 488.962 199.457V194.5H490.588V208H489.094L489.015 206.98C488.364 207.777 487.459 208.176 486.299 208.176C485.197 208.176 484.298 207.725 483.601 206.822C482.909 205.92 482.563 204.742 482.563 203.289V203.166ZM484.189 203.351C484.189 204.429 484.412 205.272 484.857 205.882C485.303 206.491 485.918 206.796 486.703 206.796C487.734 206.796 488.487 206.333 488.962 205.407V201.039C488.476 200.143 487.729 199.694 486.721 199.694C485.924 199.694 485.303 200.002 484.857 200.617C484.412 201.232 484.189 202.144 484.189 203.351ZM497.065 208.176C495.776 208.176 494.728 207.754 493.919 206.91C493.11 206.061 492.706 204.927 492.706 203.509V203.21C492.706 202.267 492.885 201.426 493.242 200.688C493.605 199.943 494.109 199.363 494.754 198.947C495.404 198.525 496.107 198.314 496.863 198.314C498.1 198.314 499.061 198.722 499.746 199.536C500.432 200.351 500.774 201.517 500.774 203.034V203.711H494.332C494.355 204.648 494.628 205.407 495.149 205.987C495.677 206.562 496.345 206.849 497.153 206.849C497.728 206.849 498.214 206.731 498.612 206.497C499.011 206.263 499.359 205.952 499.658 205.565L500.651 206.339C499.854 207.563 498.659 208.176 497.065 208.176ZM496.863 199.65C496.207 199.65 495.656 199.891 495.211 200.371C494.766 200.846 494.49 201.514 494.385 202.375H499.148V202.252C499.102 201.426 498.879 200.787 498.48 200.336C498.082 199.879 497.543 199.65 496.863 199.65ZM504.202 198.49L504.255 199.686C504.981 198.771 505.931 198.314 507.103 198.314C509.112 198.314 510.126 199.448 510.144 201.716V208H508.518V201.707C508.512 201.021 508.354 200.515 508.043 200.187C507.738 199.858 507.261 199.694 506.61 199.694C506.083 199.694 505.62 199.835 505.222 200.116C504.823 200.397 504.513 200.767 504.29 201.224V208H502.664V198.49H504.202ZM514.802 196.188V198.49H516.577V199.747H514.802V205.645C514.802 206.025 514.881 206.312 515.039 206.506C515.197 206.693 515.467 206.787 515.848 206.787C516.035 206.787 516.293 206.752 516.621 206.682V208C516.193 208.117 515.777 208.176 515.373 208.176C514.646 208.176 514.099 207.956 513.729 207.517C513.36 207.077 513.176 206.453 513.176 205.645V199.747H511.444V198.49H513.176V196.188H514.802ZM520.251 208H518.625V198.49H520.251V208ZM518.493 195.968C518.493 195.704 518.572 195.481 518.73 195.3C518.895 195.118 519.135 195.027 519.451 195.027C519.768 195.027 520.008 195.118 520.172 195.3C520.336 195.481 520.418 195.704 520.418 195.968C520.418 196.231 520.336 196.451 520.172 196.627C520.008 196.803 519.768 196.891 519.451 196.891C519.135 196.891 518.895 196.803 518.73 196.627C518.572 196.451 518.493 196.231 518.493 195.968ZM523.406 208V199.747H521.903V198.49H523.406V197.682C523.406 196.621 523.708 195.795 524.312 195.203C524.921 194.611 525.779 194.315 526.887 194.315C527.543 194.315 528.372 194.494 529.374 194.852L529.102 196.223C528.369 195.93 527.672 195.783 527.01 195.783C526.312 195.783 525.809 195.941 525.498 196.258C525.193 196.568 525.041 197.037 525.041 197.664V198.49H526.983V199.747H525.041V208H523.406ZM530.183 208H528.548V198.49H530.183V208ZM536.643 206.849C537.223 206.849 537.729 206.673 538.163 206.321C538.597 205.97 538.837 205.53 538.884 205.003H540.422C540.393 205.548 540.205 206.066 539.859 206.559C539.514 207.051 539.051 207.443 538.471 207.736C537.896 208.029 537.287 208.176 536.643 208.176C535.348 208.176 534.316 207.745 533.549 206.884C532.787 206.017 532.406 204.833 532.406 203.333V203.061C532.406 202.135 532.576 201.312 532.916 200.591C533.256 199.87 533.742 199.311 534.375 198.912C535.014 198.514 535.767 198.314 536.634 198.314C537.7 198.314 538.585 198.634 539.288 199.272C539.997 199.911 540.375 200.74 540.422 201.76H538.884C538.837 201.145 538.603 200.641 538.181 200.248C537.765 199.85 537.249 199.65 536.634 199.65C535.808 199.65 535.166 199.949 534.709 200.547C534.258 201.139 534.032 201.997 534.032 203.122V203.43C534.032 204.525 534.258 205.369 534.709 205.961C535.16 206.553 535.805 206.849 536.643 206.849ZM548.121 208C548.027 207.812 547.951 207.479 547.893 206.998C547.137 207.783 546.234 208.176 545.186 208.176C544.248 208.176 543.478 207.912 542.874 207.385C542.276 206.852 541.978 206.178 541.978 205.363C541.978 204.373 542.353 203.605 543.103 203.061C543.858 202.51 544.919 202.234 546.284 202.234H547.866V201.487C547.866 200.919 547.696 200.468 547.356 200.134C547.017 199.794 546.516 199.624 545.854 199.624C545.273 199.624 544.787 199.771 544.395 200.063C544.002 200.356 543.806 200.711 543.806 201.127H542.171C542.171 200.652 542.338 200.195 542.672 199.756C543.012 199.311 543.469 198.959 544.043 198.701C544.623 198.443 545.259 198.314 545.95 198.314C547.046 198.314 547.904 198.59 548.525 199.141C549.146 199.686 549.469 200.438 549.492 201.399V205.776C549.492 206.649 549.604 207.344 549.826 207.859V208H548.121ZM545.423 206.761C545.933 206.761 546.416 206.629 546.873 206.365C547.33 206.102 547.661 205.759 547.866 205.337V203.386H546.592C544.6 203.386 543.604 203.969 543.604 205.135C543.604 205.645 543.773 206.043 544.113 206.33C544.453 206.617 544.89 206.761 545.423 206.761ZM554.247 196.188V198.49H556.022V199.747H554.247V205.645C554.247 206.025 554.326 206.312 554.484 206.506C554.643 206.693 554.912 206.787 555.293 206.787C555.48 206.787 555.738 206.752 556.066 206.682V208C555.639 208.117 555.223 208.176 554.818 208.176C554.092 208.176 553.544 207.956 553.175 207.517C552.806 207.077 552.621 206.453 552.621 205.645V199.747H550.89V198.49H552.621V196.188H554.247ZM559.696 208H558.07V198.49H559.696V208ZM557.938 195.968C557.938 195.704 558.018 195.481 558.176 195.3C558.34 195.118 558.58 195.027 558.896 195.027C559.213 195.027 559.453 195.118 559.617 195.3C559.781 195.481 559.863 195.704 559.863 195.968C559.863 196.231 559.781 196.451 559.617 196.627C559.453 196.803 559.213 196.891 558.896 196.891C558.58 196.891 558.34 196.803 558.176 196.627C558.018 196.451 557.938 196.231 557.938 195.968ZM561.876 203.157C561.876 202.226 562.058 201.388 562.421 200.644C562.79 199.899 563.3 199.325 563.95 198.921C564.606 198.517 565.354 198.314 566.191 198.314C567.486 198.314 568.532 198.763 569.329 199.659C570.132 200.556 570.533 201.748 570.533 203.236V203.351C570.533 204.276 570.354 205.108 569.997 205.847C569.646 206.579 569.139 207.15 568.477 207.561C567.82 207.971 567.064 208.176 566.209 208.176C564.92 208.176 563.874 207.728 563.071 206.831C562.274 205.935 561.876 204.748 561.876 203.271V203.157ZM563.511 203.351C563.511 204.405 563.754 205.252 564.24 205.891C564.732 206.529 565.389 206.849 566.209 206.849C567.035 206.849 567.691 206.526 568.178 205.882C568.664 205.231 568.907 204.323 568.907 203.157C568.907 202.114 568.658 201.271 568.16 200.626C567.668 199.976 567.012 199.65 566.191 199.65C565.389 199.65 564.741 199.97 564.249 200.608C563.757 201.247 563.511 202.161 563.511 203.351ZM574.11 198.49L574.163 199.686C574.89 198.771 575.839 198.314 577.011 198.314C579.021 198.314 580.034 199.448 580.052 201.716V208H578.426V201.707C578.42 201.021 578.262 200.515 577.951 200.187C577.646 199.858 577.169 199.694 576.519 199.694C575.991 199.694 575.528 199.835 575.13 200.116C574.731 200.397 574.421 200.767 574.198 201.224V208H572.572V198.49H574.11Z" fill="#FCFCFC"/>
<path d="M789 127.5C789 122.813 785.411 119 781 119C776.589 119 773 122.813 773 127.5C773 132.187 776.589 136 781 136C785.411 136 789 132.187 789 127.5ZM781 130.333C779.529 130.333 778.333 129.062 778.333 127.5C778.333 125.938 779.529 124.667 781 124.667C782.471 124.667 783.667 125.938 783.667 127.5C783.667 129.062 782.471 130.333 781 130.333Z" fill="#FCFCFC"/>
<path d="M781 136C773.28 136 767 142.355 767 150.167V153H795V150.167C795 142.355 788.72 136 781 136ZM773.08 147.333C774.235 144.035 777.35 141.667 781 141.667C784.65 141.667 787.765 144.035 788.92 147.333H773.08Z" fill="#FCFCFC"/>
<path d="M823 127.5C823 122.813 819.411 119 815 119C810.589 119 807 122.813 807 127.5C807 132.187 810.589 136 815 136C819.411 136 823 132.187 823 127.5ZM815 130.333C813.529 130.333 812.333 129.062 812.333 127.5C812.333 125.938 813.529 124.667 815 124.667C816.471 124.667 817.667 125.938 817.667 127.5C817.667 129.062 816.471 130.333 815 130.333Z" fill="#FCFCFC"/>
<path d="M815 136C807.28 136 801 142.355 801 150.167V153H829V150.167C829 142.355 822.72 136 815 136ZM807.08 147.333C808.235 144.035 811.35 141.667 815 141.667C818.65 141.667 821.765 144.035 822.92 147.333H807.08Z" fill="#FCFCFC"/>
<path d="M857 127.5C857 122.813 853.187 119 848.5 119C843.813 119 840 122.813 840 127.5C840 132.187 843.813 136 848.5 136C853.187 136 857 132.187 857 127.5ZM848.5 130.333C846.938 130.333 845.667 129.062 845.667 127.5C845.667 125.938 846.938 124.667 848.5 124.667C850.062 124.667 851.333 125.938 851.333 127.5C851.333 129.062 850.062 130.333 848.5 130.333Z" fill="#FCFCFC"/>
<path d="M849 136C841.28 136 835 142.355 835 150.167V153H863V150.167C863 142.355 856.72 136 849 136ZM841.08 147.333C842.235 144.035 845.35 141.667 849 141.667C852.65 141.667 855.765 144.035 856.92 147.333H841.08Z" fill="#FCFCFC"/>
<path d="M840.615 90.988H829.231V79.7831H823.538V68.2048H852V62.6024H823.538V57H806.462V62.6024H778V68.2048H806.462V79.7831H800.769V90.988H789.385V105.842L798.298 119H806.462V107.795H823.538V119H831.703L840.615 105.842V90.988ZM812.154 62.6024H817.846V79.7831H812.154C812.154 77.8609 812.154 64.6788 812.154 62.6024ZM800.769 112.55L795.077 104.146V96.5904H800.769V112.55ZM806.462 85.3855H823.538V102.193H806.462V85.3855ZM834.923 104.146L829.231 112.55C829.231 109.491 829.231 100.423 829.231 96.5904H834.923V104.146Z" fill="#FCFCFC"/>
<path d="M812 91H818V97H812V91Z" fill="#FCFCFC"/>
<path d="M767.494 196.203V204.904C767.488 206.111 767.107 207.099 766.352 207.866C765.602 208.634 764.582 209.064 763.293 209.158L762.845 209.176C761.444 209.176 760.328 208.798 759.496 208.042C758.664 207.286 758.242 206.246 758.23 204.922V196.203H759.9V204.869C759.9 205.795 760.155 206.516 760.665 207.031C761.175 207.541 761.901 207.796 762.845 207.796C763.8 207.796 764.529 207.541 765.033 207.031C765.543 206.521 765.798 205.804 765.798 204.878V196.203H767.494ZM775.439 206.478C775.439 206.038 775.272 205.698 774.938 205.458C774.61 205.212 774.033 205.001 773.207 204.825C772.387 204.649 771.733 204.438 771.247 204.192C770.767 203.946 770.409 203.653 770.175 203.313C769.946 202.974 769.832 202.569 769.832 202.101C769.832 201.321 770.16 200.662 770.816 200.123C771.479 199.584 772.322 199.314 773.348 199.314C774.426 199.314 775.299 199.593 775.967 200.149C776.641 200.706 776.978 201.418 776.978 202.285H775.343C775.343 201.84 775.152 201.456 774.771 201.134C774.396 200.812 773.922 200.65 773.348 200.65C772.756 200.65 772.293 200.779 771.959 201.037C771.625 201.295 771.458 201.632 771.458 202.048C771.458 202.44 771.613 202.736 771.924 202.936C772.234 203.135 772.794 203.325 773.603 203.507C774.417 203.688 775.076 203.905 775.58 204.157C776.084 204.409 776.456 204.714 776.696 205.071C776.942 205.423 777.065 205.854 777.065 206.363C777.065 207.213 776.726 207.896 776.046 208.411C775.366 208.921 774.484 209.176 773.4 209.176C772.639 209.176 771.965 209.041 771.379 208.771C770.793 208.502 770.333 208.127 769.999 207.646C769.671 207.16 769.507 206.636 769.507 206.073H771.133C771.162 206.618 771.379 207.052 771.783 207.374C772.193 207.69 772.732 207.849 773.4 207.849C774.016 207.849 774.508 207.726 774.877 207.479C775.252 207.228 775.439 206.894 775.439 206.478ZM783.13 209.176C781.841 209.176 780.792 208.754 779.983 207.91C779.175 207.061 778.771 205.927 778.771 204.509V204.21C778.771 203.267 778.949 202.426 779.307 201.688C779.67 200.943 780.174 200.363 780.818 199.947C781.469 199.525 782.172 199.314 782.928 199.314C784.164 199.314 785.125 199.722 785.811 200.536C786.496 201.351 786.839 202.517 786.839 204.034V204.711H780.396C780.42 205.648 780.692 206.407 781.214 206.987C781.741 207.562 782.409 207.849 783.218 207.849C783.792 207.849 784.278 207.731 784.677 207.497C785.075 207.263 785.424 206.952 785.723 206.565L786.716 207.339C785.919 208.563 784.724 209.176 783.13 209.176ZM782.928 200.65C782.271 200.65 781.721 200.891 781.275 201.371C780.83 201.846 780.555 202.514 780.449 203.375H785.213V203.252C785.166 202.426 784.943 201.787 784.545 201.336C784.146 200.879 783.607 200.65 782.928 200.65ZM793.325 200.949C793.079 200.908 792.812 200.888 792.525 200.888C791.459 200.888 790.735 201.342 790.354 202.25V209H788.729V199.49H790.311L790.337 200.589C790.87 199.739 791.626 199.314 792.604 199.314C792.921 199.314 793.161 199.355 793.325 199.438V200.949ZM804.241 203.823H801.235V209H799.539V196.203H803.775C805.217 196.203 806.324 196.531 807.098 197.188C807.877 197.844 808.267 198.799 808.267 200.053C808.267 200.85 808.05 201.544 807.616 202.136C807.188 202.728 806.591 203.17 805.823 203.463L808.829 208.895V209H807.019L804.241 203.823ZM801.235 202.443H803.828C804.666 202.443 805.331 202.227 805.823 201.793C806.321 201.359 806.57 200.779 806.57 200.053C806.57 199.262 806.333 198.655 805.858 198.233C805.39 197.812 804.71 197.598 803.819 197.592H801.235V202.443ZM814.331 209.176C813.042 209.176 811.993 208.754 811.185 207.91C810.376 207.061 809.972 205.927 809.972 204.509V204.21C809.972 203.267 810.15 202.426 810.508 201.688C810.871 200.943 811.375 200.363 812.02 199.947C812.67 199.525 813.373 199.314 814.129 199.314C815.365 199.314 816.326 199.722 817.012 200.536C817.697 201.351 818.04 202.517 818.04 204.034V204.711H811.598C811.621 205.648 811.894 206.407 812.415 206.987C812.942 207.562 813.61 207.849 814.419 207.849C814.993 207.849 815.479 207.731 815.878 207.497C816.276 207.263 816.625 206.952 816.924 206.565L817.917 207.339C817.12 208.563 815.925 209.176 814.331 209.176ZM814.129 200.65C813.473 200.65 812.922 200.891 812.477 201.371C812.031 201.846 811.756 202.514 811.65 203.375H816.414V203.252C816.367 202.426 816.145 201.787 815.746 201.336C815.348 200.879 814.809 200.65 814.129 200.65ZM825.467 206.478C825.467 206.038 825.3 205.698 824.966 205.458C824.638 205.212 824.061 205.001 823.234 204.825C822.414 204.649 821.761 204.438 821.274 204.192C820.794 203.946 820.437 203.653 820.202 203.313C819.974 202.974 819.859 202.569 819.859 202.101C819.859 201.321 820.188 200.662 820.844 200.123C821.506 199.584 822.35 199.314 823.375 199.314C824.453 199.314 825.326 199.593 825.994 200.149C826.668 200.706 827.005 201.418 827.005 202.285H825.37C825.37 201.84 825.18 201.456 824.799 201.134C824.424 200.812 823.949 200.65 823.375 200.65C822.783 200.65 822.32 200.779 821.986 201.037C821.652 201.295 821.485 201.632 821.485 202.048C821.485 202.44 821.641 202.736 821.951 202.936C822.262 203.135 822.821 203.325 823.63 203.507C824.444 203.688 825.104 203.905 825.607 204.157C826.111 204.409 826.483 204.714 826.724 205.071C826.97 205.423 827.093 205.854 827.093 206.363C827.093 207.213 826.753 207.896 826.073 208.411C825.394 208.921 824.512 209.176 823.428 209.176C822.666 209.176 821.992 209.041 821.406 208.771C820.82 208.502 820.36 208.127 820.026 207.646C819.698 207.16 819.534 206.636 819.534 206.073H821.16C821.189 206.618 821.406 207.052 821.811 207.374C822.221 207.69 822.76 207.849 823.428 207.849C824.043 207.849 824.535 207.726 824.904 207.479C825.279 207.228 825.467 206.894 825.467 206.478ZM833.157 209.176C831.868 209.176 830.819 208.754 830.011 207.91C829.202 207.061 828.798 205.927 828.798 204.509V204.21C828.798 203.267 828.977 202.426 829.334 201.688C829.697 200.943 830.201 200.363 830.846 199.947C831.496 199.525 832.199 199.314 832.955 199.314C834.191 199.314 835.152 199.722 835.838 200.536C836.523 201.351 836.866 202.517 836.866 204.034V204.711H830.424C830.447 205.648 830.72 206.407 831.241 206.987C831.769 207.562 832.437 207.849 833.245 207.849C833.819 207.849 834.306 207.731 834.704 207.497C835.103 207.263 835.451 206.952 835.75 206.565L836.743 207.339C835.946 208.563 834.751 209.176 833.157 209.176ZM832.955 200.65C832.299 200.65 831.748 200.891 831.303 201.371C830.857 201.846 830.582 202.514 830.477 203.375H835.24V203.252C835.193 202.426 834.971 201.787 834.572 201.336C834.174 200.879 833.635 200.65 832.955 200.65ZM844.627 209C844.533 208.812 844.457 208.479 844.398 207.998C843.643 208.783 842.74 209.176 841.691 209.176C840.754 209.176 839.983 208.912 839.38 208.385C838.782 207.852 838.483 207.178 838.483 206.363C838.483 205.373 838.858 204.605 839.608 204.061C840.364 203.51 841.425 203.234 842.79 203.234H844.372V202.487C844.372 201.919 844.202 201.468 843.862 201.134C843.522 200.794 843.021 200.624 842.359 200.624C841.779 200.624 841.293 200.771 840.9 201.063C840.508 201.356 840.312 201.711 840.312 202.127H838.677C838.677 201.652 838.844 201.195 839.178 200.756C839.518 200.311 839.975 199.959 840.549 199.701C841.129 199.443 841.765 199.314 842.456 199.314C843.552 199.314 844.41 199.59 845.031 200.141C845.652 200.686 845.975 201.438 845.998 202.399V206.776C845.998 207.649 846.109 208.344 846.332 208.859V209H844.627ZM841.929 207.761C842.438 207.761 842.922 207.629 843.379 207.365C843.836 207.102 844.167 206.759 844.372 206.337V204.386H843.098C841.105 204.386 840.109 204.969 840.109 206.135C840.109 206.645 840.279 207.043 840.619 207.33C840.959 207.617 841.396 207.761 841.929 207.761ZM853.144 200.949C852.897 200.908 852.631 200.888 852.344 200.888C851.277 200.888 850.554 201.342 850.173 202.25V209H848.547V199.49H850.129L850.155 200.589C850.688 199.739 851.444 199.314 852.423 199.314C852.739 199.314 852.979 199.355 853.144 199.438V200.949ZM858.285 207.849C858.865 207.849 859.372 207.673 859.806 207.321C860.239 206.97 860.479 206.53 860.526 206.003H862.064C862.035 206.548 861.848 207.066 861.502 207.559C861.156 208.051 860.693 208.443 860.113 208.736C859.539 209.029 858.93 209.176 858.285 209.176C856.99 209.176 855.959 208.745 855.191 207.884C854.43 207.017 854.049 205.833 854.049 204.333V204.061C854.049 203.135 854.219 202.312 854.559 201.591C854.898 200.87 855.385 200.311 856.018 199.912C856.656 199.514 857.409 199.314 858.276 199.314C859.343 199.314 860.228 199.634 860.931 200.272C861.64 200.911 862.018 201.74 862.064 202.76H860.526C860.479 202.145 860.245 201.641 859.823 201.248C859.407 200.85 858.892 200.65 858.276 200.65C857.45 200.65 856.809 200.949 856.352 201.547C855.9 202.139 855.675 202.997 855.675 204.122V204.43C855.675 205.525 855.9 206.369 856.352 206.961C856.803 207.553 857.447 207.849 858.285 207.849ZM865.519 200.642C866.239 199.757 867.177 199.314 868.331 199.314C870.341 199.314 871.354 200.448 871.372 202.716V209H869.746V202.707C869.74 202.021 869.582 201.515 869.271 201.187C868.967 200.858 868.489 200.694 867.839 200.694C867.312 200.694 866.849 200.835 866.45 201.116C866.052 201.397 865.741 201.767 865.519 202.224V209H863.893V195.5H865.519V200.642Z" fill="#FCFCFC"/>
<path d="M1161.56 66H1131.44C1130.64 66 1130 66.6718 1130 67.5004C1130 68.3282 1130.64 69 1131.44 69H1161.56C1162.36 69 1163 68.3282 1163 67.5004C1163 66.6718 1162.36 66 1161.56 66Z" fill="#FCFCFC"/>
<path d="M1161.56 72H1131.44C1130.64 72 1130 72.6718 1130 73.4996C1130 74.3282 1130.64 75 1131.44 75H1161.56C1162.36 75 1163 74.3282 1163 73.4996C1163 72.6718 1162.36 72 1161.56 72Z" fill="#FCFCFC"/>
<path d="M1161.56 76H1131.44C1130.64 76 1130 76.6712 1130 77.5C1130 78.3288 1130.64 79 1131.44 79H1161.56C1162.36 79 1163 78.3288 1163 77.5C1163 76.6712 1162.36 76 1161.56 76Z" fill="#FCFCFC"/>
<path d="M1106.46 126H1114.54C1115.35 126 1116 125.329 1116 124.501C1116 123.672 1115.35 123 1114.54 123H1106.46C1105.65 123 1105 123.672 1105 124.501C1105 125.329 1105.65 126 1106.46 126Z" fill="#FCFCFC"/>
<path d="M1106.46 136H1114.54C1115.35 136 1116 135.553 1116 135C1116 134.448 1115.35 134 1114.54 134H1106.46C1105.65 134 1105 134.448 1105 135C1105 135.553 1105.65 136 1106.46 136Z" fill="#FCFCFC"/>
<path d="M1106.46 147H1114.54C1115.35 147 1116 146.329 1116 145.5C1116 144.672 1115.35 144 1114.54 144H1106.46C1105.65 144 1105 144.672 1105 145.5C1105 146.329 1105.65 147 1106.46 147Z" fill="#FCFCFC"/>
<path d="M1192.57 124.94C1191.78 124.94 1191.14 125.585 1191.14 126.379V147.482C1191.14 148.937 1189.97 150.121 1188.52 150.121H1174.61C1173.16 150.121 1171.99 148.937 1171.99 147.482V121.781C1171.99 120.327 1173.16 119.143 1174.61 119.143H1188.52C1189.68 119.143 1190.71 119.925 1191.03 121.045C1191.26 121.807 1192.05 122.244 1192.81 122.019C1193.57 121.795 1194 120.995 1193.78 120.232C1193.1 117.896 1190.94 116.265 1188.52 116.265H1182.99V101.966C1182.99 100.134 1181.52 98.6443 1179.7 98.6443H1147.43V85.7851H1163.96C1166.99 85.7851 1169.44 83.3103 1169.44 80.2677V62.5168C1169.44 59.4752 1166.99 57 1163.96 57H1138.76C1137.97 57 1137.33 57.6446 1137.33 58.4389C1137.33 59.234 1137.97 59.8786 1138.76 59.8786H1163.96C1165.41 59.8786 1166.58 61.0623 1166.58 62.5168V80.2677C1166.58 81.7229 1165.41 82.9068 1163.96 82.9068H1128.04C1126.59 82.9068 1125.42 81.7229 1125.42 80.2677V62.5168C1125.42 61.0623 1126.59 59.8786 1128.04 59.8786H1133.04C1133.83 59.8786 1134.47 59.234 1134.47 58.4389C1134.47 57.6446 1133.83 57 1133.04 57H1128.04C1125.02 57 1122.56 59.4752 1122.56 62.5168V80.2677C1122.56 83.3103 1125.02 85.7851 1128.04 85.7851H1144.57V98.6443H1112.3C1110.48 98.6443 1109.01 100.134 1109.01 101.966V116.265H1103.48C1100.46 116.265 1098 118.739 1098 121.781V142.885C1098 143.679 1098.64 144.323 1099.43 144.323C1100.22 144.323 1100.86 143.679 1100.86 142.885V121.781C1100.86 120.327 1102.03 119.143 1103.48 119.143H1117.39C1118.84 119.143 1120.01 120.327 1120.01 121.781V147.482C1120.01 148.937 1118.84 150.121 1117.39 150.121H1103.48C1102.32 150.121 1101.29 149.339 1100.97 148.219C1100.74 147.456 1099.95 147.021 1099.19 147.245C1098.43 147.469 1098 148.269 1098.22 149.032C1098.9 151.368 1101.06 153 1103.48 153H1117.39C1120.41 153 1122.87 150.525 1122.87 147.482V121.781C1122.87 118.74 1120.41 116.265 1117.39 116.265H1111.86V101.966C1111.86 101.722 1112.06 101.523 1112.3 101.523H1144.57V116.265H1139.04C1136.02 116.265 1133.57 118.74 1133.57 121.781V147.482C1133.57 150.525 1136.02 153 1139.04 153H1152.96C1155.98 153 1158.43 150.525 1158.43 147.482V121.781C1158.43 118.74 1155.98 116.265 1152.96 116.265H1147.43V101.523H1179.7C1179.94 101.523 1180.14 101.722 1180.14 101.966V116.265H1174.61C1171.59 116.265 1169.13 118.74 1169.13 121.781V147.482C1169.13 150.525 1171.59 153 1174.61 153H1188.52C1191.54 153 1194 150.525 1194 147.482V126.379C1194 125.585 1193.36 124.94 1192.57 124.94ZM1152.96 119.143C1154.4 119.143 1155.58 120.327 1155.58 121.781V147.482C1155.58 148.937 1154.4 150.121 1152.96 150.121H1139.04C1137.6 150.121 1136.42 148.937 1136.42 147.482V121.781C1136.42 120.327 1137.6 119.143 1139.04 119.143H1152.96Z" fill="#FCFCFC"/>
<path d="M1185.67 123H1178.33C1177.59 123 1177 123.672 1177 124.501C1177 125.329 1177.59 126 1178.33 126H1185.67C1186.41 126 1187 125.329 1187 124.501C1187 123.672 1186.41 123 1185.67 123Z" fill="#FCFCFC"/>
<path d="M1185.67 134H1178.33C1177.59 134 1177 134.448 1177 135C1177 135.553 1177.59 136 1178.33 136H1185.67C1186.41 136 1187 135.553 1187 135C1187 134.448 1186.41 134 1185.67 134Z" fill="#FCFCFC"/>
<path d="M1185.67 144H1178.33C1177.59 144 1177 144.672 1177 145.5C1177 146.329 1177.59 147 1178.33 147H1185.67C1186.41 147 1187 146.329 1187 145.5C1187 144.672 1186.41 144 1185.67 144Z" fill="#FCFCFC"/>
<path d="M1142.46 126H1150.54C1151.35 126 1152 125.329 1152 124.501C1152 123.672 1151.35 123 1150.54 123H1142.46C1141.65 123 1141 123.672 1141 124.501C1141 125.329 1141.65 126 1142.46 126Z" fill="#FCFCFC"/>
<path d="M1142.46 136H1150.54C1151.35 136 1152 135.553 1152 135C1152 134.448 1151.35 134 1150.54 134H1142.46C1141.65 134 1141 134.448 1141 135C1141 135.553 1141.65 136 1142.46 136Z" fill="#FCFCFC"/>
<path d="M1142.46 147H1150.54C1151.35 147 1152 146.329 1152 145.5C1152 144.672 1151.35 144 1150.54 144H1142.46C1141.65 144 1141 144.672 1141 145.5C1141 146.329 1141.65 147 1142.46 147Z" fill="#FCFCFC"/>
<path d="M1099.73 199.203V207.904C1099.72 209.111 1099.34 210.099 1098.58 210.866C1097.83 211.634 1096.81 212.064 1095.52 212.158L1095.08 212.176C1093.68 212.176 1092.56 211.798 1091.73 211.042C1090.9 210.286 1090.47 209.246 1090.46 207.922V199.203H1092.13V207.869C1092.13 208.795 1092.39 209.516 1092.9 210.031C1093.41 210.541 1094.13 210.796 1095.08 210.796C1096.03 210.796 1096.76 210.541 1097.26 210.031C1097.77 209.521 1098.03 208.804 1098.03 207.878V199.203H1099.73ZM1107.67 209.478C1107.67 209.038 1107.5 208.698 1107.17 208.458C1106.84 208.212 1106.26 208.001 1105.44 207.825C1104.62 207.649 1103.96 207.438 1103.48 207.192C1103 206.946 1102.64 206.653 1102.41 206.313C1102.18 205.974 1102.06 205.569 1102.06 205.101C1102.06 204.321 1102.39 203.662 1103.05 203.123C1103.71 202.584 1104.55 202.314 1105.58 202.314C1106.66 202.314 1107.53 202.593 1108.2 203.149C1108.87 203.706 1109.21 204.418 1109.21 205.285H1107.57C1107.57 204.84 1107.38 204.456 1107 204.134C1106.63 203.812 1106.15 203.65 1105.58 203.65C1104.99 203.65 1104.52 203.779 1104.19 204.037C1103.86 204.295 1103.69 204.632 1103.69 205.048C1103.69 205.44 1103.84 205.736 1104.16 205.936C1104.47 206.135 1105.03 206.325 1105.83 206.507C1106.65 206.688 1107.31 206.905 1107.81 207.157C1108.32 207.409 1108.69 207.714 1108.93 208.071C1109.17 208.423 1109.3 208.854 1109.3 209.363C1109.3 210.213 1108.96 210.896 1108.28 211.411C1107.6 211.921 1106.72 212.176 1105.63 212.176C1104.87 212.176 1104.2 212.041 1103.61 211.771C1103.02 211.502 1102.56 211.127 1102.23 210.646C1101.9 210.16 1101.74 209.636 1101.74 209.073H1103.36C1103.39 209.618 1103.61 210.052 1104.01 210.374C1104.42 210.69 1104.96 210.849 1105.63 210.849C1106.25 210.849 1106.74 210.726 1107.11 210.479C1107.48 210.228 1107.67 209.894 1107.67 209.478ZM1115.36 212.176C1114.07 212.176 1113.02 211.754 1112.21 210.91C1111.41 210.061 1111 208.927 1111 207.509V207.21C1111 206.267 1111.18 205.426 1111.54 204.688C1111.9 203.943 1112.41 203.363 1113.05 202.947C1113.7 202.525 1114.4 202.314 1115.16 202.314C1116.4 202.314 1117.36 202.722 1118.04 203.536C1118.73 204.351 1119.07 205.517 1119.07 207.034V207.711H1112.63C1112.65 208.648 1112.92 209.407 1113.45 209.987C1113.97 210.562 1114.64 210.849 1115.45 210.849C1116.02 210.849 1116.51 210.731 1116.91 210.497C1117.31 210.263 1117.66 209.952 1117.95 209.565L1118.95 210.339C1118.15 211.563 1116.96 212.176 1115.36 212.176ZM1115.16 203.65C1114.5 203.65 1113.95 203.891 1113.51 204.371C1113.06 204.846 1112.79 205.514 1112.68 206.375H1117.44V206.252C1117.4 205.426 1117.17 204.787 1116.78 204.336C1116.38 203.879 1115.84 203.65 1115.16 203.65ZM1125.56 203.949C1125.31 203.908 1125.04 203.888 1124.76 203.888C1123.69 203.888 1122.97 204.342 1122.59 205.25V212H1120.96V202.49H1122.54L1122.57 203.589C1123.1 202.739 1123.86 202.314 1124.84 202.314C1125.15 202.314 1125.39 202.355 1125.56 202.438V203.949ZM1138.84 206.349H1133.47V212H1131.78V199.203H1139.71V200.592H1133.47V204.969H1138.84V206.349ZM1143.24 212H1141.61V198.5H1143.24V212ZM1145.42 207.157C1145.42 206.226 1145.6 205.388 1145.96 204.644C1146.33 203.899 1146.84 203.325 1147.49 202.921C1148.15 202.517 1148.9 202.314 1149.74 202.314C1151.03 202.314 1152.08 202.763 1152.87 203.659C1153.68 204.556 1154.08 205.748 1154.08 207.236V207.351C1154.08 208.276 1153.9 209.108 1153.54 209.847C1153.19 210.579 1152.68 211.15 1152.02 211.561C1151.36 211.971 1150.61 212.176 1149.75 212.176C1148.46 212.176 1147.42 211.728 1146.62 210.831C1145.82 209.935 1145.42 208.748 1145.42 207.271V207.157ZM1147.05 207.351C1147.05 208.405 1147.3 209.252 1147.78 209.891C1148.28 210.529 1148.93 210.849 1149.75 210.849C1150.58 210.849 1151.24 210.526 1151.72 209.882C1152.21 209.231 1152.45 208.323 1152.45 207.157C1152.45 206.114 1152.2 205.271 1151.7 204.626C1151.21 203.976 1150.56 203.65 1149.74 203.65C1148.93 203.65 1148.29 203.97 1147.79 204.608C1147.3 205.247 1147.05 206.161 1147.05 207.351ZM1164.54 209.759L1166.36 202.49H1167.99L1165.22 212H1163.9L1161.59 204.793L1159.34 212H1158.02L1155.26 202.49H1156.88L1158.75 209.609L1160.97 202.49H1162.28L1164.54 209.759ZM1179.99 212C1179.89 211.812 1179.82 211.479 1179.76 210.998C1179 211.783 1178.1 212.176 1177.05 212.176C1176.11 212.176 1175.34 211.912 1174.74 211.385C1174.14 210.852 1173.84 210.178 1173.84 209.363C1173.84 208.373 1174.22 207.605 1174.97 207.061C1175.72 206.51 1176.79 206.234 1178.15 206.234H1179.73V205.487C1179.73 204.919 1179.56 204.468 1179.22 204.134C1178.88 203.794 1178.38 203.624 1177.72 203.624C1177.14 203.624 1176.65 203.771 1176.26 204.063C1175.87 204.356 1175.67 204.711 1175.67 205.127H1174.04C1174.04 204.652 1174.2 204.195 1174.54 203.756C1174.88 203.311 1175.33 202.959 1175.91 202.701C1176.49 202.443 1177.12 202.314 1177.82 202.314C1178.91 202.314 1179.77 202.59 1180.39 203.141C1181.01 203.686 1181.33 204.438 1181.36 205.399V209.776C1181.36 210.649 1181.47 211.344 1181.69 211.859V212H1179.99ZM1177.29 210.761C1177.8 210.761 1178.28 210.629 1178.74 210.365C1179.2 210.102 1179.53 209.759 1179.73 209.337V207.386H1178.46C1176.47 207.386 1175.47 207.969 1175.47 209.135C1175.47 209.645 1175.64 210.043 1175.98 210.33C1176.32 210.617 1176.76 210.761 1177.29 210.761ZM1185.45 202.49L1185.5 203.686C1186.22 202.771 1187.17 202.314 1188.35 202.314C1190.36 202.314 1191.37 203.448 1191.39 205.716V212H1189.76V205.707C1189.75 205.021 1189.6 204.515 1189.29 204.187C1188.98 203.858 1188.5 203.694 1187.85 203.694C1187.33 203.694 1186.86 203.835 1186.46 204.116C1186.07 204.397 1185.76 204.767 1185.53 205.224V212H1183.91V202.49H1185.45ZM1193.44 207.166C1193.44 205.707 1193.79 204.535 1194.48 203.65C1195.17 202.76 1196.08 202.314 1197.2 202.314C1198.31 202.314 1199.19 202.695 1199.84 203.457V198.5H1201.47V212H1199.97L1199.89 210.98C1199.24 211.777 1198.34 212.176 1197.18 212.176C1196.08 212.176 1195.18 211.725 1194.48 210.822C1193.79 209.92 1193.44 208.742 1193.44 207.289V207.166ZM1195.07 207.351C1195.07 208.429 1195.29 209.272 1195.74 209.882C1196.18 210.491 1196.8 210.796 1197.58 210.796C1198.61 210.796 1199.37 210.333 1199.84 209.407V205.039C1199.36 204.143 1198.61 203.694 1197.6 203.694C1196.8 203.694 1196.18 204.002 1195.74 204.617C1195.29 205.232 1195.07 206.144 1195.07 207.351ZM1051.55 233H1049.87V220.203H1051.55V233ZM1055.93 223.49L1055.98 224.686C1056.71 223.771 1057.66 223.314 1058.83 223.314C1060.84 223.314 1061.85 224.448 1061.87 226.716V233H1060.25V226.707C1060.24 226.021 1060.08 225.515 1059.77 225.187C1059.47 224.858 1058.99 224.694 1058.34 224.694C1057.81 224.694 1057.35 224.835 1056.95 225.116C1056.55 225.397 1056.24 225.767 1056.02 226.224V233H1054.39V223.49H1055.93ZM1065.12 233V224.747H1063.62V223.49H1065.12V222.515C1065.12 221.495 1065.4 220.707 1065.94 220.15C1066.49 219.594 1067.26 219.315 1068.25 219.315C1068.63 219.315 1069 219.365 1069.37 219.465L1069.28 220.783C1069 220.73 1068.71 220.704 1068.4 220.704C1067.87 220.704 1067.47 220.859 1067.18 221.17C1066.89 221.475 1066.75 221.914 1066.75 222.488V223.49H1068.78V224.747H1066.75V233H1065.12ZM1070.15 228.157C1070.15 227.226 1070.33 226.388 1070.7 225.644C1071.06 224.899 1071.57 224.325 1072.22 223.921C1072.88 223.517 1073.63 223.314 1074.47 223.314C1075.76 223.314 1076.81 223.763 1077.6 224.659C1078.41 225.556 1078.81 226.748 1078.81 228.236V228.351C1078.81 229.276 1078.63 230.108 1078.27 230.847C1077.92 231.579 1077.41 232.15 1076.75 232.561C1076.09 232.971 1075.34 233.176 1074.48 233.176C1073.19 233.176 1072.15 232.728 1071.35 231.831C1070.55 230.935 1070.15 229.748 1070.15 228.271V228.157ZM1071.79 228.351C1071.79 229.405 1072.03 230.252 1072.51 230.891C1073.01 231.529 1073.66 231.849 1074.48 231.849C1075.31 231.849 1075.97 231.526 1076.45 230.882C1076.94 230.231 1077.18 229.323 1077.18 228.157C1077.18 227.114 1076.93 226.271 1076.43 225.626C1075.94 224.976 1075.29 224.65 1074.47 224.65C1073.66 224.65 1073.02 224.97 1072.52 225.608C1072.03 226.247 1071.79 227.161 1071.79 228.351ZM1085.44 224.949C1085.2 224.908 1084.93 224.888 1084.64 224.888C1083.58 224.888 1082.85 225.342 1082.47 226.25V233H1080.85V223.49H1082.43L1082.46 224.589C1082.99 223.739 1083.74 223.314 1084.72 223.314C1085.04 223.314 1085.28 223.355 1085.44 223.438V224.949ZM1088.48 223.49L1088.52 224.545C1089.22 223.725 1090.16 223.314 1091.34 223.314C1092.67 223.314 1093.58 223.824 1094.06 224.844C1094.37 224.387 1094.78 224.018 1095.29 223.736C1095.8 223.455 1096.4 223.314 1097.09 223.314C1099.17 223.314 1100.24 224.419 1100.27 226.628V233H1098.64V226.725C1098.64 226.045 1098.49 225.538 1098.18 225.204C1097.87 224.864 1097.35 224.694 1096.61 224.694C1096.01 224.694 1095.51 224.876 1095.11 225.239C1094.71 225.597 1094.48 226.08 1094.42 226.689V233H1092.78V226.769C1092.78 225.386 1092.11 224.694 1090.75 224.694C1089.69 224.694 1088.96 225.148 1088.56 226.057V233H1086.94V223.49H1088.48ZM1108.6 233C1108.51 232.812 1108.43 232.479 1108.37 231.998C1107.62 232.783 1106.72 233.176 1105.67 233.176C1104.73 233.176 1103.96 232.912 1103.36 232.385C1102.76 231.852 1102.46 231.178 1102.46 230.363C1102.46 229.373 1102.83 228.605 1103.58 228.061C1104.34 227.51 1105.4 227.234 1106.77 227.234H1108.35V226.487C1108.35 225.919 1108.18 225.468 1107.84 225.134C1107.5 224.794 1107 224.624 1106.33 224.624C1105.75 224.624 1105.27 224.771 1104.88 225.063C1104.48 225.356 1104.29 225.711 1104.29 226.127H1102.65C1102.65 225.652 1102.82 225.195 1103.15 224.756C1103.49 224.311 1103.95 223.959 1104.52 223.701C1105.1 223.443 1105.74 223.314 1106.43 223.314C1107.53 223.314 1108.39 223.59 1109.01 224.141C1109.63 224.686 1109.95 225.438 1109.97 226.399V230.776C1109.97 231.649 1110.08 232.344 1110.31 232.859V233H1108.6ZM1105.9 231.761C1106.41 231.761 1106.9 231.629 1107.35 231.365C1107.81 231.102 1108.14 230.759 1108.35 230.337V228.386H1107.07C1105.08 228.386 1104.08 228.969 1104.08 230.135C1104.08 230.645 1104.25 231.043 1104.59 231.33C1104.93 231.617 1105.37 231.761 1105.9 231.761ZM1114.73 221.188V223.49H1116.5V224.747H1114.73V230.645C1114.73 231.025 1114.81 231.312 1114.97 231.506C1115.12 231.693 1115.39 231.787 1115.77 231.787C1115.96 231.787 1116.22 231.752 1116.55 231.682V233C1116.12 233.117 1115.7 233.176 1115.3 233.176C1114.57 233.176 1114.03 232.956 1113.66 232.517C1113.29 232.077 1113.1 231.453 1113.1 230.645V224.747H1111.37V223.49H1113.1V221.188H1114.73ZM1120.18 233H1118.55V223.49H1120.18V233ZM1118.42 220.968C1118.42 220.704 1118.5 220.481 1118.66 220.3C1118.82 220.118 1119.06 220.027 1119.38 220.027C1119.69 220.027 1119.93 220.118 1120.1 220.3C1120.26 220.481 1120.34 220.704 1120.34 220.968C1120.34 221.231 1120.26 221.451 1120.1 221.627C1119.93 221.803 1119.69 221.891 1119.38 221.891C1119.06 221.891 1118.82 221.803 1118.66 221.627C1118.5 221.451 1118.42 221.231 1118.42 220.968ZM1122.36 228.157C1122.36 227.226 1122.54 226.388 1122.9 225.644C1123.27 224.899 1123.78 224.325 1124.43 223.921C1125.09 223.517 1125.83 223.314 1126.67 223.314C1127.97 223.314 1129.01 223.763 1129.81 224.659C1130.61 225.556 1131.01 226.748 1131.01 228.236V228.351C1131.01 229.276 1130.84 230.108 1130.48 230.847C1130.13 231.579 1129.62 232.15 1128.96 232.561C1128.3 232.971 1127.55 233.176 1126.69 233.176C1125.4 233.176 1124.36 232.728 1123.55 231.831C1122.76 230.935 1122.36 229.748 1122.36 228.271V228.157ZM1123.99 228.351C1123.99 229.405 1124.24 230.252 1124.72 230.891C1125.21 231.529 1125.87 231.849 1126.69 231.849C1127.52 231.849 1128.17 231.526 1128.66 230.882C1129.15 230.231 1129.39 229.323 1129.39 228.157C1129.39 227.114 1129.14 226.271 1128.64 225.626C1128.15 224.976 1127.49 224.65 1126.67 224.65C1125.87 224.65 1125.22 224.97 1124.73 225.608C1124.24 226.247 1123.99 227.161 1123.99 228.351ZM1134.59 223.49L1134.64 224.686C1135.37 223.771 1136.32 223.314 1137.49 223.314C1139.5 223.314 1140.52 224.448 1140.53 226.716V233H1138.91V226.707C1138.9 226.021 1138.74 225.515 1138.43 225.187C1138.13 224.858 1137.65 224.694 1137 224.694C1136.47 224.694 1136.01 224.835 1135.61 225.116C1135.21 225.397 1134.9 225.767 1134.68 226.224V233H1133.05V223.49H1134.59ZM1154.77 229.66H1149.41L1148.21 233H1146.47L1151.35 220.203H1152.83L1157.72 233H1155.99L1154.77 229.66ZM1149.92 228.271H1154.27L1152.09 222.286L1149.92 228.271ZM1163.79 224.949C1163.54 224.908 1163.28 224.888 1162.99 224.888C1161.92 224.888 1161.2 225.342 1160.82 226.25V233H1159.19V223.49H1160.77L1160.8 224.589C1161.33 223.739 1162.09 223.314 1163.07 223.314C1163.38 223.314 1163.62 223.355 1163.79 223.438V224.949ZM1168.93 231.849C1169.51 231.849 1170.02 231.673 1170.45 231.321C1170.88 230.97 1171.12 230.53 1171.17 230.003H1172.71C1172.68 230.548 1172.49 231.066 1172.15 231.559C1171.8 232.051 1171.34 232.443 1170.76 232.736C1170.18 233.029 1169.58 233.176 1168.93 233.176C1167.64 233.176 1166.6 232.745 1165.84 231.884C1165.08 231.017 1164.69 229.833 1164.69 228.333V228.061C1164.69 227.135 1164.86 226.312 1165.2 225.591C1165.54 224.87 1166.03 224.311 1166.66 223.912C1167.3 223.514 1168.05 223.314 1168.92 223.314C1169.99 223.314 1170.87 223.634 1171.58 224.272C1172.29 224.911 1172.66 225.74 1172.71 226.76H1171.17C1171.12 226.145 1170.89 225.641 1170.47 225.248C1170.05 224.85 1169.54 224.65 1168.92 224.65C1168.1 224.65 1167.45 224.949 1167 225.547C1166.55 226.139 1166.32 226.997 1166.32 228.122V228.43C1166.32 229.525 1166.55 230.369 1167 230.961C1167.45 231.553 1168.09 231.849 1168.93 231.849ZM1176.16 224.642C1176.88 223.757 1177.82 223.314 1178.98 223.314C1180.99 223.314 1182 224.448 1182.02 226.716V233H1180.39V226.707C1180.39 226.021 1180.23 225.515 1179.92 225.187C1179.61 224.858 1179.13 224.694 1178.48 224.694C1177.96 224.694 1177.49 224.835 1177.1 225.116C1176.7 225.397 1176.39 225.767 1176.16 226.224V233H1174.54V219.5H1176.16V224.642ZM1186.22 233H1184.59V223.49H1186.22V233ZM1184.46 220.968C1184.46 220.704 1184.54 220.481 1184.7 220.3C1184.86 220.118 1185.1 220.027 1185.42 220.027C1185.74 220.027 1185.98 220.118 1186.14 220.3C1186.3 220.481 1186.39 220.704 1186.39 220.968C1186.39 221.231 1186.3 221.451 1186.14 221.627C1185.98 221.803 1185.74 221.891 1185.42 221.891C1185.1 221.891 1184.86 221.803 1184.7 221.627C1184.54 221.451 1184.46 221.231 1184.46 220.968ZM1191.04 221.188V223.49H1192.81V224.747H1191.04V230.645C1191.04 231.025 1191.11 231.312 1191.27 231.506C1191.43 231.693 1191.7 231.787 1192.08 231.787C1192.27 231.787 1192.53 231.752 1192.85 231.682V233C1192.43 233.117 1192.01 233.176 1191.61 233.176C1190.88 233.176 1190.33 232.956 1189.96 232.517C1189.59 232.077 1189.41 231.453 1189.41 230.645V224.747H1187.68V223.49H1189.41V221.188H1191.04ZM1198.66 233.176C1197.38 233.176 1196.33 232.754 1195.52 231.91C1194.71 231.061 1194.3 229.927 1194.3 228.509V228.21C1194.3 227.267 1194.48 226.426 1194.84 225.688C1195.2 224.943 1195.71 224.363 1196.35 223.947C1197 223.525 1197.71 223.314 1198.46 223.314C1199.7 223.314 1200.66 223.722 1201.34 224.536C1202.03 225.351 1202.37 226.517 1202.37 228.034V228.711H1195.93C1195.95 229.648 1196.23 230.407 1196.75 230.987C1197.28 231.562 1197.94 231.849 1198.75 231.849C1199.33 231.849 1199.81 231.731 1200.21 231.497C1200.61 231.263 1200.96 230.952 1201.26 230.565L1202.25 231.339C1201.45 232.563 1200.26 233.176 1198.66 233.176ZM1198.46 224.65C1197.81 224.65 1197.25 224.891 1196.81 225.371C1196.36 225.846 1196.09 226.514 1195.98 227.375H1200.75V227.252C1200.7 226.426 1200.48 225.787 1200.08 225.336C1199.68 224.879 1199.14 224.65 1198.46 224.65ZM1208.08 231.849C1208.66 231.849 1209.16 231.673 1209.6 231.321C1210.03 230.97 1210.27 230.53 1210.32 230.003H1211.86C1211.83 230.548 1211.64 231.066 1211.29 231.559C1210.95 232.051 1210.49 232.443 1209.91 232.736C1209.33 233.029 1208.72 233.176 1208.08 233.176C1206.78 233.176 1205.75 232.745 1204.98 231.884C1204.22 231.017 1203.84 229.833 1203.84 228.333V228.061C1203.84 227.135 1204.01 226.312 1204.35 225.591C1204.69 224.87 1205.18 224.311 1205.81 223.912C1206.45 223.514 1207.2 223.314 1208.07 223.314C1209.13 223.314 1210.02 223.634 1210.72 224.272C1211.43 224.911 1211.81 225.74 1211.86 226.76H1210.32C1210.27 226.145 1210.04 225.641 1209.62 225.248C1209.2 224.85 1208.68 224.65 1208.07 224.65C1207.24 224.65 1206.6 224.949 1206.14 225.547C1205.69 226.139 1205.47 226.997 1205.47 228.122V228.43C1205.47 229.525 1205.69 230.369 1206.14 230.961C1206.59 231.553 1207.24 231.849 1208.08 231.849ZM1215.89 221.188V223.49H1217.67V224.747H1215.89V230.645C1215.89 231.025 1215.97 231.312 1216.13 231.506C1216.29 231.693 1216.56 231.787 1216.94 231.787C1217.12 231.787 1217.38 231.752 1217.71 231.682V233C1217.28 233.117 1216.87 233.176 1216.46 233.176C1215.74 233.176 1215.19 232.956 1214.82 232.517C1214.45 232.077 1214.26 231.453 1214.26 230.645V224.747H1212.53V223.49H1214.26V221.188H1215.89ZM1225.44 232.06C1224.81 232.804 1223.88 233.176 1222.66 233.176C1221.64 233.176 1220.87 232.883 1220.34 232.297C1219.81 231.705 1219.54 230.832 1219.54 229.678V223.49H1221.16V229.634C1221.16 231.075 1221.75 231.796 1222.92 231.796C1224.16 231.796 1224.99 231.333 1225.4 230.407V223.49H1227.03V233H1225.48L1225.44 232.06ZM1234.1 224.949C1233.86 224.908 1233.59 224.888 1233.3 224.888C1232.24 224.888 1231.51 225.342 1231.13 226.25V233H1229.5V223.49H1231.09L1231.11 224.589C1231.65 223.739 1232.4 223.314 1233.38 223.314C1233.7 223.314 1233.94 223.355 1234.1 223.438V224.949ZM1239.38 233.176C1238.09 233.176 1237.04 232.754 1236.23 231.91C1235.42 231.061 1235.02 229.927 1235.02 228.509V228.21C1235.02 227.267 1235.19 226.426 1235.55 225.688C1235.92 224.943 1236.42 224.363 1237.06 223.947C1237.71 223.525 1238.42 223.314 1239.17 223.314C1240.41 223.314 1241.37 223.722 1242.06 224.536C1242.74 225.351 1243.08 226.517 1243.08 228.034V228.711H1236.64C1236.67 229.648 1236.94 230.407 1237.46 230.987C1237.99 231.562 1238.65 231.849 1239.46 231.849C1240.04 231.849 1240.52 231.731 1240.92 231.497C1241.32 231.263 1241.67 230.952 1241.97 230.565L1242.96 231.339C1242.16 232.563 1240.97 233.176 1239.38 233.176ZM1239.17 224.65C1238.52 224.65 1237.97 224.891 1237.52 225.371C1237.08 225.846 1236.8 226.514 1236.69 227.375H1241.46V227.252C1241.41 226.426 1241.19 225.787 1240.79 225.336C1240.39 224.879 1239.85 224.65 1239.17 224.65Z" fill="#FCFCFC"/>
<path d="M1511.22 57H1476.45C1474.37 57 1472.67 59.1533 1472.67 61.8V74.2803C1468.19 75.3871 1465.11 80.5433 1465.11 86.04V94.2025C1465.11 95.525 1465.96 96.6025 1467 96.6025C1468.04 96.6025 1468.89 95.525 1468.89 94.2025V86.04C1468.9 82.919 1470.47 80.2529 1472.67 79.2579V148.2C1472.67 150.846 1474.37 153 1476.45 153H1511.22C1513.3 153 1515 150.846 1515 148.2V61.8C1515 59.1533 1513.3 57 1511.22 57ZM1511.22 148.2H1476.45V61.8H1511.22L1511.22 148.2H1511.22ZM1426.56 107.16C1426.56 105.835 1427.41 104.76 1428.45 104.76H1440.16C1441.21 104.76 1442.05 105.835 1442.05 107.16C1442.05 108.486 1441.21 109.56 1440.16 109.56H1428.45C1427.41 109.56 1426.56 108.486 1426.56 107.16ZM1426.56 116.76C1426.56 115.435 1427.41 114.36 1428.45 114.36H1451.88C1452.93 114.36 1453.77 115.435 1453.77 116.76C1453.77 118.086 1452.93 119.16 1451.88 119.16H1428.45C1427.41 119.16 1426.56 118.086 1426.56 116.76ZM1426.56 69C1426.56 67.6747 1427.41 66.6 1428.45 66.6H1451.88C1452.93 66.6 1453.77 67.6747 1453.77 69C1453.77 70.3253 1452.93 71.4 1451.88 71.4H1428.45C1427.41 71.4 1426.56 70.3253 1426.56 69ZM1507.44 108.36C1507.44 109.686 1506.59 110.76 1505.55 110.76H1482.12C1481.07 110.76 1480.23 109.686 1480.23 108.36C1480.23 107.035 1481.07 105.96 1482.12 105.96H1505.55C1506.59 105.96 1507.44 107.035 1507.44 108.36ZM1507.44 117.96C1507.44 119.285 1506.59 120.36 1505.55 120.36H1482.12C1481.07 120.36 1480.23 119.285 1480.23 117.96C1480.23 116.634 1481.07 115.56 1482.12 115.56H1505.55C1506.59 115.56 1507.44 116.634 1507.44 117.96ZM1495.72 127.56C1495.72 128.885 1494.88 129.96 1493.84 129.96H1482.12C1481.07 129.96 1480.23 128.885 1480.23 127.56C1480.23 126.234 1481.07 125.16 1482.12 125.16H1493.84C1494.88 125.16 1495.72 126.234 1495.72 127.56ZM1505.55 66.6H1482.12C1481.07 66.6 1480.23 67.6747 1480.23 69V98.76C1480.23 100.086 1481.07 101.16 1482.12 101.16H1505.55C1506.59 101.16 1507.44 100.086 1507.44 98.76V69C1507.44 67.6747 1506.59 66.6 1505.55 66.6ZM1503.66 96.36H1484.01V71.4H1503.66V96.36ZM1468.89 105.003C1468.89 106.325 1468.04 107.402 1467 107.402C1465.96 107.402 1465.11 106.325 1465.11 105.003C1465.11 103.678 1465.96 102.603 1467 102.603C1468.04 102.603 1468.89 103.678 1468.89 105.003ZM1467 113.402C1465.96 113.402 1465.11 114.477 1465.11 115.802V123.96C1465.1 127.081 1463.53 129.747 1461.33 130.742V61.8C1461.33 59.1533 1459.63 57 1457.55 57H1422.78C1420.7 57 1419 59.1533 1419 61.8V148.2C1419 150.846 1420.7 153 1422.78 153H1457.55C1459.63 153 1461.33 150.846 1461.33 148.2V135.72C1465.48 134.706 1468.89 129.96 1468.89 123.96V115.802C1468.89 114.477 1468.04 113.402 1467 113.402ZM1457.55 148.2H1422.78V61.8H1457.55L1457.55 131.16H1453.77C1453.77 127.19 1451.23 123.96 1448.1 123.96H1432.23C1429.1 123.96 1426.56 127.19 1426.56 131.16V135.96C1426.56 139.93 1429.1 143.16 1432.23 143.16H1448.1C1451.23 143.16 1453.77 139.93 1453.77 135.96H1457.55V148.2C1457.55 148.2 1457.55 148.2 1457.55 148.2ZM1449.99 135.96C1449.99 137.283 1449.14 138.36 1448.1 138.36H1432.23C1431.18 138.36 1430.34 137.283 1430.34 135.96V131.16C1430.34 129.837 1431.18 128.76 1432.23 128.76H1448.1C1449.14 128.76 1449.99 129.837 1449.99 131.16V135.96Z" fill="#FCFCFC"/>
<path d="M1423.78 219V206.203H1427.4C1428.51 206.203 1429.49 206.449 1430.35 206.941C1431.21 207.434 1431.86 208.134 1432.33 209.042C1432.8 209.95 1433.03 210.993 1433.04 212.171V212.988C1433.04 214.195 1432.8 215.253 1432.34 216.161C1431.87 217.069 1431.21 217.767 1430.34 218.253C1429.48 218.739 1428.47 218.988 1427.33 219H1423.78ZM1425.47 207.592V217.62H1427.25C1428.55 217.62 1429.56 217.216 1430.28 216.407C1431.01 215.599 1431.37 214.447 1431.37 212.953V212.206C1431.37 210.753 1431.03 209.625 1430.34 208.822C1429.66 208.014 1428.69 207.604 1427.44 207.592H1425.47ZM1439.29 219.176C1438 219.176 1436.95 218.754 1436.14 217.91C1435.33 217.061 1434.93 215.927 1434.93 214.509V214.21C1434.93 213.267 1435.11 212.426 1435.46 211.688C1435.83 210.943 1436.33 210.363 1436.98 209.947C1437.63 209.525 1438.33 209.314 1439.09 209.314C1440.32 209.314 1441.28 209.722 1441.97 210.536C1442.65 211.351 1443 212.517 1443 214.034V214.711H1436.55C1436.58 215.648 1436.85 216.407 1437.37 216.987C1437.9 217.562 1438.57 217.849 1439.38 217.849C1439.95 217.849 1440.44 217.731 1440.83 217.497C1441.23 217.263 1441.58 216.952 1441.88 216.565L1442.87 217.339C1442.08 218.563 1440.88 219.176 1439.29 219.176ZM1439.09 210.65C1438.43 210.65 1437.88 210.891 1437.43 211.371C1436.99 211.846 1436.71 212.514 1436.61 213.375H1441.37V213.252C1441.32 212.426 1441.1 211.787 1440.7 211.336C1440.3 210.879 1439.77 210.65 1439.09 210.65ZM1450.42 216.478C1450.42 216.038 1450.26 215.698 1449.92 215.458C1449.59 215.212 1449.02 215.001 1448.19 214.825C1447.37 214.649 1446.72 214.438 1446.23 214.192C1445.75 213.946 1445.39 213.653 1445.16 213.313C1444.93 212.974 1444.82 212.569 1444.82 212.101C1444.82 211.321 1445.14 210.662 1445.8 210.123C1446.46 209.584 1447.31 209.314 1448.33 209.314C1449.41 209.314 1450.28 209.593 1450.95 210.149C1451.62 210.706 1451.96 211.418 1451.96 212.285H1450.33C1450.33 211.84 1450.14 211.456 1449.76 211.134C1449.38 210.812 1448.91 210.65 1448.33 210.65C1447.74 210.65 1447.28 210.779 1446.94 211.037C1446.61 211.295 1446.44 211.632 1446.44 212.048C1446.44 212.44 1446.6 212.736 1446.91 212.936C1447.22 213.135 1447.78 213.325 1448.59 213.507C1449.4 213.688 1450.06 213.905 1450.56 214.157C1451.07 214.409 1451.44 214.714 1451.68 215.071C1451.93 215.423 1452.05 215.854 1452.05 216.363C1452.05 217.213 1451.71 217.896 1451.03 218.411C1450.35 218.921 1449.47 219.176 1448.38 219.176C1447.62 219.176 1446.95 219.041 1446.36 218.771C1445.78 218.502 1445.32 218.127 1444.98 217.646C1444.66 217.16 1444.49 216.636 1444.49 216.073H1446.12C1446.15 216.618 1446.36 217.052 1446.77 217.374C1447.18 217.69 1447.72 217.849 1448.38 217.849C1449 217.849 1449.49 217.726 1449.86 217.479C1450.24 217.228 1450.42 216.894 1450.42 216.478ZM1455.93 219H1454.31V209.49H1455.93V219ZM1454.18 206.968C1454.18 206.704 1454.26 206.481 1454.41 206.3C1454.58 206.118 1454.82 206.027 1455.13 206.027C1455.45 206.027 1455.69 206.118 1455.86 206.3C1456.02 206.481 1456.1 206.704 1456.1 206.968C1456.1 207.231 1456.02 207.451 1455.86 207.627C1455.69 207.803 1455.45 207.891 1455.13 207.891C1454.82 207.891 1454.58 207.803 1454.41 207.627C1454.26 207.451 1454.18 207.231 1454.18 206.968ZM1458.16 214.166C1458.16 212.684 1458.5 211.506 1459.19 210.633C1459.87 209.754 1460.78 209.314 1461.91 209.314C1463.07 209.314 1463.98 209.725 1464.63 210.545L1464.71 209.49H1466.19V218.771C1466.19 220.002 1465.83 220.972 1465.09 221.681C1464.37 222.39 1463.39 222.744 1462.16 222.744C1461.47 222.744 1460.8 222.598 1460.14 222.305C1459.49 222.012 1458.99 221.61 1458.64 221.101L1459.49 220.125C1460.18 220.986 1461.04 221.417 1462.04 221.417C1462.83 221.417 1463.45 221.194 1463.89 220.749C1464.33 220.304 1464.56 219.677 1464.56 218.868V218.051C1463.91 218.801 1463.02 219.176 1461.89 219.176C1460.78 219.176 1459.88 218.728 1459.19 217.831C1458.5 216.935 1458.16 215.713 1458.16 214.166ZM1459.79 214.351C1459.79 215.423 1460.01 216.267 1460.45 216.882C1460.89 217.491 1461.51 217.796 1462.3 217.796C1463.32 217.796 1464.08 217.33 1464.56 216.398V212.057C1464.06 211.148 1463.31 210.694 1462.32 210.694C1461.52 210.694 1460.91 211.002 1460.46 211.617C1460.02 212.232 1459.79 213.144 1459.79 214.351ZM1470.19 209.49L1470.24 210.686C1470.97 209.771 1471.92 209.314 1473.09 209.314C1475.1 209.314 1476.11 210.448 1476.13 212.716V219H1474.51V212.707C1474.5 212.021 1474.34 211.515 1474.03 211.187C1473.73 210.858 1473.25 210.694 1472.6 210.694C1472.07 210.694 1471.61 210.835 1471.21 211.116C1470.81 211.397 1470.5 211.767 1470.28 212.224V219H1468.65V209.49H1470.19ZM1488.92 219C1488.83 218.812 1488.75 218.479 1488.69 217.998C1487.94 218.783 1487.03 219.176 1485.98 219.176C1485.05 219.176 1484.28 218.912 1483.67 218.385C1483.08 217.852 1482.78 217.178 1482.78 216.363C1482.78 215.373 1483.15 214.605 1483.9 214.061C1484.66 213.51 1485.72 213.234 1487.08 213.234H1488.67V212.487C1488.67 211.919 1488.5 211.468 1488.16 211.134C1487.82 210.794 1487.31 210.624 1486.65 210.624C1486.07 210.624 1485.59 210.771 1485.19 211.063C1484.8 211.356 1484.6 211.711 1484.6 212.127H1482.97C1482.97 211.652 1483.14 211.195 1483.47 210.756C1483.81 210.311 1484.27 209.959 1484.84 209.701C1485.42 209.443 1486.06 209.314 1486.75 209.314C1487.84 209.314 1488.7 209.59 1489.32 210.141C1489.95 210.686 1490.27 211.438 1490.29 212.399V216.776C1490.29 217.649 1490.4 218.344 1490.62 218.859V219H1488.92ZM1486.22 217.761C1486.73 217.761 1487.21 217.629 1487.67 217.365C1488.13 217.102 1488.46 216.759 1488.67 216.337V214.386H1487.39C1485.4 214.386 1484.4 214.969 1484.4 216.135C1484.4 216.645 1484.57 217.043 1484.91 217.33C1485.25 217.617 1485.69 217.761 1486.22 217.761ZM1494.38 209.49L1494.43 210.686C1495.16 209.771 1496.11 209.314 1497.28 209.314C1499.29 209.314 1500.3 210.448 1500.32 212.716V219H1498.69V212.707C1498.69 212.021 1498.53 211.515 1498.22 211.187C1497.91 210.858 1497.44 210.694 1496.79 210.694C1496.26 210.694 1495.8 210.835 1495.4 211.116C1495 211.397 1494.69 211.767 1494.47 212.224V219H1492.84V209.49H1494.38ZM1502.38 214.166C1502.38 212.707 1502.72 211.535 1503.41 210.65C1504.1 209.76 1505.01 209.314 1506.13 209.314C1507.24 209.314 1508.12 209.695 1508.77 210.457V205.5H1510.4V219H1508.91L1508.83 217.98C1508.18 218.777 1507.27 219.176 1506.11 219.176C1505.01 219.176 1504.11 218.725 1503.41 217.822C1502.72 216.92 1502.38 215.742 1502.38 214.289V214.166ZM1504 214.351C1504 215.429 1504.22 216.272 1504.67 216.882C1505.12 217.491 1505.73 217.796 1506.52 217.796C1507.55 217.796 1508.3 217.333 1508.77 216.407V212.039C1508.29 211.143 1507.54 210.694 1506.53 210.694C1505.74 210.694 1505.12 211.002 1504.67 211.617C1504.22 212.232 1504 213.144 1504 214.351ZM1431.38 234.99V240H1429.69V227.203H1434.41C1435.81 227.203 1436.91 227.561 1437.7 228.275C1438.49 228.99 1438.89 229.937 1438.89 231.114C1438.89 232.356 1438.5 233.314 1437.72 233.988C1436.95 234.656 1435.84 234.99 1434.39 234.99H1431.38ZM1431.38 233.61H1434.41C1435.31 233.61 1436 233.399 1436.48 232.978C1436.96 232.55 1437.21 231.935 1437.21 231.132C1437.21 230.37 1436.96 229.761 1436.48 229.304C1436 228.847 1435.34 228.609 1434.51 228.592H1431.38V233.61ZM1445.39 231.949C1445.14 231.908 1444.88 231.888 1444.59 231.888C1443.52 231.888 1442.8 232.342 1442.42 233.25V240H1440.79V230.49H1442.37L1442.4 231.589C1442.93 230.739 1443.69 230.314 1444.67 230.314C1444.98 230.314 1445.22 230.355 1445.39 230.438V231.949ZM1446.28 235.157C1446.28 234.226 1446.47 233.388 1446.83 232.644C1447.2 231.899 1447.71 231.325 1448.36 230.921C1449.01 230.517 1449.76 230.314 1450.6 230.314C1451.89 230.314 1452.94 230.763 1453.74 231.659C1454.54 232.556 1454.94 233.748 1454.94 235.236V235.351C1454.94 236.276 1454.76 237.108 1454.41 237.847C1454.05 238.579 1453.55 239.15 1452.88 239.561C1452.23 239.971 1451.47 240.176 1450.62 240.176C1449.33 240.176 1448.28 239.728 1447.48 238.831C1446.68 237.935 1446.28 236.748 1446.28 235.271V235.157ZM1447.92 235.351C1447.92 236.405 1448.16 237.252 1448.65 237.891C1449.14 238.529 1449.8 238.849 1450.62 238.849C1451.44 238.849 1452.1 238.526 1452.59 237.882C1453.07 237.231 1453.32 236.323 1453.32 235.157C1453.32 234.114 1453.07 233.271 1452.57 232.626C1452.08 231.976 1451.42 231.65 1450.6 231.65C1449.8 231.65 1449.15 231.97 1448.66 232.608C1448.17 233.247 1447.92 234.161 1447.92 235.351ZM1459.19 228.188V230.49H1460.96V231.747H1459.19V237.645C1459.19 238.025 1459.27 238.312 1459.42 238.506C1459.58 238.693 1459.85 238.787 1460.23 238.787C1460.42 238.787 1460.68 238.752 1461.01 238.682V240C1460.58 240.117 1460.16 240.176 1459.76 240.176C1459.03 240.176 1458.48 239.956 1458.11 239.517C1457.75 239.077 1457.56 238.453 1457.56 237.645V231.747H1455.83V230.49H1457.56V228.188H1459.19ZM1462.26 235.157C1462.26 234.226 1462.44 233.388 1462.81 232.644C1463.18 231.899 1463.69 231.325 1464.34 230.921C1464.99 230.517 1465.74 230.314 1466.58 230.314C1467.87 230.314 1468.92 230.763 1469.72 231.659C1470.52 232.556 1470.92 233.748 1470.92 235.236V235.351C1470.92 236.276 1470.74 237.108 1470.38 237.847C1470.03 238.579 1469.53 239.15 1468.86 239.561C1468.21 239.971 1467.45 240.176 1466.6 240.176C1465.31 240.176 1464.26 239.728 1463.46 238.831C1462.66 237.935 1462.26 236.748 1462.26 235.271V235.157ZM1463.9 235.351C1463.9 236.405 1464.14 237.252 1464.63 237.891C1465.12 238.529 1465.78 238.849 1466.6 238.849C1467.42 238.849 1468.08 238.526 1468.56 237.882C1469.05 237.231 1469.29 236.323 1469.29 235.157C1469.29 234.114 1469.04 233.271 1468.55 232.626C1468.05 231.976 1467.4 231.65 1466.58 231.65C1465.78 231.65 1465.13 231.97 1464.64 232.608C1464.14 233.247 1463.9 234.161 1463.9 235.351ZM1475.17 228.188V230.49H1476.94V231.747H1475.17V237.645C1475.17 238.025 1475.24 238.312 1475.4 238.506C1475.56 238.693 1475.83 238.787 1476.21 238.787C1476.4 238.787 1476.66 238.752 1476.98 238.682V240C1476.56 240.117 1476.14 240.176 1475.74 240.176C1475.01 240.176 1474.46 239.956 1474.09 239.517C1473.72 239.077 1473.54 238.453 1473.54 237.645V231.747H1471.81V230.49H1473.54V228.188H1475.17ZM1481.96 237.618L1484.17 230.49H1485.91L1482.09 241.468C1481.5 243.05 1480.56 243.841 1479.27 243.841L1478.96 243.814L1478.36 243.7V242.382L1478.79 242.417C1479.35 242.417 1479.77 242.306 1480.08 242.083C1480.39 241.86 1480.64 241.453 1480.84 240.861L1481.2 239.895L1477.81 230.49H1479.59L1481.96 237.618ZM1495.41 235.351C1495.41 236.798 1495.08 237.964 1494.41 238.849C1493.75 239.733 1492.85 240.176 1491.72 240.176C1490.57 240.176 1489.66 239.81 1489 239.077V243.656H1487.37V230.49H1488.86L1488.94 231.545C1489.6 230.725 1490.52 230.314 1491.7 230.314C1492.84 230.314 1493.74 230.745 1494.4 231.606C1495.07 232.468 1495.41 233.666 1495.41 235.201V235.351ZM1493.78 235.166C1493.78 234.094 1493.55 233.247 1493.09 232.626C1492.64 232.005 1492.01 231.694 1491.21 231.694C1490.23 231.694 1489.49 232.131 1489 233.004V237.548C1489.49 238.415 1490.23 238.849 1491.23 238.849C1492.01 238.849 1492.63 238.541 1493.09 237.926C1493.55 237.305 1493.78 236.385 1493.78 235.166ZM1501.43 240.176C1500.14 240.176 1499.09 239.754 1498.28 238.91C1497.47 238.061 1497.07 236.927 1497.07 235.509V235.21C1497.07 234.267 1497.25 233.426 1497.6 232.688C1497.97 231.943 1498.47 231.363 1499.12 230.947C1499.77 230.525 1500.47 230.314 1501.22 230.314C1502.46 230.314 1503.42 230.722 1504.11 231.536C1504.79 232.351 1505.14 233.517 1505.14 235.034V235.711H1498.69C1498.72 236.648 1498.99 237.407 1499.51 237.987C1500.04 238.562 1500.71 238.849 1501.51 238.849C1502.09 238.849 1502.58 238.731 1502.97 238.497C1503.37 238.263 1503.72 237.952 1504.02 237.565L1505.01 238.339C1504.22 239.563 1503.02 240.176 1501.43 240.176ZM1501.22 231.65C1500.57 231.65 1500.02 231.891 1499.57 232.371C1499.13 232.846 1498.85 233.514 1498.75 234.375H1503.51V234.252C1503.46 233.426 1503.24 232.787 1502.84 232.336C1502.44 231.879 1501.9 231.65 1501.22 231.65Z" fill="#FCFCFC"/>
</g>
<defs>
<clipPath id="clip0">
<rect width="1920" height="302" fill="white"/>
</clipPath>
</defs>
</svg>
